<svg width="100" height="100" viewBox="0 0 100 100" fill="none" xmlns="http://www.w3.org/2000/svg">
<circle cx="50" cy="50" r="50" fill="#A4A4A4"/>
<path d="M66.6667 18.3333H33.3333C29.3564 18.3377 25.5437 19.9195 22.7316 22.7316C19.9195 25.5437 18.3378 29.3564 18.3333 33.3333V53.3333C18.3378 57.3102 19.9195 61.123 22.7316 63.9351C25.5437 66.7471 29.3564 68.3289 33.3333 68.3333H46.6667V76.6667H36.6667C35.7826 76.6667 34.9348 77.0178 34.3097 77.643C33.6845 78.2681 33.3333 79.1159 33.3333 80C33.3333 80.884 33.6845 81.7319 34.3097 82.357C34.9348 82.9821 35.7826 83.3333 36.6667 83.3333H63.3333C64.2174 83.3333 65.0652 82.9821 65.6904 82.357C66.3155 81.7319 66.6667 80.884 66.6667 80C66.6667 79.1159 66.3155 78.2681 65.6904 77.643C65.0652 77.0178 64.2174 76.6667 63.3333 76.6667H53.3333V68.3333H66.6667C70.6436 68.3289 74.4563 66.7471 77.2684 63.9351C80.0805 61.123 81.6623 57.3102 81.6667 53.3333V33.3333C81.6623 29.3564 80.0805 25.5437 77.2684 22.7316C74.4563 19.9195 70.6436 18.3377 66.6667 18.3333V18.3333Z" fill="#000000"/>
</svg>
