<svg width="497" height="353" viewBox="0 0 497 353" fill="none" xmlns="http://www.w3.org/2000/svg">
<path d="M473.6 0.0130659C485.6 0.00630778 496.005 9.60046 496.012 21.6005L496.186 330.4C496.193 342.4 485.798 352.006 473.798 352.013L22.5982 352.267C10.5982 352.274 0.192836 342.68 0.186078 330.68L0.0121681 21.8798C0.00541001 9.87979 10.4 0.27393 22.4 0.267172L473.6 0.0130659V0.0130659Z" fill="#363F3E"/>
<path d="M308.07 124.906C308.069 123.306 307.269 122.507 306.468 121.707C303.267 118.509 298.467 118.512 294.468 121.714L281.676 134.521C278.477 137.723 278.481 143.323 281.682 146.521C282.483 147.321 284.083 148.12 284.883 148.119C301.701 180.11 416.973 308.045 425.778 316.04L437.785 328.033C446.59 336.828 461.79 336.82 470.585 328.015L488.175 310.405C496.97 301.6 496.961 286.4 488.156 277.605L476.149 265.612C468.145 256.816 340.08 141.688 308.07 124.906Z" fill="#151918"/>
<path d="M21.7982 352.268C9.79824 352.274 0.192836 342.68 0.186078 330.68L0.0121681 21.8798C0.00541001 9.87979 10.4 0.27393 22.4 0.267172L474.4 0.0126154C486.4 0.00585724 496.805 9.6 496.812 21.6" fill="#151918"/>
<path d="M381.699 176.065C381.657 101.396 321.092 40.8989 246.423 40.941C171.754 40.983 111.257 101.548 111.299 176.217C111.341 250.886 171.906 311.383 246.575 311.341C321.244 311.299 381.741 250.734 381.699 176.065Z" fill="#151918"/>
<path d="M358.499 176.078C358.457 101.409 297.892 40.912 223.223 40.9541C148.554 40.9961 88.057 101.561 88.0991 176.23C88.1411 250.899 148.706 311.396 223.375 311.354C298.044 311.312 358.541 250.747 358.499 176.078Z" fill="#1BCEB8"/>
<path d="M281.676 134.521C278.477 137.723 278.481 143.323 281.682 146.521C282.483 147.321 284.083 148.12 284.883 148.119C292.091 162.515 319.31 196.1 348.129 228.884C355.32 212.88 358.509 194.478 358.499 176.078C358.496 171.278 358.494 166.478 357.691 161.678C336.081 144.091 317.673 129.701 307.27 124.907C307.269 123.307 306.469 122.507 305.668 121.708C302.467 118.509 297.667 118.512 293.668 121.714L281.676 134.521Z" fill="#0DBFBA"/>
<path d="M128.153 272.208C75.3234 219.437 75.2752 133.837 128.045 81.0077C180.816 28.178 266.416 28.1298 319.245 80.9" fill="#0DBFBA"/>
<path d="M248.099 176.14C248.091 162.443 236.982 151.346 223.285 151.354C209.588 151.362 198.491 162.471 198.499 176.168C198.507 189.865 209.616 200.962 223.313 200.954C237.01 200.946 248.107 189.837 248.099 176.14Z" fill="#151918"/>
<path d="M300.075 132.911C300.074 131.311 299.273 130.511 298.473 129.712C295.271 126.514 289.671 126.517 286.473 129.718L273.68 142.526C270.482 145.727 270.485 151.327 273.687 154.526C274.487 155.325 276.088 156.124 276.888 156.124C293.706 188.114 408.978 316.05 417.782 324.045L428.989 336.038C437.794 344.833 452.994 344.825 461.789 336.02L479.379 318.41C488.174 309.605 488.166 294.405 479.361 285.61L467.354 273.617C459.35 265.621 332.084 149.693 300.075 132.911Z" fill="#C5C9C9"/>
<path d="M480.179 318.409C488.974 309.604 488.966 294.404 480.161 285.609L468.154 273.616C460.149 265.621 332.884 149.692 300.075 132.911C300.074 131.311 299.273 130.511 298.473 129.712C295.271 126.514 289.671 126.517 286.473 129.718L273.68 142.526C270.482 145.727 270.485 151.327 273.687 154.526C274.487 155.325 276.088 156.124 276.888 156.124" fill="#B6B7B7"/>
<path d="M33.7807 321.061C38.5829 325.058 45.7825 324.254 50.5798 319.451C55.3771 314.649 55.373 307.449 52.1703 302.65L33.7807 321.061Z" fill="#B6B7B7"/>
<path d="M31.3793 318.662L48.9694 301.052C44.1671 297.055 36.9676 297.859 32.1703 302.662C27.3721 305.864 27.3762 313.064 31.3793 318.662Z" fill="#B6B7B7"/>
<path d="M40.0302 53.8573C48.0297 53.0528 51.2266 47.4509 51.223 41.0509C51.2194 34.6509 48.0162 29.0528 40.0158 28.2573L40.0302 53.8573Z" fill="#B6B7B7"/>
<path d="M36.8302 53.8591L36.8158 28.2591C28.8162 29.0636 25.6194 34.6654 25.623 41.0654C25.627 48.2654 28.8297 53.0636 36.8302 53.8591Z" fill="#B6B7B7"/>
<path d="M462.417 31.2194C457.615 27.2221 450.416 28.0261 445.618 32.8288C440.821 37.6315 440.825 44.8315 444.028 49.6297L462.417 31.2194Z" fill="#B6B7B7"/>
<path d="M464.819 33.618L447.229 51.2279C452.031 55.2252 459.231 54.4212 464.028 49.6185C468.826 46.4158 468.822 39.2158 464.819 33.618Z" fill="#B6B7B7"/>
<path d="M453.768 298.424C445.768 299.229 442.572 304.831 442.575 311.231C442.579 317.631 445.782 323.229 453.782 324.024L453.768 298.424Z" fill="#151918"/>
<path d="M456.168 298.423L456.182 324.023C464.182 323.218 467.379 317.617 467.375 311.217C467.371 304.017 464.168 299.218 456.168 298.423Z" fill="#151918"/>
</svg>
