<svg width="377" height="299" viewBox="0 0 377 299" fill="none" xmlns="http://www.w3.org/2000/svg">
<path fill-rule="evenodd" clip-rule="evenodd" d="M13.945 2.39329C13.779 2.66229 13.853 2.72529 14.132 2.55229C14.386 2.39529 14.594 2.44229 14.594 2.65729C14.594 2.87229 14.387 3.11629 14.134 3.20129C13.881 3.28529 13.746 3.55329 13.834 3.79729C13.922 4.04129 14.304 3.82429 14.683 3.31629C15.265 2.53629 15.283 2.35729 14.796 2.17029C14.479 2.04929 14.096 2.14929 13.945 2.39329ZM7.89603 5.45129C7.63903 5.61029 7.57503 5.95929 7.75003 6.24329C7.99903 6.64629 8.16603 6.63029 8.54903 6.16929C9.08603 5.52129 8.61703 5.00629 7.89603 5.45129ZM18.794 53.5023C17.034 53.9123 15.093 54.2623 14.481 54.2803C13.79 54.3013 12.872 54.8073 12.062 55.6143C11.344 56.3293 9.89603 57.6693 8.84403 58.5923C7.56303 59.7163 6.70903 60.8923 6.25803 62.1523C5.42903 64.4703 3.75003 65.9073 2.79603 65.1153C2.38703 64.7763 2.02203 64.7263 1.77403 64.9743C1.26703 65.4813 1.04903 265.927 1.55603 265.614C1.75503 265.491 1.80503 265.573 1.66703 265.795C1.53003 266.018 1.42203 270.861 1.42703 276.557C1.43203 282.253 1.43603 287.184 1.43703 287.514C1.43703 287.844 1.36203 288.613 1.26903 289.224C1.17703 289.834 1.27003 290.437 1.47503 290.564C1.68103 290.691 1.74803 291.056 1.62603 291.375C1.50103 291.699 1.57803 291.848 1.79903 291.711C2.01603 291.577 2.19403 291.758 2.19403 292.114C2.19403 292.483 2.38303 292.644 2.63403 292.489C2.92503 292.309 2.91203 292.521 2.59403 293.114C2.27603 293.707 2.26303 293.919 2.55403 293.739C2.80503 293.584 2.99403 293.745 2.99403 294.114C2.99403 294.47 3.17403 294.65 3.39403 294.514C3.61403 294.378 3.79403 294.547 3.79403 294.89C3.79403 295.643 4.24403 295.69 4.97303 295.014C5.27103 294.737 5.40003 294.714 5.26103 294.962C5.10003 295.25 5.61703 295.492 6.70203 295.638C7.81703 295.787 8.68503 296.205 9.25203 296.864C9.72503 297.413 10.22 297.754 10.353 297.622C10.485 297.489 10.594 297.546 10.595 297.747C10.595 297.949 11.225 298.135 11.995 298.162C12.764 298.188 13.394 298.042 13.394 297.838C13.394 297.634 13.186 297.595 12.932 297.752C12.646 297.929 12.579 297.862 12.756 297.576C13.138 296.957 360.594 296.904 360.594 297.523C360.594 298.293 362.419 298.836 363.343 298.341C364.006 297.987 364.195 298 364.2 298.4C364.205 298.803 364.279 298.799 364.545 298.38C364.975 297.701 365.413 297.701 365.843 298.38C366.195 298.934 366.264 298.608 366.293 296.28C366.305 295.316 366.414 295.256 367.892 295.404C369.022 295.517 369.715 295.354 370.305 294.838C370.759 294.44 370.986 294.362 370.807 294.666C370.584 295.045 370.657 295.16 371.038 295.035C371.344 294.934 371.652 294.458 371.723 293.977C371.803 293.43 372.028 293.208 372.323 293.385C372.582 293.54 372.539 293.353 372.226 292.968C371.746 292.377 371.745 292.288 372.217 292.391C372.603 292.476 372.794 292.083 372.837 291.114C372.871 290.344 372.92 289.399 372.946 289.014C372.978 288.547 373.326 288.314 373.994 288.314C374.544 288.314 374.994 288.123 374.994 287.89C374.994 287.657 375.219 287.602 375.494 287.767C375.838 287.974 375.824 287.858 375.449 287.395C375.149 287.025 374.753 286.816 374.57 286.929C374.18 287.17 374.436 285.524 374.845 285.16C374.997 285.025 375.008 285.229 374.87 285.614C374.73 286.004 374.811 286.314 375.052 286.314C375.339 286.314 375.378 285.875 375.167 285.014C374.992 284.299 374.746 234.484 374.62 174.314C374.494 114.144 374.334 65.2743 374.264 65.7143L374.138 66.5143L373.794 65.7143C373.605 65.2743 373.438 65.1393 373.422 65.4143C373.371 66.3153 372.701 65.9393 372.2 64.7283C371.93 64.0763 371.593 63.5623 371.451 63.5853C369.829 63.8573 366.994 60.9213 366.994 58.9693C366.994 58.6523 366.499 58.2103 365.894 57.9873C365.289 57.7643 364.079 56.9303 363.205 56.1333C362.331 55.3363 361.161 54.5843 360.605 54.4613C360.049 54.3383 358.244 53.8873 356.593 53.4593C353.647 52.6943 351.773 52.6843 253.593 52.9013C118.363 53.1993 57.085 53.2183 37.994 52.9683C23.352 52.7763 21.722 52.8213 18.794 53.5023ZM352.375 273.178C353.971 273.906 353.866 276.849 352.214 277.704C350.392 278.646 23.628 278.633 22.283 277.691C21.129 276.883 21 273.783 22.094 273.146C23.157 272.527 351.015 272.559 352.375 273.178ZM352.214 282.524C353.963 283.429 353.972 286.378 352.228 287.1C350.533 287.802 23.603 287.868 22.292 287.166C21.004 286.477 20.998 283.437 22.283 282.537C23.628 281.595 350.392 281.582 352.214 282.524ZM362.838 298.008C362.279 298.378 361.569 298.406 361.931 298.044C362.08 297.895 361.795 297.336 361.298 296.802L360.394 295.831L361.838 296.772C362.741 297.361 363.116 297.824 362.838 298.008Z" fill="#6CCCFC"/>
<path fill-rule="evenodd" clip-rule="evenodd" d="M18.394 2.35028C17.734 2.49828 17.419 2.64128 17.694 2.66728C18.311 2.72528 18.365 3.91428 17.751 3.91428C17.508 3.91428 17.411 4.18228 17.537 4.51028C17.849 5.32428 16.384 5.64528 13.602 5.37228C12.236 5.23828 11.462 5.30028 11.606 5.53328C11.735 5.74328 11.55 5.91428 11.194 5.91428C10.802 5.91428 10.661 6.09828 10.836 6.38228C11.04 6.71228 10.899 6.75828 10.36 6.53828C9.00303 5.98428 8.51203 6.09528 8.15503 7.03428C7.94503 7.58628 7.95203 7.86428 8.17203 7.72828C8.37403 7.60328 8.65203 7.68428 8.79003 7.90728C8.94203 8.15328 8.48803 8.31428 7.64103 8.31428C6.87103 8.31428 6.12803 8.49728 5.99003 8.72128C5.85203 8.94428 5.61603 9.05328 5.46603 8.96328C5.01403 8.68928 4.39703 9.65028 4.34203 10.7143C4.26003 12.2763 4.22003 12.3773 3.79403 12.1143C3.57403 11.9783 3.39403 12.0523 3.39403 12.2783C3.39403 12.5043 3.14803 12.5943 2.84703 12.4793C2.51203 12.3513 2.20103 12.6283 2.04703 13.1913C1.83703 13.9593 1.72803 14.0133 1.40003 13.5143C1.05903 12.9943 1.00503 13.0033 1.00003 13.5813C0.99703 13.9473 1.21903 14.3383 1.49403 14.4493C1.85703 14.5963 1.86303 14.6593 1.51603 14.6823C1.15803 14.7063 1.02903 17.6493 1.00303 26.4143C0.96503 39.0353 1.42003 62.0283 1.69203 61.2173C1.80303 60.8853 2.07903 60.8383 2.52603 61.0783C3.68803 61.7003 3.87603 61.6083 4.80803 59.9693C6.15303 57.6013 10.721 53.2663 12.485 52.6843C13.313 52.4113 14.783 51.7663 15.752 51.2513L17.513 50.3143H187.421H357.329L360.25 51.7143C361.857 52.4843 363.359 53.1143 363.589 53.1143C363.818 53.1143 364.791 53.9243 365.75 54.9143C366.71 55.9043 367.61 56.7143 367.75 56.7143C367.89 56.7143 368.45 57.4343 368.994 58.3143C370.438 60.6503 372.493 60.3523 373.162 57.7103L373.466 56.5143L373.997 57.7143C374.305 58.4083 374.569 58.6613 374.624 58.3143C374.677 57.9843 374.843 58.6143 374.994 59.7143L375.268 61.7143L375.398 59.3143L375.528 56.9143L375.794 59.3143C376.002 61.1953 376.074 60.5683 376.127 56.4143C376.169 53.0733 376.045 51.1143 375.791 51.1143C375.546 51.1143 375.576 50.8123 375.867 50.3463C376.248 49.7353 376.229 49.4353 375.77 48.8703C375.412 48.4293 375.383 48.2743 375.694 48.4613C375.969 48.6263 376.194 48.5713 376.194 48.3383C376.194 48.1053 376.014 47.9143 375.794 47.9143C375.574 47.9143 375.415 47.7793 375.441 47.6143C375.567 46.8173 375.354 46.2923 374.994 46.5143C374.774 46.6503 374.594 46.4913 374.594 46.1613C374.594 45.7933 374.309 45.6153 373.861 45.7013C373.433 45.7843 373.127 45.6103 373.127 45.2853C373.127 44.8653 373.26 44.8363 373.661 45.1693C373.954 45.4133 374.194 45.4503 374.194 45.2523C374.194 45.0543 373.819 44.5713 373.361 44.1783C372.902 43.7863 372.627 43.2063 372.748 42.8893C372.87 42.5733 372.799 42.3143 372.591 42.3143C372.362 42.3143 372.352 41.9503 372.566 41.3873C372.842 40.6633 372.752 40.3553 372.156 39.9833C371.558 39.6103 371.393 39.6163 371.388 40.0113C371.384 40.3613 371.292 40.3793 371.088 40.0713C370.926 39.8273 370.497 39.6733 370.134 39.7293C369.651 39.8043 369.502 39.5713 369.58 38.8633C369.638 38.3303 369.522 37.7933 369.321 37.6693C369.11 37.5383 369.142 37.2173 369.397 36.9103C369.744 36.4933 369.679 36.4193 369.101 36.5703C368.67 36.6833 368.052 36.4203 367.616 35.9393C367.206 35.4853 366.583 35.1003 366.232 35.0823C365.881 35.0653 365.8 34.9663 366.052 34.8633C366.639 34.6223 366.258 33.1143 365.609 33.1143C365.339 33.1143 364.8 32.7633 364.412 32.3343C363.949 31.8233 363.068 31.5133 361.85 31.4343C360.829 31.3683 360.027 31.1263 360.066 30.8973C360.106 30.6683 359.787 30.4543 359.358 30.4213C358.928 30.3893 358.674 30.5193 358.792 30.7113C358.91 30.9023 358.824 31.1723 358.601 31.3103C358.375 31.4493 358.194 31.1943 358.194 30.7383C358.194 30.1213 357.937 29.9143 357.17 29.9143C356.607 29.9143 356.251 30.0833 356.379 30.2903C356.507 30.4963 356.26 30.6393 355.83 30.6073C355.401 30.5743 355.139 30.4023 355.25 30.2243C355.36 30.0463 306.573 29.9483 246.834 30.0073L138.218 30.1143L138.404 29.0573C138.582 28.0483 138.021 27.6263 136.296 27.4733C135.718 27.4213 135.004 26.6213 135.222 26.2693C135.343 26.0743 135.15 25.9143 134.794 25.9143C134.438 25.9143 134.26 25.7313 134.398 25.5073C134.536 25.2843 134.845 25.2223 135.083 25.3693C135.345 25.5313 135.402 25.4513 135.228 25.1693C135.069 24.9123 134.771 24.8053 134.566 24.9313C134.362 25.0583 134.194 24.8703 134.194 24.5143C134.194 24.1583 134.012 23.9793 133.79 24.1163C132.921 24.6543 131.903 23.9253 132.098 22.9053C132.285 21.9273 130.145 20.4503 129.298 20.9733C129.014 21.1493 128.864 19.5433 128.867 16.3563C128.868 15.2973 128.772 15.1213 128.43 15.5563C127.92 16.2043 126.811 16.5333 127.188 15.9243C127.327 15.6983 127.251 15.5143 127.018 15.5143C126.785 15.5143 126.594 15.3233 126.594 15.0903C126.594 14.8573 126.802 14.7953 127.056 14.9523C127.342 15.1293 127.409 15.0623 127.232 14.7763C127.075 14.5223 126.668 14.3143 126.328 14.3143C125.916 14.3143 125.793 14.0923 125.963 13.6523C126.118 13.2473 125.874 12.6243 125.336 12.0523C124.439 11.0973 123.106 10.7253 123.632 11.5763C123.802 11.8503 123.743 11.9293 123.487 11.7713C123.048 11.5003 122.365 9.20128 122.534 8.56528C122.585 8.37328 122.349 8.32228 122.01 8.45228C121.671 8.58228 121.394 8.54728 121.394 8.37428C121.394 7.26228 118.686 5.11428 117.284 5.11428C115.961 5.11428 115.794 5.00228 115.794 4.11428C115.794 3.19228 115.257 2.86928 114.064 3.07728C113.883 3.10828 113.872 2.90428 114.041 2.62428C114.261 2.25928 114.155 2.27028 113.671 2.66328C113.084 3.13928 112.994 3.11928 112.994 2.51428C112.994 1.97528 112.871 1.91828 112.457 2.26228C112.162 2.50728 111.813 2.60028 111.682 2.46928C111.403 2.19028 59.392 2.25028 39.581 2.55228C31.08 2.68128 25.003 2.60428 23.399 2.34628C21.432 2.02928 20.756 2.04728 20.512 2.42328C20.298 2.75428 20.096 2.77828 19.894 2.49728C19.721 2.25728 19.087 2.19428 18.394 2.35028Z" fill="#94DCFC"/>
<path fill-rule="evenodd" clip-rule="evenodd" d="M15.676 2.50528C15.112 2.79828 14.578 2.96428 14.489 2.87628C14.4 2.78728 14.32 2.93928 14.312 3.21428C14.283 4.12328 14 4.91028 13.594 5.20828C13.121 5.55528 16.253 5.62028 17.136 5.28128C17.47 5.15328 17.646 4.79328 17.526 4.48128C17.406 4.16928 17.508 3.91428 17.751 3.91428C18.461 3.91428 18.262 2.94928 17.447 2.44028C16.87 2.07928 16.468 2.09428 15.676 2.50528ZM23.194 2.28328C24.805 2.53928 106.448 2.37928 107.194 2.11728C107.414 2.04028 88.244 1.98828 64.594 2.00228C40.944 2.01628 22.314 2.14228 23.194 2.28328ZM9.43603 5.48828C8.99903 5.75828 9.05603 5.91928 9.71403 6.27128C10.741 6.82128 11.116 6.83628 10.794 6.31428C10.658 6.09428 10.857 5.91428 11.237 5.91428C11.617 5.91428 11.803 5.78928 11.65 5.63728C11.21 5.19728 10.035 5.11828 9.43603 5.48828ZM7.63203 7.35928C7.32203 8.16828 7.52903 8.43028 8.33603 8.24928C8.84403 8.13628 8.85703 8.00128 8.41403 7.40228C7.93003 6.74628 7.86803 6.74328 7.63203 7.35928ZM2.69403 11.9263C1.58303 12.3733 1.55503 12.5433 2.59403 12.5433C3.03403 12.5433 3.39403 12.3913 3.39403 12.2053C3.39403 12.0193 3.60203 11.9953 3.85603 12.1523C4.14203 12.3293 4.20903 12.2623 4.03203 11.9763C3.87503 11.7223 3.71203 11.5253 3.67003 11.5393C3.62803 11.5533 3.18903 11.7273 2.69403 11.9263ZM126.896 15.3803C127.173 15.4913 127.316 15.7173 127.214 15.8813C127.112 16.0463 127.291 16.1813 127.612 16.1813C127.932 16.1813 128.194 16.0503 128.194 15.8903C128.194 15.5953 127.15 15.0883 126.661 15.1463C126.514 15.1633 126.62 15.2683 126.896 15.3803ZM1.08003 54.3643C0.969032 64.0023 1.03003 64.3143 3.04903 64.3143C4.54003 64.3143 4.64703 64.2243 5.64103 62.1253C6.80603 59.6653 12.516 53.9143 13.794 53.9143C14.208 53.9143 15.84 53.4483 17.42 52.8773L20.294 51.8413L37.144 52.0793C68.873 52.5273 144.674 52.6193 153.794 52.2203C159.258 51.9813 200.571 51.8653 258.957 51.9253L355.12 52.0233L358.475 53.1643C362.382 54.4933 363.469 55.0183 363.929 55.8003C364.113 56.1123 364.833 56.7113 365.529 57.1303C366.225 57.5493 367.424 58.9263 368.195 60.1883C369.359 62.0963 369.849 62.5443 371.095 62.8393C371.919 63.0343 372.594 63.4263 372.594 63.7113C372.594 63.9963 372.864 64.3323 373.194 64.4593C373.583 64.6083 373.796 64.4473 373.8 64.0013C373.805 63.4113 373.861 63.3993 374.194 63.9143C374.503 64.3923 374.583 64.3153 374.588 63.5383C374.594 62.5933 374.613 62.5863 375.181 63.3383C375.711 64.0373 375.763 63.7593 375.714 60.5143C375.662 57.0573 375.649 57.0093 375.394 59.3143L375.128 61.7143L375.055 59.7143C375.007 58.4143 374.861 57.9053 374.636 58.2593C374.378 58.6673 374.191 58.5173 373.892 57.6593L373.493 56.5143L373.176 57.7103C372.476 60.3543 370.437 60.6493 368.994 58.3143C368.45 57.4343 367.89 56.7143 367.75 56.7143C367.61 56.7143 366.71 55.9043 365.75 54.9143C364.791 53.9243 363.818 53.1143 363.589 53.1143C363.359 53.1143 361.857 52.4843 360.25 51.7143L357.329 50.3143H187.421H17.513L15.752 51.2513C14.783 51.7663 13.313 52.4113 12.485 52.6843C10.721 53.2663 6.15303 57.6013 4.80803 59.9693C3.87103 61.6173 3.69203 61.7023 2.49403 61.0603C2.00103 60.7973 1.76803 60.8383 1.70803 61.2003C1.66003 61.4833 1.51903 58.3843 1.39403 54.3143L1.16703 46.9143L1.08003 54.3643ZM22.861 273.78C22.714 273.927 22.594 274.737 22.594 275.581V277.114H187.217H351.84L351.717 275.414L351.594 273.714L187.361 273.614C97.033 273.558 23.008 273.633 22.861 273.78ZM22.671 284.814L22.794 286.514L94.194 286.785C133.464 286.934 207.444 286.934 258.594 286.785L351.594 286.514L351.717 284.814L351.84 283.114H187.194H22.548L22.671 284.814Z" fill="#7CD4FB"/>
<path fill-rule="evenodd" clip-rule="evenodd" d="M115.904 4.31428C115.871 4.75428 115.974 5.11428 116.134 5.11428C116.293 5.11428 116.451 4.75428 116.484 4.31428C116.517 3.87428 116.414 3.51428 116.254 3.51428C116.095 3.51428 115.937 3.87428 115.904 4.31428ZM161.394 52.0273C159.388 52.4403 64.237 52.4873 37.144 52.0893L20.294 51.8413L17.42 52.8773C15.84 53.4483 14.208 53.9143 13.794 53.9143C12.516 53.9143 6.80603 59.6653 5.64103 62.1253C4.44503 64.6503 1.67203 65.4693 1.27603 63.4143C1.18103 62.9193 1.12103 68.9043 1.14303 76.7143L1.18203 90.9143L1.29403 78.1283C1.40603 65.3353 1.55003 64.0823 2.79603 65.1153C3.75003 65.9073 5.42903 64.4703 6.25803 62.1523C6.70903 60.8923 7.56303 59.7163 8.84403 58.5923C9.89603 57.6693 11.344 56.3293 12.062 55.6143C12.78 54.8993 13.744 54.3143 14.204 54.3143C14.664 54.3143 16.875 53.9333 19.117 53.4683C23.015 52.6603 23.872 52.6353 38.594 52.9023C56.066 53.2193 109.553 53.2183 253.593 52.9013C351.773 52.6843 353.647 52.6943 356.593 53.4593C358.244 53.8873 360.049 54.3383 360.605 54.4613C361.161 54.5843 362.331 55.3363 363.205 56.1333C364.079 56.9303 365.289 57.7643 365.894 57.9873C366.499 58.2103 366.994 58.6523 366.994 58.9693C366.994 60.9213 369.829 63.8573 371.451 63.5853C371.593 63.5623 371.93 64.0763 372.2 64.7283C372.701 65.9393 373.371 66.3153 373.422 65.4143C373.438 65.1393 373.605 65.2743 373.794 65.7143C374.103 66.4343 374.141 66.4413 374.166 65.7853C374.193 65.0923 374.227 65.0903 374.894 65.7573C375.556 66.4193 375.605 72.3843 375.795 176.485L375.997 286.514L376.043 173.914C376.068 111.984 375.974 61.9443 375.834 62.7143C375.598 64.0123 375.545 64.0563 375.099 63.3143C374.639 62.5483 374.618 62.5573 374.6 63.5143C374.586 64.3083 374.502 64.3913 374.194 63.9143C373.861 63.3993 373.805 63.4113 373.8 64.0013C373.796 64.4473 373.583 64.6083 373.194 64.4593C372.864 64.3323 372.594 63.9963 372.594 63.7113C372.594 63.4263 371.919 63.0343 371.095 62.8393C369.849 62.5443 369.359 62.0963 368.195 60.1883C367.424 58.9263 366.225 57.5493 365.529 57.1303C364.833 56.7113 364.113 56.1123 363.929 55.8003C363.458 55.0013 362.32 54.4613 358.299 53.1343L354.794 51.9773L258.994 51.8173C201.054 51.7203 162.483 51.8033 161.394 52.0273ZM1.16803 276.314C1.16803 281.924 1.22403 284.219 1.29303 281.414C1.36203 278.609 1.36203 274.019 1.29303 271.214C1.22403 268.409 1.16803 270.704 1.16803 276.314ZM22.094 273.146C21 273.783 21.129 276.883 22.283 277.691C23.628 278.633 350.392 278.646 352.214 277.704C353.866 276.849 353.971 273.906 352.375 273.178C351.015 272.559 23.157 272.527 22.094 273.146ZM351.717 275.414L351.84 277.114H187.217H22.594V275.581C22.594 274.737 22.714 273.927 22.861 273.78C23.008 273.633 97.033 273.558 187.361 273.614L351.594 273.714L351.717 275.414ZM22.283 282.537C20.998 283.437 21.004 286.477 22.292 287.166C23.603 287.868 350.533 287.802 352.228 287.1C353.972 286.378 353.963 283.429 352.214 282.524C350.392 281.582 23.628 281.595 22.283 282.537ZM351.717 284.814L351.594 286.514L258.594 286.785C207.444 286.934 133.464 286.934 94.194 286.785L22.794 286.514L22.671 284.814L22.548 283.114H187.194H351.84L351.717 284.814ZM374.15 291.214C373.68 292.109 373.682 292.11 374.536 291.352C375.489 290.505 375.576 290.314 375.008 290.314C374.796 290.314 374.41 290.719 374.15 291.214Z" fill="#74D4FC"/>
<path d="M4.2288 12.5138C5.06469 10.8741 5.94462 9.47937 7.50338 8.4402C7.80819 8.23699 7.51014 8.44435 7.3462 8.54499C6.06807 9.32958 4.93508 10.5304 3.96029 11.6624C3.91865 11.7107 3.37908 12.4585 3.62628 12.0291C4.82682 9.94398 6.73262 8.23653 8.38096 6.51475C8.91159 5.96048 9.50996 5.09183 10.2409 4.75958C10.4787 4.65148 10.2614 5.54144 10.2278 5.61097C10.1645 5.74207 9.45162 6.64511 9.6515 6.51475C10.7127 5.82263 11.7754 5.14814 12.8868 4.53691C13.3394 4.28795 13.9405 3.81752 14.4848 3.7903C14.9927 3.76491 15.5086 3.7903 16.0173 3.7903C16.3691 3.7903 17.3125 3.61246 17.5891 3.79685C17.6369 3.82874 17.2865 3.90762 17.2616 3.91474C17.2324 3.92309 18.1581 4.02607 18.3488 4.02607C19.1764 4.02607 20.0375 4.09462 20.8636 4.01952C21.5804 3.95436 22.2438 3.7903 22.9725 3.7903C23.6012 3.7903 21.715 3.7903 21.0863 3.7903C20.2218 3.7903 19.3573 3.7903 18.4928 3.7903C15.94 3.7903 13.4938 4.72399 10.9482 4.85127C10.407 4.87833 9.74449 5.18207 9.20615 5.29661C8.82378 5.37796 8.41442 5.51896 8.06005 5.67646C7.29924 6.0146 6.81236 7.31383 6.28523 7.91627C6.13188 8.09153 6.10678 8.50896 5.92503 8.63012C5.52219 8.89869 5.07589 9.21698 4.72654 9.54046C4.33837 9.89987 4.06692 10.318 3.70487 10.68C3.51289 10.872 3.40027 11.096 3.28572 11.3415C3.17088 11.5876 2.83719 11.907 2.81418 12.1601C2.76876 12.6597 2.38992 13.0969 2.34919 13.6468C2.29974 14.3144 2.34265 15.0008 2.34265 15.6705C2.34265 16.3079 2.34265 16.9454 2.34265 17.5828" stroke="#94DCFC" stroke-width="3" stroke-linecap="round"/>
<path d="M3.5215 11.6886C3.6882 11.0218 3.87899 10.3547 3.96684 9.67145C4.00096 9.40607 3.97461 9.1634 4.11092 8.92485C4.34959 8.50718 4.95971 8.08725 5.31597 7.79839C6.08216 7.17716 6.896 6.51954 7.71296 5.96463C7.8377 5.8799 8.27998 5.76478 8.1321 5.79435C7.19931 5.98091 6.38336 6.61966 5.71547 7.26136C5.33592 7.62602 4.80687 8.02854 4.51697 8.4795C4.38341 8.68726 4.23327 9.04229 4.37289 8.41401C4.5576 7.58282 5.77881 5.314 5.47315 6.10871C5.26453 6.65111 4.71233 7.22277 4.37289 7.69361C4.23988 7.8781 3.77037 8.17185 3.77037 8.43366C3.77037 8.54697 4.74574 7.63876 4.81823 7.56917C5.10774 7.29125 5.40286 7.01693 5.73511 6.78982C5.88328 6.68855 6.21565 6.60003 6.32454 6.44927C6.55701 6.12738 5.65726 6.85437 6.6127 5.97773C7.74123 4.94227 8.78106 3.88463 10.0772 3.06991C11.2569 2.32839 12.5368 2.25781 13.8954 2.25781C14.4394 2.25781 14.179 2.64773 13.7709 2.72935C13.5357 2.77639 12.2378 2.96512 12.8606 2.96512C15.0847 2.96512 17.305 2.84724 19.5276 2.84724C19.5915 2.84724 20.0946 2.84865 19.9533 2.91928C19.1296 3.33115 17.913 3.23675 17.0127 3.29258C14.7219 3.43465 12.4707 3.13287 10.2278 3.61349C9.84685 3.69512 9.45327 3.85357 9.06863 3.90165C8.50413 3.97221 10.0165 3.86182 10.0706 3.8558C11.72 3.67254 13.3738 3.2847 15.0349 3.20744C16.3792 3.14491 17.6904 2.96512 19.043 2.96512C20.0963 2.96512 21.1145 2.72935 22.1735 2.72935C23.2082 2.72935 26.3125 2.72935 25.2778 2.72935C22.8197 2.72935 20.3615 2.72935 17.9034 2.72935C16.1625 2.72935 14.2986 2.54049 12.5921 2.90618C11.3851 3.16482 10.1428 3.30414 8.9442 3.58074C8.30335 3.72863 7.94236 3.85882 7.52958 4.43213C5.44073 7.33331 2.02752 9.29938 1.63535 13.2211" stroke="#94DCFC" stroke-linecap="round"/>
<path d="M103.458 2.38835C105.623 2.35453 107.767 2.08472 109.936 2.08472C111.246 2.08472 112.778 1.79597 113.905 2.48957C114.204 2.6736 114.478 2.7813 114.738 3.04061C114.906 3.20884 115.25 3.54665 115.452 3.64226C116.108 3.95333 116.511 4.27159 117.032 4.77245C117.919 5.62578 118.915 6.30692 119.787 7.17904C120.151 7.54316 120.354 7.94818 120.72 8.31486C121.774 9.36876 122.733 10.7173 124.004 11.5199C124.713 11.9675 125.218 12.9921 125.803 13.6004C126.498 14.3216 126.896 15.1458 127.468 15.9507C127.867 16.5121 128.306 17.0415 128.699 17.6095C128.951 17.9727 129.141 18.3565 129.47 18.661C129.717 18.89 129.975 19.0524 130.133 19.3582C130.659 20.3751 131.403 21.3352 132.079 22.254C132.678 23.0696 133.285 23.8853 133.962 24.6381C134.17 24.8692 134.34 25.0283 134.423 25.3184C134.535 25.7084 135.111 26.1432 135.34 26.5274C135.474 26.7531 135.683 27.4191 135.896 27.5901C136.354 27.9563 136.65 28.6288 137.004 29.0858C137.261 29.4178 137.554 29.6859 137.859 29.9686C137.96 30.0627 137.961 30.2239 138.073 30.3003C138.691 30.7257 136.971 29.2787 136.408 28.7821C135.655 28.1179 134.976 27.3407 134.35 26.5555C133.169 25.0748 131.654 24.0052 130.33 22.6813C129.85 22.2011 129.424 21.6782 128.969 21.1744C128.722 20.9009 128.392 20.4275 128.053 20.2579C127.472 19.9678 127.427 19.2601 128.255 19.8193C129.166 20.4352 129.782 21.4943 130.437 22.3833C130.763 22.8262 131.111 23.2193 131.471 23.6316C131.6 23.7787 131.623 24.0304 131.741 24.1489C132.331 24.7392 130.817 22.7584 130.347 22.0684C129.917 21.4384 129.642 20.6796 129.245 20.0217C129.03 19.6673 128.82 19.2222 128.48 18.9871C128.183 18.7812 128.151 18.814 128.452 19.077C128.886 19.457 129.267 19.8979 129.678 20.3085C130.28 20.9111 130.865 21.503 131.494 22.0797C132.295 22.8138 132.87 23.7553 133.614 24.5425C133.903 24.8489 134.245 25.0184 134.333 25.414C134.404 25.7338 134.775 25.7611 134.98 25.9763C135.485 26.5084 135.65 27.1074 136.211 27.5957C136.545 27.8854 136.769 28.1285 136.982 28.501C137.185 28.8561 137.691 29.0184 137.848 29.3894C137.935 29.5953 138.691 29.8431 138.635 30.0979C138.57 30.3913 137.259 29.7218 137.162 29.6705C136.65 29.4 136.176 28.8871 135.767 28.4785C134.793 27.5044 134.047 26.3925 132.911 25.5658" stroke="#94DCFC" stroke-linecap="round"/>
<path d="M113.478 3.09686H112.871" stroke="#94DCFC" stroke-linecap="round"/>
<line x1="115.378" y1="1.67253" x2="141.378" y2="31.6725" stroke="#94DCFC"/>
<line x1="115.372" y1="1.66552" x2="142.372" y2="31.6655" stroke="#94DCFC"/>
<path d="M137.263 28.6022C136.739 27.9495 136.169 27.362 135.643 26.7242C135.491 26.5389 135.33 26.5567 135.194 26.4205C134.959 26.1859 134.719 25.7602 134.575 25.4646C134.474 25.256 134.512 25.1996 134.35 25.0373C133.69 24.3768 135.719 26.3097 136.425 26.921C136.906 27.3368 137.16 27.7972 137.51 28.248C137.614 28.3813 137.956 28.8728 137.971 29.007C138.02 29.4204 138.487 29.7897 138.68 30.1316C138.812 30.3664 139.842 32.1574 139.096 31.1662C138.104 29.8487 136.713 28.7021 135.43 27.6857C134.176 26.6924 132.844 26.3873 131.291 26.1731" stroke="#94DCFC" stroke-linecap="round"/>
<path d="M116.211 3.60292C115.53 3.44983 115.474 3.12488 115.019 2.66953C114.549 2.19951 115.083 2.68473 115.3 2.79323" stroke="#94DCFC" stroke-linecap="round"/>
<line x1="9.99528" y1="1.50002" x2="115.995" y2="0.500022" stroke="#94DCFC"/>
<line x1="9.99528" y1="2.50002" x2="115.995" y2="1.50002" stroke="#94DCFC"/>
<ellipse cx="9.5" cy="10.5" rx="8.5" ry="9.5" fill="#94DCFC"/>
<line x1="141.628" y1="30.3338" x2="115.628" y2="1.33377" stroke="#94DCFC"/>
<line x1="142.628" y1="30.3345" x2="115.628" y2="0.334482" stroke="#94DCFC"/>
<rect x="355" y="30" width="21" height="20" fill="#94DCFC"/>
<rect x="359" y="62" width="17" height="237" fill="#6CCCFC"/>
<rect x="2" y="270" width="374" height="29" fill="#6CCCFC"/>
<line x1="359.004" y1="51.5" x2="14.0044" y2="52.5" stroke="#7CD4FB" stroke-width="3"/>
<path d="M17.917 51.2795C16.9418 51.3987 16.1033 51.737 15.238 52.189C14.7544 52.4416 14.2383 52.5801 13.7646 52.8517C12.9433 53.3225 12.0027 53.5824 11.1279 53.9444C10.9268 54.0276 10.4345 54.4321 10.5498 54.2476C10.6899 54.0234 11.2437 53.8177 11.4451 53.7083C12.3068 53.2401 13.1733 52.7839 14.0113 52.2736C14.6537 51.8825 15.2904 51.4156 15.9747 51.0998C16.0179 51.0799 16.1536 51.0648 16.0135 51.1315C15.5977 51.3295 15.2107 51.5775 14.8009 51.7871C14.3892 51.9978 13.1421 52.6038 13.5672 52.4216C14.3539 52.0845 15.1078 51.6619 15.9113 51.3606C16.3288 51.2041 16.7705 51.0603 17.219 51.0257C17.7256 50.9868 16.1869 51.0499 15.7068 51.2161C15.3898 51.3258 15.1154 51.5144 14.808 51.6461C14.7677 51.6634 14.4829 51.6982 14.6846 51.6461C15.2476 51.5009 15.7231 51.0699 16.2955 50.9658C16.5496 50.9196 16.2309 50.9623 16.1263 50.9623C15.9313 50.9623 15.7362 50.9623 15.5412 50.9623C15.2848 50.9623 14.9765 51.1584 14.7304 51.2302C14.4098 51.3237 14.1077 51.4655 13.7892 51.5651C13.4233 51.6794 13.1085 51.9868 12.7811 52.1996C12.4621 52.4069 12.108 52.6248 11.854 52.9151C11.7054 53.085 11.5255 53.0766 11.3852 53.2782C11.1996 53.545 11.0019 53.7962 10.7895 54.0431C10.6319 54.2264 10.4964 54.2449 10.4229 54.4838C10.3716 54.6503 10.1491 54.7764 10.0528 54.9209C9.95379 55.0693 9.57565 55.3914 9.38654 55.4602C9.249 55.5102 9.25402 55.6388 9.13274 55.7351C8.93509 55.8921 8.83067 56.0009 8.7168 56.2286" stroke="#7CD4FB" stroke-linecap="round"/>
<path d="M2.30839 62.8274C2.27477 63.1005 1.93248 64.2746 2.37889 64.4136C2.74861 64.5288 3.12795 64.604 3.51393 64.604C3.90451 64.604 2.72506 64.4805 2.38594 64.2867C1.74004 63.9176 1.67389 63.0506 1.67389 62.3832" stroke="#7CD4FB" stroke-linecap="round"/>
<path d="M6.49606 59.9087C7.58672 59.3303 8.19713 58.2034 8.9142 57.2473C9.29665 56.7374 9.90069 56.3732 10.3066 55.8726C10.8322 55.2243 11.5232 54.74 12.2065 54.2617" stroke="#7CD4FB" stroke-linecap="round"/>
<path d="M358.959 50.5816C359.283 50.7404 359.581 50.8977 359.886 51.0892C360.06 51.1989 360.38 51.4935 360.58 51.5298C361.039 51.6132 361.521 51.8625 361.941 52.0727C362.783 52.4937 363.572 52.9577 364.356 53.5003C364.695 53.7352 364.976 54.0369 365.307 54.2687C365.487 54.3945 365.723 54.5184 365.843 54.7058C365.958 54.8851 366.211 54.9252 366.361 55.0936C366.727 55.5034 367.059 55.8837 367.398 56.3167C367.605 56.5822 367.791 56.819 368.029 57.057C368.548 57.5768 369.074 58.0498 369.647 58.5269C370.074 58.8828 370.466 59.0507 370.951 59.2883C371.302 59.4607 371.581 59.674 371.966 59.7677C372.499 59.8974 373.091 60.0356 373.637 60.0356C374.067 60.0356 374.454 59.9843 374.878 59.9228C375.338 59.8559 374.939 59.9731 374.694 60.0356C374.029 60.2057 373.322 60.6066 372.629 60.6066C372.386 60.6066 372.506 60.6066 372.699 60.6066C372.962 60.6066 373.226 60.6066 373.489 60.6066" stroke="#7CD4FB" stroke-linecap="round"/>
<path d="M373.933 58.1321C372.453 58.5995 370.886 58.7465 369.393 59.1684C369.258 59.2066 369.123 59.2154 368.984 59.2107C368.966 59.2101 369.627 59.0883 369.703 59.0768C370.898 58.8961 372.076 58.7666 373.284 58.7666C373.326 58.7666 373.971 58.7341 373.665 58.8442C372.721 59.1841 371.646 59.2742 370.648 59.2742C369.492 59.2742 372.944 59.0087 374.095 58.9147C374.336 58.8949 374.354 58.958 374.162 59.105C373.613 59.5254 372.865 59.7228 372.213 59.9157C372.189 59.9226 371.727 60.105 371.677 59.9933C371.549 59.7107 372.269 59.1828 372.417 59.0662C372.962 58.639 373.718 58.2048 374.44 58.259C374.842 58.2892 374.948 58.8642 374.948 59.1649C374.948 59.35 374.828 59.9253 374.553 59.4998C374.218 58.9801 374.134 58.2147 374.698 57.829C375.275 57.4343 375.386 57.8541 375.477 58.4282C375.584 59.1042 375.225 59.5876 374.68 59.951C374.419 60.1253 374.256 60.0085 374.25 59.7183C374.246 59.5168 374.344 59.2226 374.507 59.5491C374.727 59.9879 374.835 60.5705 374.659 61.0367C374.519 61.4068 374.567 60.6873 374.567 60.589C374.567 60.5656 374.628 60.027 374.68 60.2189C374.746 60.4609 374.663 60.7337 374.698 60.9803C374.716 61.1074 374.895 61.2545 374.962 61.368C374.999 61.4309 374.709 60.9917 374.638 60.8922C374.364 60.5063 374.314 60.1439 374.314 59.6831C374.314 59.1583 374.521 58.6015 373.827 58.7948C373.293 58.9437 372.844 59.0838 372.283 59.0838C371.737 59.0838 371.369 58.7222 370.873 58.5128C370.525 58.3656 370.075 58.2558 369.759 58.0687C369.619 57.9854 369.452 57.9853 369.301 57.91C369.158 57.8383 368.946 57.6406 368.793 57.6245C368.586 57.6027 368.353 57.2252 368.222 57.0394C368.035 56.7732 367.714 56.5408 367.461 56.3414C367.168 56.1104 366.92 55.7538 366.686 55.4672C366.491 55.2291 366.079 55.0302 365.811 54.8962C365.631 54.8058 365.529 54.6315 365.364 54.5155C365.162 54.3741 364.892 54.2459 364.669 54.1348C364.351 53.9756 363.838 53.7457 363.492 53.6765C362.753 53.5288 362.078 53.1 361.342 52.901C360.498 52.6729 359.722 52.317 358.832 52.2947C358.41 52.2842 358.026 52.2157 358.275 52.7882C358.584 53.4981 359.761 53.9444 360.482 53.9444C360.905 53.9444 361.328 53.9444 361.751 53.9444C362.296 53.9444 362.824 54.0715 363.365 54.1489C363.825 54.2146 364.494 54.3297 364.909 54.5437C365.444 54.8201 366.014 54.956 366.523 55.2769C367.057 55.6126 367.508 56.0377 368.032 56.3414C368.809 56.7912 369.531 57.3425 370.352 57.7373C371.091 58.0932 371.827 58.1321 372.636 58.1321C372.874 58.1321 375.232 58.1192 375.202 58.0052C375.083 57.5543 373.574 57.6286 373.221 57.7373C372.963 57.8168 372.728 57.8783 372.452 57.8783C371.894 57.8783 373.565 57.7514 374.123 57.7514C374.351 57.7514 374.407 57.7331 374.116 57.7867C373.763 57.8518 373.432 57.8783 373.073 57.8783C372.314 57.8783 371.455 57.9995 370.711 57.8642C370.375 57.8031 370.082 57.7298 369.759 57.6104C369.628 57.5619 369.429 57.4116 369.336 57.3108C369.205 57.167 368.992 57.1384 368.871 56.99C368.453 56.4795 367.731 56.1256 367.109 55.9607C366.795 55.8777 366.407 55.6108 366.164 55.4038C365.927 55.2029 365.01 54.9779 365.268 55.15C365.697 55.4355 366.248 55.5469 366.7 55.7845C367.556 56.2353 368.312 56.6204 369.012 57.3073C369.226 57.5171 369.453 57.7581 369.689 57.9418C369.934 58.1325 370.257 58.1842 370.493 58.4C371.094 58.9512 371.809 59.1849 372.537 59.528C372.745 59.6261 372.942 59.6865 373.136 59.81C373.237 59.8743 373.347 59.8207 373.439 59.8946C373.518 59.9578 373.664 59.8569 373.739 59.9439C373.86 60.0845 374.017 59.9958 374.173 60.0497C374.255 60.0784 374.398 60.179 374.44 60.2541C374.483 60.3283 374.724 60.3034 374.807 60.3528C374.974 60.4515 375.152 60.4358 375.329 60.5291C375.451 60.5939 375.456 60.9173 375.456 61.0508C375.456 61.2566 375.583 61.422 375.583 61.6218C375.583 61.8606 375.599 61.2642 375.568 61.1636C375.394 60.5976 375.329 60.0569 375.329 59.4645" stroke="#7CD4FB" stroke-linecap="round"/>
<path d="M375.265 61.4949C375.318 61.0699 375.32 60.918 375.216 60.5432C375.152 60.3123 375.042 60.0859 375.015 59.8452C375.007 59.7764 374.958 59.3203 375.124 59.4293C375.419 59.6219 375.369 59.8674 375.487 60.1272C375.68 60.5512 375.646 60.974 375.646 61.4315C375.646 61.5989 375.646 61.9133 375.646 61.5266C375.646 60.8706 375.456 60.2491 375.456 59.5914" stroke="#7CD4FB" stroke-linecap="round"/>
<path d="M375.646 50.3912C375.552 51.1915 375.583 51.9976 375.583 52.8023" stroke="#94DCFC" stroke-linecap="round"/>
<path fill-rule="evenodd" clip-rule="evenodd" d="M185.318 64.0634C180.513 64.5199 176.925 67.3899 175.251 72.1169L174.818 73.3399L174.763 113.99C174.733 136.347 174.663 154.64 174.608 154.64C174.554 154.64 170.844 150.931 166.364 146.398C148.996 128.825 146.237 126.104 145.245 125.567C139.053 122.222 131.544 124.007 128.54 129.54C126.376 133.524 126.471 138.142 128.799 142.14C129.726 143.731 176.384 190.726 178.946 192.648C183.738 196.245 189.927 196.158 194.59 192.43C196.651 190.783 243.367 143.856 244.157 142.64C247.129 138.064 246.977 132.134 243.783 128.14C242.772 126.875 242.581 126.69 241.571 125.995C237.576 123.247 231.864 123.162 227.718 125.79C226.597 126.501 225.395 127.693 208.318 145.031L198.618 154.879L198.513 114.209C198.413 75.7159 198.388 73.4759 198.046 72.3399C196.372 66.7924 191.302 63.4949 185.318 64.0634ZM111.519 183.971C107.158 185.332 104.087 188.605 103.289 192.74C102.91 194.704 102.901 219.895 103.278 223.218C105.148 239.705 116.844 251.912 133.419 254.674L136.219 255.14H186.818H237.418L240.318 254.595C256.509 251.551 266.691 241.223 269.855 224.64C270.456 221.486 270.405 193.959 269.793 191.937C266.444 180.863 250.845 180.698 247.076 191.697C246.662 192.905 246.647 193.344 246.521 207.54C246.396 221.652 246.378 222.18 245.974 223.346C244.667 227.119 242.093 229.606 238.156 230.9L236.818 231.34H186.618H136.419L135.045 230.889C131.768 229.813 129.582 228.017 128.041 225.134C126.87 222.941 126.874 223.004 126.728 207.34C126.581 191.524 126.639 192.251 125.318 189.64C123.035 185.126 116.466 182.427 111.519 183.971Z" fill="#006091"/>
</svg>
