<svg width="64" height="65" viewBox="0 0 64 65" fill="none" xmlns="http://www.w3.org/2000/svg">
<path fill-rule="evenodd" clip-rule="evenodd" d="M33.837 0.369064C33.83 0.411564 33.81 0.536564 33.7925 0.646564C33.706 1.18506 33.497 1.70106 32.6175 3.54656C32.0935 4.64656 31.5455 5.81656 31.4005 6.14656C31.255 6.47656 31.0545 6.92656 30.9545 7.14656C30.648 7.82156 30.05 9.27706 30.05 9.34856C30.05 9.38606 29.9865 9.55806 29.9095 9.73156C29.832 9.90456 29.6925 10.2716 29.599 10.5466C29.5055 10.8216 29.3895 11.1366 29.3415 11.2466C29.156 11.6711 28.7595 12.8756 28.6005 13.4966C28.5095 13.8541 28.398 14.2166 28.3535 14.3026C28.3085 14.3881 28.1965 14.8156 28.1035 15.2526C28.011 15.6891 27.8935 16.1591 27.842 16.2966C27.706 16.6621 27.272 19.0386 27.057 20.5966C26.9545 21.3391 26.8215 22.2391 26.7615 22.5966C26.701 22.9541 26.5835 24.1016 26.5 25.1466C26.416 26.1916 26.3235 27.2266 26.2945 27.4466C26.0075 29.6066 26.0705 30.5631 26.493 30.4571C26.6075 30.4286 27.9385 30.3346 29.4505 30.2481C30.963 30.1616 32.265 30.0681 32.344 30.0396C32.423 30.0116 33.3005 29.9461 34.294 29.8941C41.619 29.5121 50.3775 29.5801 53.7 30.0446C54.25 30.1211 55.0375 30.2116 55.45 30.2451C56.213 30.3066 58.967 30.6871 60.6 30.9561C61.095 31.0381 61.86 31.1521 62.3 31.2101C62.74 31.2681 63.1545 31.3601 63.2205 31.4146C63.542 31.6786 63.55 31.3671 63.549 18.7656C63.5485 5.12756 63.5555 5.30706 62.994 4.15756C62.4645 3.07206 62.2795 2.79356 61.6825 2.18406C61.143 1.63356 60.8585 1.43506 59.95 0.974563C59.7025 0.849063 59.4725 0.709062 59.439 0.663062C59.405 0.617062 59.36 0.588563 59.339 0.599563C59.3175 0.610563 59.12 0.559563 58.9 0.485563C58.4505 0.335063 33.8615 0.220564 33.837 0.369064ZM50.1385 8.34056C51.163 8.87006 51.371 9.73606 51.424 13.6821C51.49 18.6461 51.0465 19.9966 49.35 19.9966C48.923 19.9966 48.05 19.5956 48.05 19.3996C48.05 19.3506 47.9915 19.2516 47.92 19.1786C47.2405 18.4871 46.9415 11.0771 47.5375 9.69656C48.122 8.34306 49.1285 7.81806 50.1385 8.34056Z" fill="#0CD444"/>
<path fill-rule="evenodd" clip-rule="evenodd" d="M32.886 0.146566C32.8355 0.279066 31.2345 0.296565 19.3145 0.297565C4.7075 0.298065 4.9655 0.289065 3.8135 0.856065C2.6675 1.42057 1.35 2.45307 1.35 2.78707C1.35 2.84207 1.2935 2.92257 1.224 2.96657C1.1545 3.01057 1.009 3.22657 0.900002 3.44657C0.791002 3.66657 0.649499 3.91406 0.584999 3.99656C0.520999 4.07906 0.415003 4.34906 0.349503 4.59656C0.284003 4.84406 0.178498 5.10956 0.114998 5.18706C0.0289979 5.29206 0 12.0651 0 32.1966C0 52.3281 0.0289979 59.1011 0.114998 59.2061C0.178498 59.2836 0.284003 59.5491 0.349503 59.7966C0.415003 60.0441 0.520999 60.3141 0.584999 60.3966C0.649499 60.4791 0.791002 60.7266 0.900002 60.9466C1.009 61.1666 1.1545 61.3826 1.224 61.4266C1.2935 61.4706 1.35 61.5511 1.35 61.6061C1.35 61.7086 2.4235 62.7966 2.5245 62.7966C2.5555 62.7966 2.7205 62.9006 2.8905 63.0276C3.4585 63.4521 4.518 63.8896 5.263 64.0076C6.231 64.1611 57.5755 64.0456 58.5555 63.8881C58.9075 63.8311 59.2195 63.7456 59.2495 63.6976C59.279 63.6496 59.5275 63.5346 59.802 63.4421C60.076 63.3496 60.336 63.2116 60.38 63.1351C60.424 63.0591 60.527 62.9966 60.6095 62.9966C60.804 62.9966 62.45 61.3506 62.45 61.1561C62.45 61.0736 62.5105 60.9706 62.5845 60.9266C62.6585 60.8826 62.8025 60.6216 62.9045 60.3466C63.0065 60.0716 63.123 59.8231 63.164 59.7941C63.4135 59.6186 63.4485 57.8401 63.449 45.3786C63.45 33.8971 63.468 32.2926 63.6 32.1611C63.7815 31.9791 63.7995 31.5011 63.625 31.4851C63.4185 31.4661 63.308 31.4386 63.15 31.3676C63.0675 31.3306 62.685 31.2601 62.3 31.2106C61.915 31.1611 61.1725 31.0506 60.65 30.9646C58.9705 30.6876 56.222 30.3076 55.45 30.2451C55.0375 30.2116 54.25 30.1211 53.7 30.0446C50.3775 29.5801 41.619 29.5121 34.294 29.8941C33.3005 29.9461 32.423 30.0116 32.344 30.0396C32.265 30.0681 30.963 30.1616 29.4505 30.2481C27.9385 30.3346 26.6075 30.4286 26.493 30.4571C26.0705 30.5631 26.0075 29.6066 26.2945 27.4466C26.3235 27.2266 26.416 26.1916 26.5 25.1466C26.5835 24.1016 26.701 22.9541 26.7615 22.5966C26.8215 22.2391 26.9545 21.3391 27.057 20.5966C27.272 19.0386 27.706 16.6621 27.842 16.2966C27.8935 16.1591 28.011 15.6891 28.1035 15.2526C28.1965 14.8156 28.3085 14.3881 28.3535 14.3026C28.398 14.2166 28.5095 13.8541 28.6005 13.4966C28.7595 12.8756 29.156 11.6711 29.3415 11.2466C29.3895 11.1366 29.5055 10.8216 29.599 10.5466C29.6925 10.2716 29.832 9.90457 29.9095 9.73157C29.9865 9.55807 30.05 9.38607 30.05 9.34857C30.05 9.27707 30.648 7.82157 30.9545 7.14657C31.0545 6.92657 31.255 6.47657 31.4005 6.14657C31.5455 5.81657 32.0935 4.64657 32.6175 3.54657C33.78 1.10807 33.9875 0.448565 33.688 0.148565C33.491 -0.0484351 32.9615 -0.049934 32.886 0.146566ZM12.629 8.36257C12.986 8.62407 13.5185 9.41807 13.6465 9.87907C13.788 10.3881 13.783 17.7236 13.641 18.2356C13.0415 20.3951 10.987 20.6856 9.9685 18.7556L9.7 18.2466V14.0966V9.94657L9.9645 9.44657C10.6295 8.19057 11.7645 7.72857 12.629 8.36257ZM48.489 8.38707C48.1075 8.61957 47.848 8.97657 47.5375 9.69657C47.215 10.4441 47.1615 17.5681 47.474 18.1966C47.5695 18.3891 47.6245 18.4496 47.5955 18.3311C47.0755 16.2041 47.319 9.56606 47.934 9.09706C47.9705 9.06906 48.049 8.95807 48.1085 8.85007C48.1685 8.74207 48.412 8.55057 48.6495 8.42507C48.887 8.29957 49.018 8.19657 48.9405 8.19707C48.8635 8.19707 48.66 8.28257 48.489 8.38707ZM49.8355 8.30357C49.965 8.35557 50.2125 8.49706 50.3855 8.61806C50.6205 8.78306 50.664 8.79407 50.5575 8.66107C50.392 8.45557 49.9195 8.19357 49.73 8.20307C49.6585 8.20657 49.706 8.25157 49.8355 8.30357ZM50.6535 8.93056C50.6515 8.97706 50.74 9.12957 50.85 9.26907C50.96 9.40907 51.05 9.47757 51.05 9.42107C51.05 9.29657 50.658 8.81206 50.6535 8.93056ZM51.2 14.0776V18.1466L50.92 18.7171C50.27 20.0411 48.968 20.2941 48.1045 19.2646C47.9115 19.0346 47.753 18.9031 47.752 18.9716C47.751 19.0406 47.792 19.0966 47.8435 19.0966C47.8945 19.0966 47.965 19.1866 48 19.2961C48.0985 19.6071 48.849 19.9966 49.35 19.9966C50.336 19.9966 51.106 19.0696 51.3555 17.5821C51.4895 16.7831 51.438 10.5591 51.2945 10.2276C51.233 10.0851 51.2 11.4296 51.2 14.0776ZM53.042 37.3091C53.404 37.3706 53.745 37.4546 53.8 37.4961C53.855 37.5371 54.0665 37.6241 54.27 37.6896C54.656 37.8141 55.75 38.8891 55.75 39.1441C55.75 39.2186 55.7955 39.2951 55.8515 39.3136C56.012 39.3671 56.1855 40.5126 56.1095 41.0176C55.9015 42.4061 54.5135 42.1386 54.6265 40.7316C54.688 39.9626 54.6265 39.9496 54.054 40.6146C53.6805 41.0486 53.613 41.1896 53.6385 41.4851C53.668 41.8251 53.582 41.9236 51.2845 44.1936C46.708 48.7151 43.886 50.7966 40.35 52.2591C39.8825 52.4526 39.1625 52.7831 38.75 52.9936C37.29 53.7386 34.121 54.9056 33.2 55.0366C32.251 55.1721 27.324 55.0691 27.272 54.9126C27.2505 54.8486 27.091 54.7966 26.9165 54.7961C26.487 54.7956 24.848 54.5136 24.6 54.3971C24.49 54.3456 24.1075 54.2306 23.75 54.1411C23.3925 54.0516 23.055 53.9436 23 53.9011C22.945 53.8581 22.6525 53.7431 22.35 53.6451C22.0475 53.5471 21.7775 53.4396 21.75 53.4061C21.7225 53.3731 21.52 53.2841 21.3 53.2096C21.08 53.1346 20.6855 52.9436 20.4235 52.7851C20.1615 52.6266 19.9025 52.4966 19.8485 52.4966C19.7945 52.4966 19.75 52.4516 19.75 52.3966C19.75 52.3416 19.703 52.2966 19.6455 52.2966C19.3465 52.2966 17.6455 51.0731 16.691 50.1716C16.298 49.8006 15.9255 49.4966 15.8635 49.4966C15.801 49.4966 15.75 49.4501 15.75 49.3936C15.75 49.3371 15.288 48.8081 14.723 48.2186C13.615 47.0621 13.05 46.3831 13.05 46.2071C13.05 46.1466 13.0135 46.0966 12.969 46.0966C12.8955 46.0966 12.473 45.5086 11.725 44.3666C11.5735 44.1356 11.3575 43.7556 11.245 43.5216C11.1325 43.2881 11.0075 43.0966 10.9675 43.0966C10.927 43.0966 10.8065 42.8716 10.7 42.5966C10.5935 42.3216 10.4755 42.0966 10.438 42.0966C10.4005 42.0966 10.1575 41.6601 9.898 41.1266C9.3625 40.0261 9.1085 39.9981 9.1635 41.0466C9.2285 42.2746 8.299 42.7036 7.7765 41.6871C7.5715 41.2881 7.6715 39.8876 7.918 39.7071C7.963 39.6736 8.067 39.5171 8.149 39.3586C8.636 38.4156 9.773 37.7316 11.025 37.6276C11.424 37.5946 11.75 37.5291 11.75 37.4821C11.75 37.3616 12.825 37.3751 12.9 37.4966C12.934 37.5516 13.0345 37.5966 13.123 37.5966C13.6205 37.5966 13.8205 38.3521 13.4325 38.7651C13.251 38.9586 13.114 38.9966 12.597 38.9966C11.71 38.9966 10.75 39.1101 10.75 39.2151C10.75 39.2646 10.9415 39.5566 11.175 39.8636C11.409 40.1711 11.645 40.4926 11.7 40.5781C11.831 40.7816 13.127 42.0966 13.197 42.0966C13.2265 42.0966 13.5995 42.3891 14.0255 42.7461C14.4515 43.1036 14.8515 43.3961 14.9145 43.3961C14.977 43.3966 15.0545 43.4641 15.086 43.5466C15.118 43.6291 15.2065 43.6966 15.2835 43.6966C15.36 43.6966 15.534 43.7836 15.669 43.8901C15.8045 43.9966 16.114 44.1921 16.3575 44.3246C16.601 44.4571 16.9575 44.6511 17.15 44.7561C17.3425 44.8606 17.5225 44.9701 17.55 44.9996C17.5775 45.0286 17.8025 45.1396 18.05 45.2466C18.2975 45.3536 18.5225 45.4651 18.55 45.4946C18.5775 45.5241 18.8475 45.6341 19.15 45.7391C19.4525 45.8441 19.79 45.9841 19.9 46.0501C20.01 46.1156 20.314 46.2266 20.575 46.2961C20.8365 46.3656 21.05 46.4551 21.05 46.4946C21.05 46.5341 21.399 46.6471 21.825 46.7456C22.2515 46.8441 22.645 46.9591 22.7 47.0011C22.755 47.0431 23.1825 47.1536 23.65 47.2461C24.1175 47.3391 24.5825 47.4586 24.6835 47.5121C24.7845 47.5656 25.4595 47.6831 26.1835 47.7741C26.9075 47.8646 27.524 47.9726 27.5535 48.0136C27.771 48.3186 34.9365 48.3136 35.1485 48.0086C35.1765 47.9676 35.6615 47.8506 36.225 47.7486C36.789 47.6466 37.25 47.5316 37.25 47.4931C37.25 47.4541 37.5315 47.3676 37.875 47.3001C38.219 47.2326 38.68 47.0961 38.9 46.9961C39.12 46.8966 39.471 46.7826 39.68 46.7436C39.889 46.7046 40.114 46.6201 40.18 46.5566C40.246 46.4926 40.5025 46.3786 40.75 46.3026C40.9975 46.2271 41.295 46.1076 41.411 46.0376C41.527 45.9676 41.876 45.8366 42.186 45.7466C42.496 45.6561 42.75 45.5496 42.75 45.5091C42.75 45.4691 42.975 45.3551 43.25 45.2561C43.525 45.1576 43.75 45.0361 43.75 44.9866C43.75 44.9371 43.822 44.8966 43.91 44.8966C44.108 44.8966 45.75 44.1016 45.75 44.0061C45.75 43.9676 45.975 43.8551 46.25 43.7561C46.525 43.6576 46.7505 43.5471 46.751 43.5116C46.7515 43.4756 46.954 43.3576 47.201 43.2491C47.448 43.1406 47.65 43.0171 47.65 42.9741C47.65 42.9316 47.7065 42.8966 47.775 42.8961C47.844 42.8961 48.1025 42.7581 48.35 42.5901C48.5975 42.4216 48.9015 42.2431 49.025 42.1931C49.149 42.1426 49.25 42.0556 49.25 41.9991C49.25 41.9426 49.3 41.8966 49.3615 41.8966C49.423 41.8966 49.688 41.7391 49.95 41.5466C50.212 41.3541 50.4785 41.1966 50.5415 41.1966C50.6045 41.1966 50.682 41.1291 50.714 41.0466C50.7455 40.9641 50.823 40.8961 50.8855 40.8956C50.992 40.8946 51.674 40.4116 52.075 40.0531C52.1715 39.9671 52.284 39.8956 52.325 39.8946C52.3665 39.8931 52.629 39.7006 52.909 39.4656C53.523 38.9516 53.4655 38.8406 52.536 38.7406C51.4745 38.6266 51.0925 38.1106 51.6225 37.5071C51.926 37.1606 52.0615 37.1416 53.042 37.3091Z" fill="#14AC3C"/>
<path fill-rule="evenodd" clip-rule="evenodd" d="M51.7185 37.4771C51.156 38.0646 51.5785 38.6351 52.6605 38.7481C53.5795 38.8436 53.65 38.9091 53.2385 39.2831C53.0525 39.4521 52.8455 39.5921 52.7785 39.5936C52.7115 39.5951 52.609 39.6866 52.55 39.7966C52.491 39.9066 52.3985 39.9966 52.3445 39.9966C52.29 39.9966 51.9655 40.2156 51.623 40.4831C51.2805 40.7501 50.8845 41.0316 50.7435 41.1081C50.6025 41.1841 50.2425 41.4161 49.9435 41.6231C48.956 42.3071 48.0235 42.9046 47.7095 43.0556C47.5395 43.1371 46.95 43.4496 46.4 43.7501C45.451 44.2681 44.5075 44.7371 43.05 45.4161C42.6925 45.5826 42.2875 45.7736 42.15 45.8401C42.0125 45.9071 41.6975 46.0236 41.45 46.0991C41.2025 46.1746 40.91 46.2896 40.8 46.3551C40.69 46.4206 40.42 46.5301 40.2 46.5986C39.98 46.6666 39.755 46.7546 39.7 46.7941C39.645 46.8331 39.3075 46.9446 38.95 47.0416C38.5925 47.1386 38.255 47.2511 38.2 47.2911C38.145 47.3316 37.74 47.4426 37.3 47.5386C36.86 47.6346 36.41 47.7536 36.3 47.8036C36.03 47.9266 34.3025 48.1956 33.781 48.1961C33.5505 48.1966 33.334 48.2416 33.3 48.2966C33.2245 48.4186 30.5845 48.4336 30.5095 48.3121C30.481 48.2661 29.8595 48.1991 29.129 48.1641C27.6515 48.0926 26.2055 47.9296 25.9 47.8001C25.79 47.7536 25.235 47.6381 24.6665 47.5441C24.098 47.4501 23.513 47.3156 23.3665 47.2456C23.22 47.1756 22.7965 47.0606 22.425 46.9891C22.054 46.9181 21.75 46.8281 21.75 46.7896C21.75 46.7506 21.5845 46.6876 21.382 46.6496C21.18 46.6121 20.831 46.4976 20.607 46.3956C20.383 46.2936 19.9975 46.1441 19.75 46.0631C19.5025 45.9821 19.165 45.8481 19 45.7651C18.835 45.6821 18.3175 45.4261 17.85 45.1961C16.2255 44.3976 15.2185 43.7746 14.132 42.8966C13.69 42.5391 13.252 42.2016 13.1595 42.1466C12.948 42.0216 11.75 40.8416 11.75 40.7586C11.75 40.7251 11.5235 40.4161 11.2465 40.0726C10.447 39.0806 10.611 38.9221 12.4575 38.9041C13.8615 38.8901 14.147 37.7526 12.799 37.5451C12.331 37.4731 10.4605 37.6361 10.188 37.7731C10.0845 37.8246 9.8265 37.9511 9.614 38.0536C9.0705 38.3161 8.0765 39.4291 7.9325 39.9366C7.8685 40.1621 7.779 40.3891 7.733 40.4416C7.3865 40.8376 7.964 42.1966 8.4785 42.1966C8.895 42.1966 9.1465 41.7961 9.1485 41.1296C9.1515 39.9566 9.374 39.8936 9.8855 40.9216C10.084 41.3206 10.312 41.7591 10.3925 41.8966C10.8955 42.7551 11.65 44.1381 11.65 44.2006C11.65 44.2416 11.7175 44.3011 11.8 44.3326C11.8825 44.3646 11.95 44.4421 11.95 44.5051C11.95 44.5681 12.1075 44.8346 12.3 45.0966C12.4925 45.3586 12.65 45.6126 12.65 45.6611C12.65 45.7091 12.74 45.8046 12.85 45.8736C12.96 45.9421 13.05 46.0466 13.05 46.1051C13.05 46.2626 14.131 47.5476 14.891 48.2936C15.2535 48.6496 15.55 48.9971 15.55 49.0661C15.55 49.1351 15.674 49.2566 15.825 49.3356C15.9765 49.4151 16.28 49.6686 16.5 49.8991C16.998 50.4206 18.202 51.3966 18.348 51.3966C18.4075 51.3966 18.482 51.4641 18.514 51.5466C18.5455 51.6291 18.6125 51.6966 18.6625 51.6966C18.713 51.6966 18.9445 51.8186 19.177 51.9676C19.955 52.4666 21.518 53.2966 21.6795 53.2966C21.73 53.2966 21.985 53.4041 22.247 53.5356C22.509 53.6671 22.8755 53.8071 23.0615 53.8471C23.2475 53.8866 23.58 53.9991 23.8 54.0966C24.02 54.1941 24.5375 54.3311 24.95 54.4011C25.3625 54.4711 25.745 54.5621 25.8 54.6026C26.015 54.7626 27.8885 54.9281 29.6545 54.9436C30.674 54.9521 31.559 54.9901 31.6205 55.0286C32.202 55.3876 36.5125 54.0776 39.05 52.7706C39.4075 52.5866 39.925 52.3526 40.2 52.2506C40.7835 52.0341 43.173 50.8266 43.6045 50.5296C43.767 50.4181 44.169 50.1511 44.4985 49.9366C44.8275 49.7221 45.1425 49.5131 45.1985 49.4726C48.136 47.3366 53.5825 42.1191 53.5935 41.4306C53.5985 41.1186 53.689 40.9386 54.05 40.5191C54.6285 39.8476 54.669 39.8591 54.635 40.6856C54.584 41.9351 55.4415 42.3251 55.9455 41.2821C56.1585 40.8421 56.224 40.0966 56.05 40.0966C55.995 40.0966 55.95 40.0121 55.95 39.9086C55.95 38.9556 54.6325 37.7046 53.3995 37.4876C53.015 37.4196 52.657 37.3266 52.605 37.2806C52.408 37.1066 51.9835 37.2006 51.7185 37.4771Z" fill="#A1FFBA"/>
<path fill-rule="evenodd" clip-rule="evenodd" d="M11.01 8.25606C10.6065 8.48206 10.2745 8.86057 9.9645 9.44657L9.7 9.94657V14.0966V18.2466L9.9685 18.7556C10.987 20.6856 13.0415 20.3951 13.641 18.2356C13.783 17.7236 13.788 10.3881 13.6465 9.87907C13.2775 8.54907 11.9465 7.73006 11.01 8.25606ZM48.6495 8.42507C48.412 8.55057 48.1685 8.74206 48.1085 8.85006C48.049 8.95806 47.9715 9.06906 47.936 9.09656C47.359 9.54906 47.083 16.6116 47.5775 18.2771C48.15 20.2056 50.065 20.4576 50.92 18.7171L51.2 18.1466V14.0466C51.2 10.3441 51.183 9.91256 51.025 9.59656C50.383 8.31106 49.5975 7.92357 48.6495 8.42507Z" fill="#04646B"/>
<path fill-rule="evenodd" clip-rule="evenodd" d="M52.606 37.2866C52.639 37.3196 52.934 37.3956 53.2615 37.4551C53.589 37.5151 53.822 37.5311 53.7785 37.4911C53.684 37.4036 52.521 37.2006 52.606 37.2866ZM11.75 37.4716C11.75 37.5131 12.0155 37.5466 12.3405 37.5466C12.665 37.5466 12.91 37.5131 12.8845 37.4716C12.859 37.4306 12.5935 37.3966 12.294 37.3966C11.995 37.3966 11.75 37.4306 11.75 37.4716ZM9.88751 37.8051C9.71551 37.8551 9.513 37.9726 9.4375 38.0666C9.308 38.2271 9.3145 38.2271 9.5475 38.0666C9.683 37.9731 9.872 37.8966 9.9665 37.8966C10.061 37.8966 10.166 37.8516 10.2 37.7966C10.234 37.7416 10.248 37.7006 10.231 37.7056C10.214 37.7106 10.0595 37.7556 9.88751 37.8051ZM51.3635 37.9031C51.3545 38.0761 51.4555 38.2546 51.675 38.4531L52 38.7466L51.7335 38.4466C51.587 38.2816 51.447 38.0341 51.422 37.8966L51.377 37.6466L51.3635 37.9031ZM54.62 37.9511C54.7965 38.0901 55.128 38.4156 55.3575 38.6751C55.587 38.9346 55.682 39.0086 55.569 38.8406C55.343 38.5041 54.5 37.6961 54.377 37.6976C54.335 37.6981 54.444 37.8126 54.62 37.9511ZM8.7405 38.6716C8.346 39.0866 7.83501 39.7166 8.11251 39.4466C8.41001 39.1566 9.27301 38.1966 9.23551 38.1966C9.21201 38.1966 8.989 38.4106 8.7405 38.6716ZM13.4 38.6966C13.2505 38.8616 13.086 38.8981 12.4595 38.9041C12.042 38.9081 11.4975 38.9471 11.25 38.9901C10.971 39.0391 11.2555 39.0511 12 39.0211C13.0935 38.9771 13.222 38.9516 13.4475 38.7346C13.584 38.6036 13.6695 38.4966 13.638 38.4966C13.607 38.4966 13.4995 38.5866 13.4 38.6966ZM55.8465 39.4901C55.9035 39.5966 55.95 39.7841 55.95 39.9066C55.95 40.0296 55.978 40.1021 56.012 40.0681C56.1055 39.9746 55.956 39.2966 55.842 39.2966C55.778 39.2966 55.78 39.3656 55.8465 39.4901ZM10.95 39.6966C11.0675 39.8616 11.186 39.9966 11.2135 39.9966C11.241 39.9966 11.1675 39.8616 11.05 39.6966C10.9325 39.5316 10.814 39.3966 10.7865 39.3966C10.759 39.3966 10.8325 39.5316 10.95 39.6966ZM7.79351 39.9716C7.76051 40.1231 7.712 40.3141 7.6855 40.3966C7.655 40.4941 7.67151 40.5116 7.73351 40.4466C7.84401 40.3306 7.99301 39.6966 7.91001 39.6966C7.87901 39.6966 7.82651 39.8206 7.79351 39.9716ZM51.5805 40.4541L51.3 40.7111L51.625 40.4851C51.804 40.3606 51.95 40.2451 51.95 40.2276C51.95 40.1491 51.8395 40.2166 51.5805 40.4541ZM53.8445 40.7716L53.5 41.1466L53.875 40.8021C54.224 40.4811 54.296 40.3966 54.2195 40.3966C54.203 40.3966 54.034 40.5656 53.8445 40.7716ZM9.764 40.8936C9.822 41.0601 9.9085 41.2211 9.956 41.2501C10.003 41.2796 9.99451 41.1666 9.93601 40.9996C9.87801 40.8331 9.79151 40.6721 9.74401 40.6431C9.69701 40.6136 9.7055 40.7266 9.764 40.8936ZM50.975 40.8326C50.8515 40.8941 50.75 40.9801 50.75 41.0236C50.75 41.1201 51.1135 40.9361 51.2005 40.7961C51.234 40.7416 51.248 40.7021 51.231 40.7091C51.214 40.7156 51.099 40.7711 50.975 40.8326ZM55.9445 41.2606C55.8895 41.4056 55.867 41.5471 55.895 41.5746C55.94 41.6201 55.9895 41.5146 56.1065 41.1216C56.1775 40.8836 56.0445 40.9976 55.9445 41.2606ZM50.1 41.4556L49.8 41.7131L50.125 41.4981C50.304 41.3796 50.45 41.2636 50.45 41.2396C50.45 41.1651 50.4075 41.1911 50.1 41.4556ZM7.7185 41.5881C7.7465 41.6931 7.8885 41.8846 8.0345 42.0131L8.30001 42.2466L8.07501 41.9901C7.95151 41.8491 7.85 41.6831 7.85 41.6211C7.85 41.5591 7.809 41.4831 7.7595 41.4526C7.7095 41.4216 7.691 41.4826 7.7185 41.5881ZM10.238 41.8166C10.2825 41.9376 10.3755 42.0551 10.4445 42.0781C10.525 42.1051 10.5085 42.0261 10.3985 41.8581C10.189 41.5391 10.1295 41.5231 10.238 41.8166ZM49.475 41.8326C49.3515 41.8941 49.25 41.9801 49.25 42.0236C49.25 42.1201 49.6135 41.9361 49.7005 41.7961C49.734 41.7416 49.748 41.7021 49.731 41.7091C49.714 41.7156 49.599 41.7711 49.475 41.8326ZM51.599 43.8216L49.7 45.7466L51.625 43.8476C52.684 42.8031 53.55 41.9371 53.55 41.9226C53.55 41.8516 53.3635 42.0331 51.599 43.8216ZM13.25 42.1281C13.25 42.1451 13.3965 42.2916 13.575 42.4531L13.9 42.7466L13.6065 42.4216C13.3325 42.1186 13.25 42.0506 13.25 42.1281ZM10.7805 42.7966C10.843 42.9616 10.93 43.0966 10.9745 43.0966C11.019 43.0966 10.9855 42.9616 10.9 42.7966C10.8145 42.6316 10.7275 42.4966 10.706 42.4966C10.685 42.4966 10.7185 42.6316 10.7805 42.7966ZM47.95 42.8086C47.7575 42.9121 47.674 42.9966 47.764 42.9966C47.854 42.9966 48.034 42.9081 48.164 42.8001C48.45 42.5616 48.4075 42.5636 47.95 42.8086ZM14.5435 43.2271C14.7285 43.4651 15.05 43.6386 15.05 43.5001C15.05 43.4431 14.9975 43.3966 14.933 43.3966C14.8685 43.3966 14.723 43.3181 14.6095 43.2216C14.412 43.0541 14.4095 43.0541 14.5435 43.2271ZM47.077 43.2851C46.8995 43.3741 46.7535 43.4816 46.752 43.5241C46.7495 43.6206 47.3145 43.3351 47.3995 43.1971C47.434 43.1421 47.448 43.1026 47.431 43.1101C47.414 43.1176 47.2545 43.1961 47.077 43.2851ZM11.2965 43.6901C11.38 43.8516 11.494 44.0121 11.5495 44.0461C11.605 44.0806 11.556 43.9486 11.4405 43.7526C11.187 43.3231 11.084 43.2786 11.2965 43.6901ZM46.025 43.8266C45.8735 43.8861 45.75 43.9726 45.75 44.0186C45.75 44.0641 45.885 44.0321 46.05 43.9466C46.2725 43.8316 46.502 43.6321 46.325 43.7071C46.311 43.7131 46.1765 43.7666 46.025 43.8266ZM16.048 44.2441C16.158 44.3766 16.75 44.6296 16.75 44.5436C16.75 44.5206 16.5665 44.4126 16.342 44.3041C16.086 44.1806 15.9765 44.1581 16.048 44.2441ZM45.125 44.3536C44.751 44.5566 44.774 44.6411 45.15 44.4466C45.315 44.3611 45.45 44.2701 45.45 44.2441C45.45 44.1796 45.4395 44.1831 45.125 44.3536ZM11.75 44.3856C11.75 44.4346 11.8395 44.5806 11.949 44.7106L12.148 44.9466L11.9915 44.6216C11.8365 44.2991 11.75 44.2146 11.75 44.3856ZM16.909 44.7111C16.988 44.8391 17.5505 45.1151 17.5465 45.0241C17.545 44.9816 17.3885 44.8741 17.1995 44.7856C17.0105 44.6971 16.8795 44.6636 16.909 44.7111ZM44.075 44.8311C43.8965 44.8901 43.75 44.9711 43.75 45.0121C43.75 45.1066 44.332 44.9066 44.406 44.7866C44.4365 44.7371 44.448 44.7031 44.431 44.7106C44.414 44.7186 44.2535 44.7726 44.075 44.8311ZM12.35 45.2966C12.4675 45.4616 12.586 45.5966 12.6135 45.5966C12.641 45.5966 12.5675 45.4616 12.45 45.2966C12.3325 45.1316 12.214 44.9966 12.1865 44.9966C12.159 44.9966 12.2325 45.1316 12.35 45.2966ZM17.95 45.2526C17.95 45.2741 18.085 45.3611 18.25 45.4466C18.415 45.5321 18.55 45.5656 18.55 45.5211C18.55 45.4766 18.415 45.3896 18.25 45.3271C18.085 45.2651 17.95 45.2316 17.95 45.2526ZM43.025 45.3266C42.8735 45.3861 42.75 45.4726 42.75 45.5186C42.75 45.5641 42.885 45.5321 43.05 45.4466C43.2725 45.3316 43.502 45.1321 43.325 45.2071C43.311 45.2131 43.1765 45.2666 43.025 45.3266ZM19.109 45.7956C19.1665 45.8531 19.365 45.9436 19.55 45.9966C19.979 46.1196 19.8145 45.9621 19.3525 45.8076C19.1335 45.7341 19.0435 45.7301 19.109 45.7956ZM41.882 45.8291C41.442 45.9916 41.3505 46.1111 41.7545 45.9951C41.937 45.9431 42.1325 45.8541 42.1885 45.7981C42.31 45.6766 42.2905 45.6781 41.882 45.8291ZM20.4095 46.2821C20.5775 46.4241 21.05 46.5931 21.05 46.5111C21.05 46.4666 20.8855 46.3796 20.6845 46.3181C20.4835 46.2566 20.36 46.2401 20.4095 46.2821ZM40.575 46.3311C40.3965 46.3901 40.25 46.4711 40.25 46.5121C40.25 46.6066 40.832 46.4066 40.906 46.2866C40.9365 46.2371 40.948 46.2031 40.931 46.2106C40.914 46.2186 40.7535 46.2726 40.575 46.3311ZM48.668 46.6091C48.431 46.8331 48.2535 47.0336 48.2745 47.0546C48.2955 47.0751 48.5105 46.8911 48.752 46.6446C49.3005 46.0856 49.247 46.0631 48.668 46.6091ZM13.489 46.8466C13.7385 47.1766 14.3145 47.8066 14.769 48.2466L15.596 49.0466L14.696 48.0966C14.2015 47.5741 13.6255 46.9441 13.416 46.6966C13.141 46.3716 13.1615 46.4136 13.489 46.8466ZM39.35 46.8136C39.1575 46.8676 38.96 46.9506 38.9115 46.9976C38.863 47.0451 39.006 47.0296 39.23 46.9631C39.4535 46.8971 39.6695 46.8101 39.71 46.7701C39.7945 46.6856 39.809 46.6836 39.35 46.8136ZM21.9 46.8571C22.649 47.0591 22.775 47.0816 22.6915 46.9981C22.641 46.9481 22.3975 46.8836 22.15 46.8551C21.9025 46.8266 21.79 46.8276 21.9 46.8571ZM23.5215 47.3021C23.616 47.3896 24.779 47.5926 24.694 47.5066C24.661 47.4736 24.366 47.3976 24.0385 47.3381C23.711 47.2781 23.478 47.2621 23.5215 47.3021ZM37.725 47.3191C37.464 47.3736 37.25 47.4516 37.25 47.4921C37.25 47.5756 38.1025 47.3776 38.212 47.2681C38.251 47.2286 38.2645 47.2021 38.2415 47.2086C38.219 47.2151 37.9865 47.2646 37.725 47.3191ZM25.93 47.8101C26.0265 47.8976 27.55 48.0726 27.55 47.9961C27.55 47.9626 27.1695 47.8926 26.705 47.8406C26.24 47.7891 25.891 47.7751 25.93 47.8101ZM35.7 47.8566L35.1 47.9911L35.65 47.9376C35.9525 47.9081 36.243 47.8421 36.295 47.7906C36.3475 47.7386 36.37 47.7026 36.345 47.7096C36.3205 47.7166 36.03 47.7826 35.7 47.8566ZM30.5155 48.3216C30.541 48.3631 31.164 48.3966 31.9 48.3966C32.636 48.3966 33.259 48.3631 33.2845 48.3216C33.31 48.2801 32.687 48.2466 31.9 48.2466C31.113 48.2466 30.49 48.2801 30.5155 48.3216ZM46.2825 48.6286C45.5835 49.1936 45.5 49.3016 46.0745 48.8971C46.491 48.6041 46.9545 48.1841 46.8405 48.2036C46.818 48.2071 46.567 48.3986 46.2825 48.6286ZM15.75 49.3931C15.75 49.4501 15.805 49.4966 15.8725 49.4966C15.9395 49.4966 16.2885 49.7776 16.6475 50.1216L17.3 50.7466L16.7 50.1141C16.0755 49.4561 15.75 49.2091 15.75 49.3931ZM44.623 49.8501C44.418 49.9896 44.25 50.1251 44.25 50.1516C44.25 50.1781 44.43 50.0801 44.65 49.9346C44.9995 49.7036 45.1175 49.5966 45.023 49.5966C45.0085 49.5966 44.8285 49.7106 44.623 49.8501ZM43.775 50.3956C43.44 50.5996 43.3135 50.7786 43.625 50.6076C43.857 50.4796 44.213 50.2036 44.15 50.2001C44.1225 50.1986 43.9535 50.2866 43.775 50.3956ZM17.65 50.9946C18.1215 51.4256 18.4435 51.6366 18.5175 51.5626C18.551 51.5286 18.4935 51.4696 18.3895 51.4311C18.285 51.3926 17.9975 51.2066 17.75 51.0181C17.305 50.6786 17.304 50.6781 17.65 50.9946ZM43.025 50.8536C42.651 51.0566 42.674 51.1411 43.05 50.9466C43.215 50.8611 43.35 50.7701 43.35 50.7441C43.35 50.6796 43.3395 50.6831 43.025 50.8536ZM42.075 51.3551C41.8965 51.4331 41.75 51.5171 41.75 51.5416C41.75 51.6156 42.346 51.3841 42.406 51.2866C42.4725 51.1791 42.4825 51.1771 42.075 51.3551ZM18.7935 51.7866C18.8245 51.8361 19.0095 51.9711 19.2055 52.0866C19.4015 52.2021 19.537 52.2566 19.5065 52.2066C19.4755 52.1571 19.2905 52.0221 19.0945 51.9066C18.8985 51.7911 18.763 51.7366 18.7935 51.7866ZM41.075 51.8551C40.8965 51.9331 40.75 52.0171 40.75 52.0416C40.75 52.1156 41.346 51.8841 41.406 51.7866C41.4725 51.6791 41.4825 51.6771 41.075 51.8551ZM19.751 52.3681C19.751 52.4111 19.864 52.4986 20.001 52.5621C20.138 52.6261 20.225 52.6371 20.1945 52.5876C20.113 52.4561 19.75 52.2761 19.751 52.3681ZM39.775 52.3996C39.44 52.5341 39.5025 52.6026 39.85 52.4816C40.015 52.4241 40.15 52.3591 40.15 52.3366C40.15 52.2776 40.0285 52.2981 39.775 52.3996ZM38.825 52.8536C38.451 53.0566 38.474 53.1411 38.85 52.9466C39.015 52.8611 39.15 52.7701 39.15 52.7441C39.15 52.6796 39.1395 52.6831 38.825 52.8536ZM20.5965 52.8906C20.6255 52.9381 20.7865 53.0246 20.953 53.0826C21.12 53.1411 21.233 53.1496 21.2035 53.1026C21.1745 53.0551 21.0135 52.9686 20.847 52.9106C20.68 52.8521 20.567 52.8436 20.5965 52.8906ZM37.7 53.4036C37.48 53.5096 37.4125 53.5681 37.55 53.5341C37.833 53.4636 38.353 53.2026 38.2 53.2081C38.145 53.2101 37.92 53.2981 37.7 53.4036ZM21.75 53.3821C21.75 53.4266 21.9145 53.5136 22.1155 53.5751C22.5155 53.6981 22.461 53.6031 22.025 53.4176C21.8735 53.3536 21.75 53.3376 21.75 53.3821ZM36.5 53.8911C36.28 53.9951 36.145 54.0806 36.2 54.0811C36.3365 54.0821 37.1255 53.7126 37 53.7066C36.945 53.7041 36.72 53.7871 36.5 53.8911ZM23.0085 53.8906C23.059 53.9386 23.276 54.0256 23.4915 54.0836C23.707 54.1421 23.842 54.1501 23.7915 54.1026C23.741 54.0546 23.524 53.9676 23.3085 53.9096C23.093 53.8511 22.958 53.8431 23.0085 53.8906ZM35.15 54.3711C34.9025 54.4586 34.749 54.5461 34.8085 54.5661C34.8685 54.5861 35.116 54.5141 35.3585 54.4066C35.89 54.1711 35.7735 54.1511 35.15 54.3711ZM24.6215 54.4021C24.716 54.4896 25.879 54.6926 25.794 54.6066C25.761 54.5736 25.466 54.4976 25.1385 54.4381C24.811 54.3781 24.578 54.3621 24.6215 54.4021ZM34.028 54.7521C33.9975 54.7826 33.529 54.8716 32.9865 54.9501L32 55.0926L32.8 55.0491C33.4885 55.0111 34.6895 54.7236 34.2415 54.7036C34.1545 54.6996 34.0585 54.7216 34.028 54.7521ZM27.25 54.9071C27.25 54.9966 29.6485 55.1111 30.7635 55.0746C31.2385 55.0591 31.576 55.0141 31.5135 54.9746C31.451 54.9346 30.8825 54.9271 30.25 54.9576C29.6175 54.9876 28.6835 54.9736 28.175 54.9256C27.6665 54.8776 27.25 54.8696 27.25 54.9071Z" fill="#24CC24"/>
</svg>
