<svg width="400" height="321" viewBox="0 0 400 321" fill="none" xmlns="http://www.w3.org/2000/svg">
<g clip-path="url(#clip0_0_3)">
<path fill-rule="evenodd" clip-rule="evenodd" d="M180.636 40.625C180.504 40.757 147.617 40.938 107.555 41.026C54.339 41.143 34.593 41.283 34.264 41.546C34.017 41.744 33.093 42.009 32.212 42.135C30.546 42.372 27.578 43.266 25.641 44.114C23.937 44.86 20.373 46.614 20.192 46.796C20.104 46.884 19.383 47.389 18.59 47.918C16.458 49.337 16.544 49.264 12.986 52.724C9.90801 55.719 6.41001 60.164 6.41001 61.081C6.41001 61.303 6.30201 61.533 6.17001 61.592C5.86401 61.728 4.48701 64.532 4.48701 65.019C4.48701 65.22 4.34301 65.385 4.16701 65.385C3.99001 65.385 3.84601 65.615 3.84601 65.897C3.84601 66.179 3.63601 66.864 3.37901 67.42C2.21301 69.945 1.33801 74.897 1.13401 80.128C0.61401 93.5 0.43401 286.699 0.94201 286.699C0.97601 286.699 1.06501 287.204 1.13901 287.821C1.21301 288.438 1.37101 289.303 1.48901 289.744C1.60801 290.184 1.67001 290.813 1.62701 291.141C1.58301 291.482 1.69201 291.649 1.88101 291.533C2.16401 291.358 2.58901 292.648 2.61201 293.75C2.61601 293.926 2.76801 294.251 2.95101 294.471C3.13401 294.692 3.17101 294.872 3.03401 294.872C2.89701 294.872 3.04101 295.155 3.35501 295.501C3.66801 295.847 3.83601 296.359 3.72801 296.639C3.61501 296.934 3.66701 297.066 3.85001 296.953C4.02401 296.845 4.16701 297.054 4.16701 297.417C4.16701 297.79 4.37601 298.077 4.64701 298.077C5.06501 298.077 5.31201 298.901 5.15801 299.783C5.13301 299.929 5.26001 299.956 5.44101 299.845C5.62801 299.729 5.77101 299.959 5.77401 300.382C5.77801 300.994 5.83801 301.039 6.12201 300.641C6.39601 300.257 6.43301 300.311 6.30201 300.905C6.19401 301.395 6.34801 301.83 6.75501 302.178C7.09401 302.469 7.37201 302.875 7.37201 303.082C7.37201 303.288 7.58801 303.54 7.85301 303.642C8.11701 303.743 8.33301 304.055 8.33301 304.336C8.33301 304.616 8.48701 304.75 8.67501 304.634C8.87201 304.513 8.97401 304.632 8.91601 304.915C8.86001 305.185 8.95801 305.442 9.13501 305.485C9.75101 305.636 10.295 306.409 10.065 306.808C9.93801 307.03 9.95101 307.104 10.096 306.973C10.241 306.842 10.562 307.025 10.81 307.379C11.059 307.734 11.38 307.951 11.524 307.862C11.668 307.772 11.865 308.001 11.961 308.369C12.058 308.738 12.29 308.944 12.478 308.827C12.668 308.71 12.821 308.852 12.821 309.146C12.821 309.437 13.117 309.753 13.48 309.848C13.884 309.954 14.071 310.196 13.964 310.475C13.861 310.743 13.929 310.845 14.128 310.722C14.314 310.607 14.545 310.815 14.642 311.186C14.804 311.803 15.192 311.985 16.266 311.945C16.486 311.937 16.667 312.046 16.667 312.188C16.667 312.33 16.486 312.519 16.266 312.608C16.007 312.713 16.046 312.779 16.377 312.795C17.179 312.835 18.87 313.769 19.217 314.364C19.39 314.661 19.536 314.778 19.542 314.624C19.547 314.47 19.768 314.524 20.032 314.744C20.296 314.963 20.513 315.047 20.513 314.93C20.513 314.814 20.714 314.904 20.96 315.132C21.206 315.359 21.343 315.651 21.264 315.782C21.185 315.912 21.344 315.932 21.618 315.827C21.892 315.722 22.115 315.796 22.115 315.991C22.115 316.186 22.412 316.346 22.775 316.346C23.138 316.346 23.346 316.49 23.237 316.667C23.128 316.843 23.336 316.987 23.699 316.987C24.062 316.987 24.359 317.111 24.359 317.263C24.359 317.415 24.697 317.475 25.11 317.396C25.538 317.314 26.079 317.471 26.369 317.761C26.648 318.04 27.248 318.269 27.701 318.269C28.155 318.269 28.526 318.422 28.526 318.609C28.526 318.795 28.67 318.859 28.846 318.75C29.022 318.641 29.347 318.664 29.567 318.802C29.788 318.939 30.256 319.096 30.609 319.151C30.962 319.205 31.3 319.395 31.361 319.574C31.43 319.774 31.669 319.74 31.984 319.485C32.265 319.257 32.399 319.23 32.283 319.425C32.069 319.783 32.25 319.814 35.337 319.96C36.174 320 36.859 320.14 36.859 320.273C36.859 320.628 362.491 320.522 365.385 320.165C366.707 320.002 368.149 319.7 368.59 319.494C369.03 319.288 369.514 319.149 369.665 319.186C369.816 319.223 370.168 319.068 370.448 318.841C370.876 318.495 370.912 318.506 370.673 318.91C370.438 319.309 370.473 319.323 370.881 318.993C371.152 318.774 371.468 318.69 371.584 318.806C371.7 318.922 371.795 318.831 371.795 318.604C371.795 318.273 371.891 318.27 372.276 318.59C372.54 318.809 372.756 318.858 372.756 318.699C372.756 318.332 374.681 317.591 375.047 317.817C375.197 317.91 375.321 317.849 375.321 317.681C375.321 317.512 375.894 317.091 376.594 316.745C377.294 316.398 377.788 316.275 377.691 316.471C377.595 316.667 377.779 316.537 378.101 316.182C378.423 315.828 379.007 315.556 379.399 315.577C379.791 315.599 380.045 315.509 379.963 315.377C379.882 315.245 380.116 315.058 380.485 314.962C380.853 314.866 381.059 314.633 380.943 314.445C380.738 314.114 381.141 313.971 381.971 314.079C382.192 314.107 382.372 313.899 382.372 313.617C382.372 313.334 382.516 313.192 382.692 313.301C382.869 313.41 383.013 313.331 383.013 313.126C383.013 312.92 383.236 312.838 383.51 312.943C383.801 313.054 383.925 312.999 383.808 312.81C383.698 312.632 384.129 312.269 384.765 312.003C385.402 311.737 385.846 311.394 385.752 311.242C385.594 310.986 386.253 310.575 386.766 310.609C386.888 310.618 387.102 310.316 387.241 309.939C387.392 309.53 387.645 309.346 387.867 309.484C388.099 309.627 388.154 309.575 388.011 309.344C387.886 309.141 387.959 308.974 388.176 308.974C388.392 308.974 388.484 308.89 388.381 308.787C388.156 308.562 388.903 307.786 390.309 306.785C390.879 306.378 391.346 305.763 391.346 305.417C391.346 305.063 391.663 304.66 392.067 304.497C392.464 304.338 392.581 304.198 392.327 304.187C391.851 304.166 391.843 304.177 393.875 302.114C394.33 301.651 394.562 301.132 394.447 300.832C394.334 300.537 394.409 300.36 394.628 300.404C394.834 300.446 395.027 300.3 395.058 300.08C395.088 299.86 395.148 299.607 395.192 299.519C395.236 299.431 395.29 299.203 395.313 299.013C395.335 298.822 395.633 298.462 395.975 298.211C396.317 297.961 396.475 297.756 396.326 297.756C396.177 297.756 396.297 297.489 396.593 297.161C396.889 296.834 397.151 296.047 397.175 295.411C397.199 294.776 397.339 294.331 397.487 294.423C397.635 294.514 397.761 294.256 397.767 293.849C397.772 293.442 397.979 292.843 398.225 292.517C398.472 292.191 398.601 291.734 398.511 291.501C398.422 291.268 398.569 290.741 398.838 290.33C399.107 289.92 399.282 289.295 399.228 288.942C399.174 288.59 399.289 288.198 399.485 288.073C399.97 287.76 400.167 120.833 399.682 120.833C399.456 120.833 399.377 113.63 399.435 98.237C399.481 85.809 399.411 75.641 399.279 75.641C399.147 75.641 399.038 75 399.038 74.218C399.038 73.435 398.911 72.715 398.755 72.619C398.599 72.523 398.369 71.757 398.244 70.917C398.119 70.078 397.903 69.247 397.763 69.071C397.624 68.894 397.411 68.289 397.291 67.725C397.17 67.161 396.546 65.647 395.904 64.36C395.262 63.072 394.767 61.911 394.804 61.779C394.842 61.647 394.728 61.538 394.551 61.538C394.375 61.538 394.231 61.399 394.231 61.227C394.231 59.949 386.963 51.458 383.93 49.193C380.822 46.873 373.95 43.269 372.633 43.269C372.369 43.269 372.069 43.133 371.967 42.967C371.864 42.801 371.098 42.566 370.265 42.445C369.432 42.325 368.516 42.105 368.229 41.957C367.943 41.808 366.14 41.539 364.223 41.357C362.306 41.175 360.689 40.882 360.631 40.706C360.504 40.326 181.015 40.245 180.636 40.625Z" fill="#7DCFFA"/>
<path fill-rule="evenodd" clip-rule="evenodd" d="M35.587 0.558999C34.622 0.624999 33.685 0.796999 33.503 0.940999C33.322 1.085 32.346 1.303 31.335 1.425C30.324 1.547 29.424 1.765 29.336 1.909C29.247 2.053 28.631 2.272 27.968 2.396C27.305 2.52 26.619 2.73 26.442 2.864C26.266 2.997 25.437 3.291 24.599 3.518C23.762 3.744 23.077 4.055 23.077 4.208C23.077 4.362 22.922 4.487 22.732 4.487C22.444 4.487 20.504 5.591 17.493 7.469C15.377 8.788 9.315 14.479 9.3 15.16C9.297 15.3 8.934 15.749 8.494 16.158C8.053 16.566 7.692 17.032 7.692 17.193C7.692 17.354 7.404 17.733 7.051 18.035C6.699 18.336 6.41 18.801 6.41 19.067C6.41 19.334 6.283 19.551 6.127 19.551C5.971 19.551 5.756 19.804 5.649 20.112C5.542 20.421 5.091 21.313 4.645 22.095C4.2 22.878 3.671 24.068 3.47 24.74C3.268 25.412 2.999 25.962 2.87 25.962C2.742 25.962 2.54 26.611 2.421 27.404C2.302 28.197 2.086 28.846 1.94 28.846C1.795 28.846 1.573 29.675 1.447 30.689C1.32 31.703 1.051 32.635 0.848997 32.761C0.578997 32.928 0.458997 38.822 0.399997 54.876C0.324997 75.066 0.470998 79.059 1.098 74.038C2.933 59.351 15.23 46.101 31.09 41.72L34.135 40.879L107.372 40.708C147.652 40.614 180.666 40.503 180.735 40.461C180.805 40.419 171.843 31.37 160.82 20.353L140.779 0.320999L89.059 0.379999C60.614 0.411999 36.551 0.492999 35.587 0.558999Z" fill="#52A5DB"/>
<path fill-rule="evenodd" clip-rule="evenodd" d="M364.423 40.773C364.423 40.912 364.712 41.026 365.064 41.026C365.417 41.026 365.705 40.89 365.705 40.725C365.705 40.56 365.417 40.446 365.064 40.473C364.712 40.499 364.423 40.635 364.423 40.773ZM36.298 40.926C36.607 41.007 37.111 41.007 37.42 40.926C37.728 40.845 37.476 40.779 36.859 40.779C36.242 40.779 35.99 40.845 36.298 40.926ZM17.147 48.265L16.186 49.091L17.228 48.402C17.8 48.023 18.269 47.65 18.269 47.574C18.269 47.334 18.134 47.418 17.147 48.265ZM12.325 52.324L11.058 53.686L12.42 52.419C13.687 51.241 13.929 50.962 13.687 50.962C13.634 50.962 13.021 51.575 12.325 52.324ZM388.146 51.82C388.153 52.193 388.52 52.648 389.263 53.205C389.873 53.663 389.881 53.655 389.423 53.046C388.664 52.037 388.141 51.534 388.146 51.82ZM398.718 70.975C398.718 71.229 398.853 71.52 399.019 71.623C399.185 71.725 399.298 71.517 399.271 71.161C399.216 70.429 398.718 70.261 398.718 70.975ZM1.44201 71.795C1.32101 72.349 1.28801 72.869 1.37001 72.951C1.45101 73.032 1.61001 72.638 1.72301 72.075C1.99001 70.739 1.73101 70.48 1.44201 71.795ZM0.558005 76.388C0.163005 77.365 0.256005 78.51 0.672005 77.795C0.854005 77.482 0.957005 76.905 0.900005 76.513C0.806005 75.872 0.772005 75.86 0.558005 76.388Z" fill="#FCB614"/>
<path fill-rule="evenodd" clip-rule="evenodd" d="M362.981 40.705C363.09 40.881 363.459 41.026 363.801 41.026C364.143 41.026 364.423 40.881 364.423 40.705C364.423 40.529 364.054 40.385 363.603 40.385C363.138 40.385 362.868 40.523 362.981 40.705ZM38.221 40.926C38.53 41.007 39.034 41.007 39.343 40.926C39.651 40.845 39.399 40.779 38.782 40.779C38.165 40.779 37.913 40.845 38.221 40.926ZM366.987 41.346C367.619 41.754 368.361 41.754 368.109 41.346C368 41.17 367.595 41.028 367.209 41.031C366.638 41.035 366.596 41.094 366.987 41.346ZM368.91 41.687C368.91 42.051 369.771 42.089 369.991 41.733C370.077 41.594 369.869 41.458 369.529 41.433C369.189 41.407 368.91 41.521 368.91 41.687ZM374.359 43.38C374.8 43.613 375.228 43.747 375.311 43.679C375.537 43.494 374.591 42.959 374.038 42.958C373.773 42.958 373.917 43.148 374.359 43.38ZM376.923 44.164C376.923 44.359 377.68 44.887 378.606 45.339C379.974 46.007 380.126 46.037 379.42 45.499C378.942 45.135 378.488 44.881 378.412 44.934C378.335 44.988 377.969 44.757 377.598 44.421C377.227 44.086 376.923 43.97 376.923 44.164ZM380.449 46.403C380.449 46.827 381.682 47.133 381.91 46.765C382.008 46.605 381.948 46.474 381.776 46.474C381.604 46.474 381.235 46.387 380.956 46.28C380.677 46.173 380.449 46.228 380.449 46.403ZM382.065 47.324C382.072 47.474 382.59 47.922 383.215 48.321C383.84 48.72 384.3 48.893 384.237 48.705C384.09 48.265 382.047 46.966 382.065 47.324ZM385.095 49.678C385.203 49.853 385.609 50.159 385.995 50.358L386.699 50.72L385.991 50.04C385.252 49.329 384.756 49.129 385.095 49.678ZM390.074 54.334C390.091 54.843 390.96 55.846 391.279 55.723C391.44 55.66 391.233 55.251 390.818 54.814C390.404 54.377 390.069 54.161 390.074 54.334ZM394.551 60.801C394.551 61.23 395.432 62.367 395.619 62.179C395.707 62.091 395.502 61.679 395.165 61.263C394.827 60.846 394.551 60.639 394.551 60.801ZM396.645 65.064C396.919 66.021 397.052 66.196 397.308 65.94C397.414 65.833 397.257 65.413 396.958 65.005L396.415 64.263L396.645 65.064ZM399.061 73.619C399.049 74.005 399.183 74.41 399.359 74.519C399.738 74.754 399.738 74.44 399.359 73.558C399.093 72.94 399.083 72.942 399.061 73.619ZM399.831 98.558C399.831 110.545 399.871 115.402 399.92 109.352C399.969 103.301 399.969 93.493 399.92 87.557C399.871 81.62 399.831 86.571 399.831 98.558ZM0.519999 78.057C0.409999 78.344 0.351999 87.977 0.390999 99.465L0.460999 120.353L0.630999 99.038C0.812999 76.245 0.818999 77.28 0.519999 78.057Z" fill="#FCBC1C"/>
<path fill-rule="evenodd" clip-rule="evenodd" d="M360.577 40.672C360.577 40.841 361.406 41.066 362.42 41.171C367.285 41.677 367.472 41.684 366.987 41.359C366.723 41.181 365.758 41.033 364.843 41.031C363.928 41.028 363.108 40.912 363.022 40.772C362.793 40.401 360.577 40.31 360.577 40.672ZM74.76 40.945C94.107 40.991 125.765 40.991 145.112 40.945C164.459 40.9 148.63 40.863 109.936 40.863C71.242 40.863 55.413 40.9 74.76 40.945ZM37.099 41.252C37.496 41.328 38.145 41.328 38.542 41.252C38.938 41.175 38.614 41.113 37.821 41.113C37.027 41.113 36.703 41.175 37.099 41.252ZM32.609 41.654C31.946 41.782 31.302 41.989 31.178 42.112C30.852 42.439 33.757 41.958 34.119 41.626C34.463 41.31 34.372 41.312 32.609 41.654ZM368.115 41.657C368.009 41.828 368.289 42.045 368.737 42.138C369.185 42.231 369.924 42.386 370.379 42.481C370.908 42.591 371.133 42.533 371.002 42.321C370.888 42.137 370.371 41.987 369.853 41.987C369.334 41.987 368.91 41.843 368.91 41.667C368.91 41.256 368.366 41.25 368.115 41.657ZM371.875 42.708C371.948 42.929 372.285 43.16 372.623 43.223C374.065 43.491 379.047 45.945 381.731 47.709C384.193 49.327 384.025 49.186 387.537 52.593C389.279 54.284 390.705 55.616 390.705 55.553C390.705 54.772 388.389 52.381 385.096 49.763C381.556 46.949 381.335 46.795 380.864 46.795C380.636 46.795 380.449 46.68 380.449 46.54C380.449 46.098 373.86 42.949 372.934 42.949C372.66 42.949 372.436 42.804 372.436 42.628C372.436 42.452 372.28 42.308 372.089 42.308C371.898 42.308 371.801 42.488 371.875 42.708ZM28.045 42.949C27.811 43.328 28.124 43.328 29.006 42.949C29.624 42.683 29.622 42.672 28.945 42.651C28.559 42.638 28.154 42.772 28.045 42.949ZM25 44.095L24.199 44.578L25 44.368C25.441 44.253 25.938 44.031 26.106 43.874C26.595 43.417 25.893 43.557 25 44.095ZM22.936 45.042C22.593 45.301 22.458 45.513 22.634 45.513C22.81 45.513 23.234 45.301 23.577 45.042C23.919 44.783 24.054 44.572 23.878 44.572C23.702 44.572 23.278 44.783 22.936 45.042ZM17.904 48.095C17.187 48.719 17.184 48.736 17.851 48.414C18.238 48.227 18.643 47.93 18.751 47.755C19.066 47.245 18.721 47.384 17.904 48.095ZM12.72 52.463C11.194 53.993 9.98799 55.287 10.041 55.34C10.094 55.393 11.394 54.193 12.93 52.674C14.467 51.155 15.672 49.86 15.609 49.797C15.546 49.734 14.246 50.934 12.72 52.463ZM391.026 55.901C391.026 56.061 391.747 57.256 392.628 58.555C393.51 59.854 394.231 61.056 394.231 61.227C394.231 61.658 394.785 61.618 395.063 61.168C395.204 60.939 395.151 60.885 394.921 61.027C394.702 61.163 394.551 61.052 394.551 60.756C394.551 60.481 394.407 60.256 394.231 60.256C394.054 60.256 393.941 60.148 393.978 60.016C394.049 59.767 393.395 58.469 392.899 57.873C392.743 57.685 392.258 57.099 391.821 56.571C391.384 56.042 391.026 55.74 391.026 55.901ZM8.25099 57.612C7.05699 59.268 6.43099 60.307 6.94899 59.776C7.51899 59.19 9.67299 56.09 9.50999 56.09C9.42199 56.09 8.85499 56.775 8.25099 57.612ZM5.17399 62.546C4.94799 62.908 4.83399 63.274 4.91999 63.36C5.00599 63.446 5.24399 63.203 5.44899 62.821C5.93299 61.915 5.70799 61.69 5.17399 62.546ZM395.837 64.231C396.505 65.536 397.154 67.087 397.28 67.677C397.407 68.267 397.624 68.894 397.763 69.071C397.903 69.247 398.118 70.071 398.242 70.903C398.463 72.385 399.359 73.775 399.359 72.635C399.359 72.349 399.231 72.115 399.075 72.115C398.919 72.115 398.693 71.322 398.572 70.353C398.45 69.383 398.23 68.59 398.082 68.59C397.934 68.59 397.715 68.013 397.596 67.308C397.477 66.603 397.259 66.026 397.113 66.026C396.966 66.026 396.744 65.557 396.62 64.984C396.496 64.411 396.232 63.834 396.033 63.702C395.78 63.533 395.816 63.368 396.154 63.146C396.572 62.872 396.566 62.83 396.108 62.825C395.818 62.823 395.498 62.604 395.397 62.34C395.295 62.075 395.08 61.859 394.918 61.859C394.757 61.859 395.17 62.927 395.837 64.231ZM4.22599 64.582C4.02399 65.023 3.98399 65.385 4.13599 65.385C4.40199 65.385 4.88199 64.07 4.68699 63.875C4.63399 63.822 4.42699 64.141 4.22599 64.582ZM3.24499 66.867C3.03399 67.331 2.93399 67.785 3.02399 67.874C3.11399 67.964 3.33899 67.637 3.52599 67.147C3.96499 65.991 3.74499 65.77 3.24499 66.867ZM2.14199 70.409C1.76499 71.792 1.60099 72.756 1.74399 72.756C1.96899 72.756 2.63399 70.155 2.45399 69.976C2.37099 69.892 2.22999 70.087 2.14199 70.409ZM1.18799 74.96C1.06299 75.555 0.976991 76.42 0.996991 76.883C1.01999 77.438 1.12999 77.233 1.31999 76.282C1.47799 75.489 1.56399 74.623 1.51099 74.359C1.45699 74.095 1.31199 74.365 1.18799 74.96ZM399.038 74.981C399.038 75.344 399.183 75.641 399.359 75.641C399.535 75.641 399.679 75.433 399.679 75.179C399.679 74.925 399.535 74.628 399.359 74.519C399.183 74.41 399.038 74.618 399.038 74.981ZM399.432 98.317C399.392 110.701 399.467 120.833 399.599 120.833C399.816 120.834 399.811 97.998 399.591 82.051C399.544 78.614 399.472 85.933 399.432 98.317ZM0.533991 110.149C0.415991 126.837 0.345991 171.945 0.377991 210.39L0.434991 280.288L0.648991 180.769C0.766991 126.034 0.966991 80.925 1.09399 80.529C1.22099 80.132 1.19499 79.808 1.03599 79.808C0.867991 79.808 0.657991 92.479 0.533991 110.149ZM4.48699 298.238C4.48699 298.327 4.77599 298.938 5.12799 299.596C5.48099 300.254 5.76899 300.55 5.76899 300.255C5.76899 299.959 5.62499 299.628 5.44899 299.519C5.27199 299.41 5.12799 299.041 5.12799 298.699C5.12799 298.357 4.98399 298.077 4.80799 298.077C4.63099 298.077 4.48699 298.15 4.48699 298.238ZM9.29499 305.671C9.29499 305.846 9.58299 306.251 9.93599 306.571C10.288 306.89 10.577 307.078 10.577 306.99C10.577 306.901 10.288 306.496 9.93599 306.09C9.58299 305.683 9.29499 305.495 9.29499 305.671ZM18.189 313.792C18.586 313.951 18.91 314.255 18.91 314.466C18.91 314.678 19.003 314.758 19.116 314.644C19.429 314.332 18.582 313.459 17.99 313.482C17.637 313.496 17.701 313.596 18.189 313.792Z" fill="#FCC424"/>
</g>
<defs>
<clipPath id="clip0_0_3">
<rect width="400" height="320.468" fill="white"/>
</clipPath>
</defs>
</svg>
