<svg version="1.0" xmlns="http://www.w3.org/2000/svg"
     width="500.000000pt" height="500.000000pt" viewBox="0 0 500.000000 500.000000">

    <g transform="translate(0.000000,500.000000) scale(0.100000,-0.100000)"
       fill="#ffffff" >
        <path d="M1736 3742 l-50 -17 -57 -145 c-32 -80 -180 -455 -329 -835 -553
-1407 -564 -1433 -646 -1524 -56 -63 -128 -94 -267 -116 l-38 -6 3 -52 3 -52
444 -3 c349 -2 446 0 453 10 4 7 8 32 8 55 l0 42 -57 6 c-79 9 -173 33 -200
50 -39 26 -56 71 -48 130 3 29 54 196 113 371 l107 319 310 5 c171 3 374 3
451 1 l142 -3 87 -241 c136 -375 156 -438 158 -495 2 -47 -1 -57 -25 -77 -24
-20 -103 -44 -201 -60 l-38 -6 3 -52 3 -52 505 0 505 0 0 50 0 50 -45 8 c-105
19 -173 41 -211 69 -49 35 -106 122 -149 226 -46 108 -235 623 -411 1117 -126
352 -387 1081 -432 1205 -15 42 -27 45 -91 22z m94 -109 c18 -54 61 -178 96
-277 35 -98 61 -182 58 -187 -3 -5 0 -9 5 -9 6 0 11 -3 11 -7 0 -5 -54 -7
-121 -5 l-121 4 6 -24 c3 -13 3 -17 0 -10 -7 15 -24 6 -24 -14 0 -8 4 -13 9
-10 5 3 11 -16 14 -42 2 -26 8 -56 12 -67 5 -11 5 -17 2 -14 -7 6 -72 179 -88
235 -23 80 -73 66 -107 -30 -19 -52 -26 -63 -42 -59 -14 4 -21 -4 -31 -30 -7
-20 -21 -38 -31 -40 -10 -3 -18 -12 -18 -21 0 -8 -11 -35 -25 -60 -14 -25 -25
-52 -25 -60 0 -8 -4 -17 -9 -21 -11 -6 -1 32 23 90 10 22 62 157 116 300 173
453 161 427 200 441 19 7 40 13 46 13 6 1 26 -43 44 -96z m-69 -729 c227 -654
249 -719 249 -736 0 -17 -25 -18 -380 -18 -317 0 -380 2 -380 14 0 18 291 815
379 1040 6 16 14 27 16 24 3 -3 55 -148 116 -324z m-216 186 c3 -5 1 -10 -4
-10 -6 0 -11 5 -11 10 0 6 2 10 4 10 3 0 8 -4 11 -10z"/>
        <path d="M3710 2844 c-182 -53 -555 -261 -628 -350 -17 -20 -32 -48 -35 -61
-20 -103 119 -226 219 -193 45 15 58 36 95 149 39 121 60 162 112 219 56 60
105 82 189 82 212 0 337 -158 355 -448 7 -114 10 -109 -112 -170 -100 -51
-246 -109 -443 -179 -85 -29 -179 -65 -209 -80 -83 -41 -147 -104 -185 -181
-29 -59 -33 -78 -36 -164 -3 -69 1 -113 13 -155 54 -188 208 -329 396 -364
123 -22 207 8 434 161 74 49 139 90 144 90 4 0 18 -26 29 -57 29 -77 72 -128
141 -163 107 -54 104 -54 296 60 94 56 173 105 178 109 4 4 0 29 -9 55 -14 41
-19 47 -38 41 -133 -43 -163 -43 -214 0 -64 54 -65 64 -72 650 -6 454 -9 539
-24 590 -55 198 -192 330 -384 371 -90 18 -112 17 -212 -12z m310 -1178 l0
-324 -37 -30 c-105 -81 -225 -126 -323 -120 -36 2 -83 13 -105 23 -63 30 -129
103 -154 168 -28 75 -28 185 -2 244 23 49 87 114 150 151 55 32 441 210 459
211 9 1 12 -70 12 -323z"/>
    </g>
</svg>
