<svg width="57" height="57" viewBox="0 0 57 57" fill="none" xmlns="http://www.w3.org/2000/svg">
    <g clip-path="url(#clip0_2_2)">
        <path d="M56.372 28.564L49.138 35.798C37.621 47.315 18.948 47.315 7.431 35.798L0 28.367L7.234 21.133C18.751 9.616 37.424 9.616 48.941 21.133L56.372 28.564Z"
              fill="#ADD8E6"/>
        <path d="M28.158 40.436C34.7854 40.436 40.158 35.0634 40.158 28.436C40.158 21.8086 34.7854 16.436 28.158 16.436C21.5306 16.436 16.158 21.8086 16.158 28.436C16.158 35.0634 21.5306 40.436 28.158 40.436Z"
              fill="#3083C9"/>
        <path d="M6.052 51.436L52.552 4.936" stroke="#EBBA16" stroke-width="2" stroke-miterlimit="10"
              stroke-linecap="round"/>
        <path d="M21.372 28.436C20.82 28.436 20.372 27.988 20.372 27.436C20.372 23.576 23.512 20.436 27.372 20.436C27.924 20.436 28.372 20.884 28.372 21.436C28.372 21.988 27.924 22.436 27.372 22.436C24.615 22.436 22.372 24.679 22.372 27.436C22.372 27.988 21.924 28.436 21.372 28.436Z"
              fill="white"/>
    </g>
    <defs>
        <clipPath id="clip0_2_2">
            <rect width="56.372" height="56.372" fill="white"/>
        </clipPath>
    </defs>
</svg>
