<svg version="1.0" xmlns="http://www.w3.org/2000/svg"
     width="512.000000pt" height="512.000000pt" viewBox="0 0 512.000000 512.000000"
     preserveAspectRatio="xMidYMid meet">

    <g transform="translate(0.000000,512.000000) scale(0.100000,-0.100000)"
       fill="#000000" stroke="none">
        <path d="M0 2560 l0 -2560 2560 0 2560 0 0 2560 0 2560 -2560 0 -2560 0 0
-2560z m2595 1877 c58 -34 1523 -1122 1568 -1166 21 -20 49 -59 64 -88 22 -46
25 -62 22 -136 -4 -77 -7 -88 -42 -141 -32 -48 -77 -86 -290 -245 -988 -736
-1316 -976 -1347 -987 -47 -17 -76 -17 -138 1 -63 19 -119 66 -143 120 -16 34
-19 68 -19 244 l0 204 -82 -8 c-177 -15 -340 -59 -478 -131 -95 -49 -161 -101
-232 -183 -45 -51 -48 -58 -48 -111 0 -85 26 -218 58 -296 44 -109 95 -176
221 -292 179 -165 238 -229 271 -295 66 -132 15 -267 -101 -267 -116 0 -360
141 -516 297 -206 207 -392 584 -470 950 -25 120 -27 144 -27 378 -1 198 3
270 17 345 91 482 280 796 616 1023 181 122 446 211 694 233 l77 7 1 196 c0
123 5 208 12 228 43 114 210 178 312 120z" fill="#2059c9"/>
    </g>
</svg>
