<svg width="497" height="497" viewBox="0 0 497 497" fill="none" xmlns="http://www.w3.org/2000/svg">
<g clip-path="url(#clip0_0_3)">
<path d="M496.2 248.1C496.2 111.1 385.1 0 248.1 0C111.1 0 0 111.1 0 248.1C0 385.1 111.1 496.2 248.1 496.2C385.1 496.2 496.2 385.1 496.2 248.1Z" fill="url(#paint0_linear_0_3)"/>
<path d="M359.6 314.2C359.6 314.2 334.6 128.8 334.1 128.9L178.4 138.6C177.5 138.7 196.4 305 196.4 305C184.7 298.9 168.1 298.7 152.5 305.8C129 316.5 116.5 339.6 124.6 357.4C132.7 375.2 158.3 381 181.8 370.3C201.7 361.2 213.8 343.3 212 327.2L194.6 174.1L325.8 165.9L343.8 292.2C332.1 286.1 315.5 285.9 299.9 293C276.4 303.7 263.9 326.8 272 344.6C280.1 362.4 305.7 368.2 329.2 357.5C349.3 348.3 361.3 330.3 359.6 314.2Z" fill="black"/>
</g>
<defs>
<linearGradient id="paint0_linear_0_3" x1="248.1" y1="0" x2="248.1" y2="496.2" gradientUnits="userSpaceOnUse">
<stop stop-color="#838383"/>
<stop offset="1" stop-color="#a4a4a4"/>
</linearGradient>
<clipPath id="clip0_0_3">
<rect width="496.2" height="496.2" fill="white"/>
</clipPath>
</defs>
</svg>
