<svg width="394" height="205" viewBox="0 0 394 205" fill="none" xmlns="http://www.w3.org/2000/svg">
    <mask id="mask0_1_2" style="mask-type:alpha" maskUnits="userSpaceOnUse" x="0" y="0" width="394" height="205">
        <path d="M0 0H394V205H0V0Z" fill="white"/>
    </mask>
    <g mask="url(#mask0_1_2)">
        <mask id="mask1_1_2" style="mask-type:alpha" maskUnits="userSpaceOnUse" x="87" y="0" width="216" height="287">
            <path d="M87.411 0.0449982H302.233V286.171H87.41L87.411 0.0449982Z" fill="white"/>
        </mask>
        <g mask="url(#mask1_1_2)">
            <path fill-rule="evenodd" clip-rule="evenodd"
                  d="M136.088 67.9C135.748 123.202 121.605 116.437 96.945 164.19C68.953 218.397 109.705 260.454 128.259 269.875C178.362 295.318 259.435 294.725 291.092 240.91C322.406 187.676 279.124 155.839 266.041 115.654C255.08 81.992 274.26 -7.646 183.45 0.574001C183.45 0.574001 136.479 4.098 136.088 67.9V67.9Z"
                  fill="#55C39E"/>
        </g>
        <path fill-rule="evenodd" clip-rule="evenodd"
              d="M187.745 43.356C187.745 43.356 153.753 45.905 153.47 92.078C153.224 132.098 142.99 127.203 125.143 161.761C104.886 200.989 134.378 231.425 147.804 238.243C184.062 256.656 242.734 256.228 265.644 217.282C288.306 178.757 256.983 155.717 247.514 126.636C239.584 102.275 253.464 37.406 187.746 43.356"
              fill="#029452"/>
        <path fill-rule="evenodd" clip-rule="evenodd"
              d="M189.69 65.445C189.69 65.445 163.73 67.392 163.514 102.654C163.326 133.219 155.509 129.48 141.88 155.873C126.41 185.831 148.933 209.075 159.187 214.282C186.877 228.344 231.686 228.017 249.182 198.274C266.489 168.853 242.568 151.257 235.336 129.047C229.279 110.443 239.879 60.902 189.69 65.445"
              fill="#00712F"/>
        <mask id="mask2_1_2" style="mask-type:alpha" maskUnits="userSpaceOnUse" x="180" y="107" width="32" height="56">
            <path d="M180.71 122.308V146.968C180.71 155.399 187.545 162.233 195.976 162.233C204.406 162.233 211.241 155.399 211.241 146.968V122.308C211.241 113.877 204.406 107.043 195.976 107.043C187.545 107.043 180.71 113.877 180.71 122.308Z"
                  fill="white"/>
        </mask>
        <g mask="url(#mask2_1_2)">
            <path fill-rule="evenodd" clip-rule="evenodd"
                  d="M195.976 162.233C187.543 162.233 180.709 155.398 180.709 146.967V122.308C180.71 113.878 187.545 107.042 195.976 107.042C204.406 107.042 211.241 113.877 211.241 122.308V146.968C211.241 155.398 204.407 162.233 195.976 162.233"
                  fill="#FDCBB9"/>
        </g>
        <mask id="mask3_1_2" style="mask-type:alpha" maskUnits="userSpaceOnUse" x="180" y="107" width="32" height="56">
            <path d="M180.71 122.308V146.968C180.71 155.399 187.545 162.233 195.976 162.233C204.406 162.233 211.241 155.399 211.241 146.968V122.308C211.241 113.877 204.406 107.043 195.976 107.043C187.545 107.043 180.71 113.877 180.71 122.308Z"
                  fill="white"/>
        </mask>
        <g mask="url(#mask3_1_2)">
            <path fill-rule="evenodd" clip-rule="evenodd"
                  d="M204.666 104.23C204.666 104.23 178.636 87.89 174.722 124.388C174.722 124.388 182.055 133.889 204.195 134.62V146.967C204.195 154.185 199.185 160.229 192.452 161.82C193.583 162.087 194.762 162.233 195.975 162.233C204.406 162.233 211.241 155.398 211.241 146.967V134.51C233.485 132.313 204.666 104.23 204.666 104.23"
                  fill="#FF7373"/>
        </g>
        <path fill-rule="evenodd" clip-rule="evenodd"
              d="M314.542 225.734C309.47 231.918 300.344 232.819 294.159 227.746L223.776 170.011C217.592 164.938 216.691 155.811 221.764 149.628C226.837 143.444 235.962 142.543 242.147 147.616L312.53 205.351C318.714 210.424 319.615 219.55 314.542 225.734"
              fill="#350D4A"/>
        <path fill-rule="evenodd" clip-rule="evenodd"
              d="M342.384 118.318C334.938 115.398 326.534 119.065 323.612 126.51L290.362 211.255C287.442 218.701 291.109 227.106 298.554 230.027C306 232.948 314.405 229.28 317.326 221.835L350.576 137.09C353.497 129.644 349.83 121.24 342.384 118.318"
              fill="#FDD8CA"/>
        <path fill-rule="evenodd" clip-rule="evenodd"
              d="M328.119 118.096C328.119 118.096 351.669 108.999 362.68 109.481C373.693 109.963 385.718 136.958 372.627 141.291C352.876 147.828 335.125 146.201 335.125 146.201C335.125 146.201 319.373 134.799 328.119 118.096"
              fill="#FDD8CA"/>
        <path fill-rule="evenodd" clip-rule="evenodd"
              d="M356.178 105.156C355.817 104.533 355.337 103.988 354.766 103.551C354.194 103.113 353.542 102.793 352.846 102.608C352.151 102.423 351.426 102.376 350.713 102.471C349.999 102.567 349.312 102.801 348.689 103.162L330.956 113.436C329.713 114.172 328.81 115.369 328.445 116.766C328.08 118.164 328.281 119.649 329.005 120.899C329.729 122.149 330.918 123.063 332.312 123.441C333.706 123.819 335.193 123.632 336.45 122.919L354.183 112.645C354.806 112.284 355.351 111.804 355.789 111.233C356.226 110.661 356.546 110.009 356.732 109.314C356.917 108.618 356.963 107.893 356.868 107.18C356.773 106.466 356.539 105.779 356.178 105.156"
              fill="#FDD8CA"/>
        <path fill-rule="evenodd" clip-rule="evenodd"
              d="M384.341 108.09C384.219 107.538 383.99 107.015 383.665 106.552C383.341 106.088 382.929 105.693 382.453 105.389C381.976 105.085 381.444 104.878 380.887 104.779C380.33 104.681 379.759 104.693 379.207 104.815L356.121 109.919C355.569 110.041 355.046 110.271 354.583 110.595C354.12 110.919 353.725 111.331 353.421 111.808C353.116 112.285 352.909 112.817 352.811 113.373C352.713 113.93 352.725 114.501 352.847 115.053C352.969 115.605 353.199 116.128 353.523 116.591C353.847 117.054 354.259 117.449 354.736 117.754C355.213 118.058 355.745 118.265 356.301 118.363C356.858 118.461 357.429 118.449 357.981 118.327L381.067 113.223C381.619 113.101 382.142 112.871 382.605 112.547C383.069 112.223 383.463 111.811 383.768 111.334C384.072 110.857 384.279 110.325 384.377 109.769C384.475 109.212 384.463 108.641 384.341 108.089V108.09ZM393.2 114.95C392.953 113.835 392.274 112.864 391.311 112.25C390.348 111.636 389.181 111.429 388.066 111.676L364.98 116.78C363.879 117.04 362.925 117.723 362.324 118.681C361.723 119.639 361.523 120.796 361.767 121.9C362.011 123.004 362.68 123.968 363.629 124.583C364.578 125.199 365.731 125.416 366.839 125.188L389.925 120.084C391.04 119.837 392.011 119.158 392.625 118.195C393.24 117.232 393.446 116.065 393.2 114.95"
              fill="#FDD8CA"/>
        <path fill-rule="evenodd" clip-rule="evenodd"
              d="M391.996 124.035C391.874 123.483 391.644 122.96 391.32 122.497C390.996 122.034 390.584 121.639 390.108 121.335C389.631 121.031 389.099 120.824 388.542 120.725C387.986 120.627 387.415 120.639 386.863 120.761L363.776 125.866C362.674 126.125 361.718 126.808 361.115 127.766C360.512 128.725 360.312 129.882 360.556 130.988C360.801 132.094 361.471 133.058 362.422 133.673C363.373 134.288 364.527 134.504 365.636 134.274L388.722 129.169C389.837 128.922 390.808 128.243 391.422 127.28C392.036 126.317 392.243 125.15 391.996 124.035V124.035ZM385.982 134.185C385.86 133.633 385.63 133.11 385.306 132.647C384.982 132.183 384.57 131.789 384.093 131.484C383.616 131.18 383.084 130.973 382.528 130.875C381.971 130.777 381.4 130.789 380.848 130.911L357.762 136.015C356.66 136.274 355.704 136.957 355.101 137.915C354.498 138.874 354.298 140.031 354.542 141.137C354.787 142.243 355.457 143.207 356.408 143.822C357.359 144.437 358.513 144.653 359.622 144.423L382.708 139.319C383.26 139.197 383.783 138.967 384.246 138.643C384.71 138.319 385.104 137.907 385.409 137.43C385.713 136.953 385.92 136.421 386.018 135.865C386.116 135.308 386.104 134.737 385.982 134.185Z"
              fill="#FDD8CA"/>
        <path fill-rule="evenodd" clip-rule="evenodd"
              d="M202.66 270.615H188.9C169.213 270.615 152.471 256.25 149.48 236.792L141.042 181.922C137.739 160.432 154.365 141.053 176.107 141.053H215.452C237.194 141.053 253.822 160.433 250.517 181.921L242.079 236.792C239.089 256.25 222.346 270.615 202.659 270.615"
              fill="#3C1053"/>
        <path fill-rule="evenodd" clip-rule="evenodd"
              d="M180.67 139.053L189.058 224.247V285.042C189.058 286.739 188.384 288.367 187.183 289.567C185.983 290.768 184.355 291.442 182.658 291.442H145.802C141.642 291.442 138.588 287.533 139.592 283.496L149.476 243.809L140.256 179.929C137.149 158.386 153.844 139.085 175.61 139.059L180.67 139.053V139.053ZM211.226 139.053L202.838 224.247V285.042C202.838 286.739 203.512 288.367 204.713 289.567C205.913 290.768 207.541 291.442 209.238 291.442H246.095C250.255 291.442 253.309 287.533 252.305 283.496L242.421 243.809L251.639 179.929C254.749 158.386 238.053 139.085 216.287 139.059L211.227 139.053H211.226Z"
              fill="#3C1053"/>
        <mask id="mask4_1_2" style="mask-type:alpha" maskUnits="userSpaceOnUse" x="137" y="26" width="116" height="101">
            <path d="M183.978 26.8C164.014 26.8 147.83 42.984 147.83 62.948V67.9C142.209 67.9 137.653 72.456 137.653 78.077C137.653 83.698 142.209 88.254 147.83 88.254C148.08 88.254 148.325 88.242 148.571 88.224C152.498 110.052 171.588 126.614 194.547 126.614H197.013C219.965 126.614 239.05 110.061 242.985 88.243C248.405 88.018 252.732 83.554 252.732 78.077C252.732 72.853 248.796 68.551 243.729 67.969V62.948C243.729 42.984 227.545 26.8 207.58 26.8"
                  fill="white"/>
        </mask>
        <g mask="url(#mask4_1_2)">
            <path fill-rule="evenodd" clip-rule="evenodd"
                  d="M252.732 78.077C252.732 83.697 248.175 88.254 242.555 88.254C236.934 88.254 232.378 83.698 232.378 78.077C232.378 72.456 236.934 67.9 242.555 67.9C248.175 67.9 252.732 72.456 252.732 78.077Z"
                  fill="#FDD8CA"/>
        </g>
        <mask id="mask5_1_2" style="mask-type:alpha" maskUnits="userSpaceOnUse" x="137" y="26" width="116" height="101">
            <path d="M183.978 26.8C164.014 26.8 147.83 42.984 147.83 62.948V67.9C142.209 67.9 137.653 72.456 137.653 78.077C137.653 83.698 142.209 88.254 147.83 88.254C148.08 88.254 148.325 88.242 148.571 88.224C152.498 110.052 171.588 126.614 194.547 126.614H197.013C219.965 126.614 239.05 110.061 242.985 88.243C248.405 88.018 252.732 83.554 252.732 78.077C252.732 72.853 248.796 68.551 243.729 67.969V62.948C243.729 42.984 227.545 26.8 207.58 26.8"
                  fill="white"/>
        </mask>
        <g mask="url(#mask5_1_2)">
            <path fill-rule="evenodd" clip-rule="evenodd"
                  d="M158.007 78.077C158.007 83.697 153.45 88.254 147.83 88.254C142.21 88.254 137.653 83.698 137.653 78.077C137.653 72.456 142.21 67.9 147.83 67.9C153.45 67.9 158.007 72.456 158.007 78.077"
                  fill="#FDCBB9"/>
        </g>
        <mask id="mask6_1_2" style="mask-type:alpha" maskUnits="userSpaceOnUse" x="137" y="26" width="116" height="101">
            <path d="M183.978 26.8C164.014 26.8 147.83 42.984 147.83 62.948V67.9C142.209 67.9 137.653 72.456 137.653 78.077C137.653 83.698 142.209 88.254 147.83 88.254C148.08 88.254 148.325 88.242 148.571 88.224C152.498 110.052 171.588 126.614 194.547 126.614H197.013C219.965 126.614 239.05 110.061 242.985 88.243C248.405 88.018 252.732 83.554 252.732 78.077C252.732 72.853 248.796 68.551 243.729 67.969V62.948C243.729 42.984 227.545 26.8 207.58 26.8"
                  fill="white"/>
        </mask>
        <g mask="url(#mask6_1_2)">
            <path fill-rule="evenodd" clip-rule="evenodd"
                  d="M152.416 78.077C152.425 78.7128 152.308 79.3442 152.071 79.9343C151.834 80.5244 151.482 81.0615 151.036 81.5144C150.589 81.9673 150.057 82.3269 149.471 82.5724C148.884 82.8179 148.254 82.9443 147.618 82.9443C146.983 82.9443 146.353 82.8179 145.766 82.5724C145.18 82.3269 144.648 81.9673 144.201 81.5144C143.755 81.0615 143.403 80.5244 143.166 79.9343C142.929 79.3442 142.812 78.7128 142.821 78.077C142.839 76.8166 143.353 75.614 144.25 74.7292C145.148 73.8443 146.358 73.3483 147.618 73.3483C148.879 73.3483 150.089 73.8443 150.987 74.7292C151.884 75.614 152.398 76.8166 152.416 78.077"
                  fill="#FF7373"/>
        </g>
        <mask id="mask7_1_2" style="mask-type:alpha" maskUnits="userSpaceOnUse" x="137" y="26" width="116" height="101">
            <path d="M183.978 26.8C164.014 26.8 147.83 42.984 147.83 62.948V67.9C142.209 67.9 137.653 72.456 137.653 78.077C137.653 83.698 142.209 88.254 147.83 88.254C148.08 88.254 148.325 88.242 148.571 88.224C152.498 110.052 171.588 126.614 194.547 126.614H197.013C219.965 126.614 239.05 110.061 242.985 88.243C248.405 88.018 252.732 83.554 252.732 78.077C252.732 72.853 248.796 68.551 243.729 67.969V62.948C243.729 42.984 227.545 26.8 207.58 26.8"
                  fill="white"/>
        </mask>
        <g mask="url(#mask7_1_2)">
            <path fill-rule="evenodd" clip-rule="evenodd"
                  d="M248.577 78.077C248.577 79.3495 248.071 80.5699 247.172 81.4697C246.272 82.3695 245.052 82.875 243.779 82.875C242.506 82.875 241.286 82.3695 240.386 81.4697C239.486 80.5699 238.981 79.3495 238.981 78.077C238.981 76.8045 239.486 75.5841 240.386 74.6843C241.286 73.7845 242.506 73.279 243.779 73.279C245.052 73.279 246.272 73.7845 247.172 74.6843C248.071 75.5841 248.577 76.8045 248.577 78.077"
                  fill="#FF7373"/>
        </g>
        <mask id="mask8_1_2" style="mask-type:alpha" maskUnits="userSpaceOnUse" x="137" y="26" width="116" height="101">
            <path d="M183.978 26.8C164.014 26.8 147.83 42.984 147.83 62.948V67.9C142.209 67.9 137.653 72.456 137.653 78.077C137.653 83.698 142.209 88.254 147.83 88.254C148.08 88.254 148.325 88.242 148.571 88.224C152.498 110.052 171.588 126.614 194.547 126.614H197.013C219.965 126.614 239.05 110.061 242.985 88.243C248.405 88.018 252.732 83.554 252.732 78.077C252.732 72.853 248.796 68.551 243.729 67.969V62.948C243.729 42.984 227.545 26.8 207.58 26.8"
                  fill="white"/>
        </mask>
        <g mask="url(#mask8_1_2)">
            <path fill-rule="evenodd" clip-rule="evenodd"
                  d="M204.88 126.614H186.679C165.224 126.614 147.831 109.221 147.831 87.766V56.86C147.83 40.259 161.289 26.8 177.89 26.8H213.67C230.27 26.8 243.729 40.258 243.729 56.86V87.765C243.729 109.22 226.337 126.613 204.881 126.613"
                  fill="#FDD8CA"/>
        </g>
        <mask id="mask9_1_2" style="mask-type:alpha" maskUnits="userSpaceOnUse" x="137" y="26" width="116" height="101">
            <path d="M183.978 26.8C164.014 26.8 147.83 42.984 147.83 62.948V67.9C142.209 67.9 137.653 72.456 137.653 78.077C137.653 83.698 142.209 88.254 147.83 88.254C148.08 88.254 148.325 88.242 148.571 88.224C152.498 110.052 171.588 126.614 194.547 126.614H197.013C219.965 126.614 239.05 110.061 242.985 88.243C248.405 88.018 252.732 83.554 252.732 78.077C252.732 72.853 248.796 68.551 243.729 67.969V62.948C243.729 42.984 227.545 26.8 207.58 26.8"
                  fill="white"/>
        </mask>
        <g mask="url(#mask9_1_2)">
            <path fill-rule="evenodd" clip-rule="evenodd"
                  d="M176.382 27.117C174.731 27.513 173.664 27.974 173.664 27.974C174.58 27.676 175.484 27.392 176.382 27.117"
                  fill="#FF7373"/>
        </g>
        <mask id="mask10_1_2" style="mask-type:alpha" maskUnits="userSpaceOnUse" x="137" y="26" width="116"
              height="101">
            <path d="M183.978 26.8C164.014 26.8 147.83 42.984 147.83 62.948V67.9C142.209 67.9 137.653 72.456 137.653 78.077C137.653 83.698 142.209 88.254 147.83 88.254C148.08 88.254 148.325 88.242 148.571 88.224C152.498 110.052 171.588 126.614 194.547 126.614H197.013C219.965 126.614 239.05 110.061 242.985 88.243C248.405 88.018 252.732 83.554 252.732 78.077C252.732 72.853 248.796 68.551 243.729 67.969V62.948C243.729 42.984 227.545 26.8 207.58 26.8"
                  fill="white"/>
        </mask>
        <g mask="url(#mask10_1_2)">
            <path fill-rule="evenodd" clip-rule="evenodd"
                  d="M247.643 31.889C247.643 31.889 225.402 12.094 176.382 27.118C181.775 25.824 193.405 25.225 194.459 43.68C195.725 65.827 209.737 91.258 236.631 86.709C236.014 100.554 229.373 112.831 219.262 120.981C231.495 114.343 240.431 102.403 242.985 88.241C247.727 88.045 251.63 84.605 252.535 80.081C269.924 65.003 247.643 31.888 247.643 31.888"
                  fill="#FF7373"/>
        </g>
        <mask id="mask11_1_2" style="mask-type:alpha" maskUnits="userSpaceOnUse" x="137" y="26" width="116"
              height="101">
            <path d="M183.978 26.8C164.014 26.8 147.83 42.984 147.83 62.948V67.9C142.209 67.9 137.653 72.456 137.653 78.077C137.653 83.698 142.209 88.254 147.83 88.254C148.08 88.254 148.325 88.242 148.571 88.224C152.498 110.052 171.588 126.614 194.547 126.614H197.013C219.965 126.614 239.05 110.061 242.985 88.243C248.405 88.018 252.732 83.554 252.732 78.077C252.732 72.853 248.796 68.551 243.729 67.969V62.948C243.729 42.984 227.545 26.8 207.58 26.8"
                  fill="white"/>
        </mask>
        <g mask="url(#mask11_1_2)">
            <path fill-rule="evenodd" clip-rule="evenodd"
                  d="M204.059 123.482H201.592C175.791 123.482 154.876 102.566 154.876 76.766V59.816C154.876 46.452 162.129 34.783 172.912 28.528C158.362 33.202 147.83 46.844 147.83 62.948V79.898C147.83 105.698 168.746 126.613 194.546 126.613H197.013C204.85 126.625 212.562 124.656 219.434 120.889C214.491 122.61 209.293 123.487 204.059 123.482"
                  fill="#FDCBB9"/>
        </g>
        <mask id="mask12_1_2" style="mask-type:alpha" maskUnits="userSpaceOnUse" x="137" y="26" width="116"
              height="101">
            <path d="M183.978 26.8C164.014 26.8 147.83 42.984 147.83 62.948V67.9C142.209 67.9 137.653 72.456 137.653 78.077C137.653 83.698 142.209 88.254 147.83 88.254C148.08 88.254 148.325 88.242 148.571 88.224C152.498 110.052 171.588 126.614 194.547 126.614H197.013C219.965 126.614 239.05 110.061 242.985 88.243C248.405 88.018 252.732 83.554 252.732 78.077C252.732 72.853 248.796 68.551 243.729 67.969V62.948C243.729 42.984 227.545 26.8 207.58 26.8"
                  fill="white"/>
        </mask>
        <g mask="url(#mask12_1_2)">
            <path fill-rule="evenodd" clip-rule="evenodd"
                  d="M179.935 74.411C179.943 74.9431 179.846 75.4716 179.648 75.9657C179.45 76.4597 179.156 76.9095 178.783 77.2888C178.409 77.668 177.964 77.9693 177.473 78.1749C176.983 78.3805 176.456 78.4863 175.924 78.4863C175.391 78.4863 174.864 78.3805 174.374 78.1749C173.883 77.9693 173.438 77.668 173.064 77.2888C172.691 76.9095 172.397 76.4597 172.199 75.9657C172.001 75.4716 171.904 74.9431 171.912 74.411C171.929 73.3581 172.359 72.3539 173.109 71.6151C173.86 70.8764 174.87 70.4623 175.924 70.4623C176.977 70.4623 177.987 70.8764 178.738 71.6151C179.488 72.3539 179.918 73.3581 179.935 74.411"
                  fill="black"/>
        </g>
        <mask id="mask13_1_2" style="mask-type:alpha" maskUnits="userSpaceOnUse" x="137" y="26" width="116"
              height="101">
            <path d="M183.978 26.8C164.014 26.8 147.83 42.984 147.83 62.948V67.9C142.209 67.9 137.653 72.456 137.653 78.077C137.653 83.698 142.209 88.254 147.83 88.254C148.08 88.254 148.325 88.242 148.571 88.224C152.498 110.052 171.588 126.614 194.547 126.614H197.013C219.965 126.614 239.05 110.061 242.985 88.243C248.405 88.018 252.732 83.554 252.732 78.077C252.732 72.853 248.796 68.551 243.729 67.969V62.948C243.729 42.984 227.545 26.8 207.58 26.8"
                  fill="white"/>
        </mask>
        <g mask="url(#mask13_1_2)">
            <path fill-rule="evenodd" clip-rule="evenodd"
                  d="M219.648 74.411C219.648 75.4751 219.225 76.4955 218.473 77.2479C217.721 78.0003 216.7 78.423 215.636 78.423C214.572 78.423 213.551 78.0003 212.799 77.2479C212.047 76.4955 211.624 75.4751 211.624 74.411C211.624 73.347 212.047 72.3265 212.799 71.5741C213.551 70.8217 214.572 70.399 215.636 70.399C216.7 70.399 217.721 70.8217 218.473 71.5741C219.225 72.3265 219.648 73.347 219.648 74.411Z"
                  fill="black"/>
        </g>
        <mask id="mask14_1_2" style="mask-type:alpha" maskUnits="userSpaceOnUse" x="137" y="26" width="116"
              height="101">
            <path d="M183.978 26.8C164.014 26.8 147.83 42.984 147.83 62.948V67.9C142.209 67.9 137.653 72.456 137.653 78.077C137.653 83.698 142.209 88.254 147.83 88.254C148.08 88.254 148.325 88.242 148.571 88.224C152.498 110.052 171.588 126.614 194.547 126.614H197.013C219.965 126.614 239.05 110.061 242.985 88.243C248.405 88.018 252.732 83.554 252.732 78.077C252.732 72.853 248.796 68.551 243.729 67.969V62.948C243.729 42.984 227.545 26.8 207.58 26.8"
                  fill="white"/>
        </mask>
        <g mask="url(#mask14_1_2)">
            <path d="M165.362 53.787C165.362 53.787 173.647 49.351 182.585 52.222" stroke="#55C39E" stroke-width="8.469"
                  stroke-linecap="round"/>
        </g>
        <mask id="mask15_1_2" style="mask-type:alpha" maskUnits="userSpaceOnUse" x="137" y="26" width="116"
              height="101">
            <path d="M183.978 26.8C164.014 26.8 147.83 42.984 147.83 62.948V67.9C142.209 67.9 137.653 72.456 137.653 78.077C137.653 83.698 142.209 88.254 147.83 88.254C148.08 88.254 148.325 88.242 148.571 88.224C152.498 110.052 171.588 126.614 194.547 126.614H197.013C219.965 126.614 239.05 110.061 242.985 88.243C248.405 88.018 252.732 83.554 252.732 78.077C252.732 72.853 248.796 68.551 243.729 67.969V62.948C243.729 42.984 227.545 26.8 207.58 26.8"
                  fill="white"/>
        </mask>
        <g mask="url(#mask15_1_2)">
            <path d="M225.197 58.787C225.197 58.787 216.912 54.351 207.974 57.222" stroke="#FFB549" stroke-width="8.469"
                  stroke-linecap="round"/>
        </g>
        <path fill-rule="evenodd" clip-rule="evenodd"
              d="M173.793 28.159C173.793 28.159 190.496 18.189 197.541 41.283C203.671 61.38 215.139 87.108 251.028 76.167C261.458 72.987 266.62 61.277 261.948 51.426C249.846 25.909 221.337 -14.508 173.793 28.159"
              fill="#55C39E"/>
        <path fill-rule="evenodd" clip-rule="evenodd"
              d="M78.76 224.517C83.832 230.701 92.957 231.602 99.142 226.529L169.525 168.794C175.709 163.721 176.61 154.595 171.537 148.411C166.465 142.227 157.339 141.326 151.155 146.399L80.771 204.134C74.587 209.207 73.686 218.333 78.759 224.517"
              fill="#350D4A"/>
        <path fill-rule="evenodd" clip-rule="evenodd"
              d="M50.918 117.102C58.364 114.18 66.768 117.847 69.688 125.293L102.938 210.038C105.861 217.484 102.193 225.889 94.748 228.81H94.747C87.301 231.732 78.897 228.064 75.976 220.619L42.726 135.874C39.804 128.427 43.472 120.022 50.918 117.102Z"
              fill="#FDD8CA"/>
        <path fill-rule="evenodd" clip-rule="evenodd"
              d="M65.183 116.879C65.183 116.879 41.633 107.781 30.621 108.264C19.61 108.746 7.58399 135.741 20.676 140.074C40.426 146.61 58.178 144.984 58.178 144.984C58.178 144.984 73.93 133.581 65.183 116.879Z"
              fill="#FDD8CA"/>
        <path fill-rule="evenodd" clip-rule="evenodd"
              d="M37.124 103.94C37.4846 103.317 37.9645 102.771 38.536 102.334C39.1076 101.897 39.7598 101.576 40.4552 101.391C41.1507 101.206 41.8758 101.159 42.5892 101.254C43.3026 101.349 43.9903 101.584 44.613 101.945L62.345 112.219C62.9747 112.576 63.5274 113.054 63.9713 113.626C64.4151 114.198 64.7411 114.852 64.9307 115.551C65.1202 116.25 65.1695 116.979 65.0756 117.697C64.9817 118.415 64.7465 119.107 64.3836 119.733C64.0207 120.359 63.5373 120.908 62.9613 121.346C62.3853 121.785 61.7281 122.105 61.0278 122.288C60.3274 122.471 59.5977 122.513 58.8808 122.413C58.1639 122.312 57.474 122.071 56.851 121.702L39.118 111.428C38.4954 111.067 37.9499 110.587 37.5127 110.016C37.0755 109.444 36.7551 108.792 36.57 108.096C36.3848 107.401 36.3385 106.676 36.4335 105.963C36.5286 105.249 36.7632 104.562 37.124 103.939"
              fill="#FDD8CA"/>
        <path fill-rule="evenodd" clip-rule="evenodd"
              d="M8.96 106.873C9.08194 106.321 9.31149 105.798 9.63552 105.335C9.95956 104.871 10.3717 104.476 10.8485 104.172C11.3253 103.868 11.8573 103.66 12.4142 103.562C12.971 103.464 13.5419 103.476 14.094 103.598L37.18 108.703C37.732 108.825 38.2546 109.055 38.7179 109.379C39.1811 109.703 39.5761 110.115 39.8801 110.591C40.1841 111.068 40.3913 111.6 40.4897 112.157C40.5882 112.713 40.5761 113.284 40.454 113.836C40.3319 114.388 40.1023 114.911 39.7783 115.374C39.4543 115.837 39.0422 116.232 38.5656 116.536C38.0889 116.84 37.5571 117.047 37.0004 117.146C36.4437 117.244 35.873 117.232 35.321 117.11L12.234 112.007C11.119 111.76 10.1477 111.08 9.53378 110.117C8.91981 109.154 8.71343 107.987 8.96 106.872"
              fill="#FDD8CA"/>
        <path fill-rule="evenodd" clip-rule="evenodd"
              d="M0.102002 113.733C0.348758 112.618 1.0282 111.647 1.99095 111.033C2.95369 110.418 4.12092 110.212 5.236 110.458L28.322 115.563C28.8741 115.685 29.3967 115.915 29.86 116.239C30.3234 116.563 30.7184 116.975 31.0224 117.452C31.3265 117.928 31.5337 118.46 31.6322 119.017C31.7307 119.574 31.7186 120.144 31.5965 120.696C31.4744 121.249 31.2448 121.771 30.9208 122.235C30.5967 122.698 30.1846 123.093 29.7079 123.397C29.2312 123.701 28.6993 123.908 28.1426 124.007C27.5858 124.105 27.0151 124.093 26.463 123.971L3.376 118.867C2.26122 118.62 1.29013 117.94 0.676191 116.978C0.0622568 116.015 -0.144273 114.848 0.102002 113.733"
              fill="#FDD8CA"/>
        <path fill-rule="evenodd" clip-rule="evenodd"
              d="M1.30501 122.818C1.42707 122.266 1.65669 121.743 1.98077 121.28C2.30486 120.816 2.71705 120.422 3.1938 120.117C3.67056 119.813 4.20254 119.606 4.75936 119.508C5.31618 119.41 5.88693 119.422 6.43901 119.544L29.525 124.648C30.6146 124.919 31.5554 125.605 32.1468 126.559C32.7382 127.514 32.9335 128.661 32.6911 129.758C32.4487 130.854 31.7877 131.812 30.8491 132.428C29.9104 133.044 28.7683 133.27 27.666 133.056L4.58001 127.952C4.02787 127.83 3.50517 127.6 3.04177 127.276C2.57837 126.952 2.18333 126.54 1.87922 126.063C1.57511 125.587 1.36787 125.055 1.26935 124.498C1.17083 123.941 1.18295 123.37 1.30501 122.818V122.818ZM7.32001 132.968C7.44207 132.416 7.67169 131.893 7.99577 131.43C8.31986 130.966 8.73205 130.572 9.2088 130.267C9.68556 129.963 10.2175 129.756 10.7744 129.658C11.3312 129.56 11.9019 129.572 12.454 129.694L35.54 134.798C36.0921 134.92 36.6147 135.15 37.078 135.474C37.5413 135.798 37.9363 136.21 38.2403 136.687C38.5443 137.164 38.7515 137.696 38.8499 138.252C38.9483 138.809 38.9361 139.38 38.814 139.932C38.6919 140.484 38.4622 141.007 38.1381 141.47C37.814 141.933 37.4018 142.328 36.9251 142.632C36.4483 142.936 35.9164 143.143 35.3596 143.242C34.8028 143.34 34.2321 143.328 33.68 143.206L10.594 138.102C9.47909 137.855 8.50783 137.176 7.89385 136.213C7.27987 135.25 7.07346 134.083 7.32001 132.968"
              fill="#FDD8CA"/>
        <path d="M198.316 99.462C197.907 95.661 185.713 93.349 179.412 93.349" stroke="#FF7373" stroke-width="3.388"
              stroke-linecap="round"/>
    </g>
</svg>
