<svg width="610" height="610" viewBox="0 0 610 610" fill="none" xmlns="http://www.w3.org/2000/svg">
    <path d="M515.65 183.16C588.58 302.72 550.78 458.77 431.23 531.72C311.68 604.67 155.61 566.85 82.67 447.29C9.73 327.73 111.07 256.15 167.09 98.74C209.44 -20.24 442.71 63.6 515.65 183.16Z"
          fill="#E8EBEE"/>
    <path d="M51.52 466.29C23.37 420.15 14.79 376.37 24.52 328.51C32.73 288.1 52.61 251.18 75.62 208.43C81.53 197.43 87.62 186.15 93.73 174.32"
          stroke="#674186" stroke-width="4" stroke-miterlimit="10"/>
    <path d="M478.21 555.29C521.84 555.29 557.21 519.921 557.21 476.29C557.21 432.66 521.84 397.29 478.21 397.29C434.579 397.29 399.21 432.66 399.21 476.29C399.21 519.921 434.579 555.29 478.21 555.29Z"
          fill="#64C0C1"/>
    <path d="M500.75 453.75L455.67 498.83" stroke="white" stroke-width="14" stroke-linecap="round"
          stroke-linejoin="round"/>
    <path d="M455.67 453.75L500.75 498.83" stroke="white" stroke-width="14" stroke-linecap="round"
          stroke-linejoin="round"/>
    <path d="M299.887 293.539L264.004 335.537L291.36 358.909L327.243 316.911L299.887 293.539Z" fill="#674286"
          stroke="#674286" stroke-width="4" stroke-linecap="round" stroke-linejoin="round"/>
    <path d="M373.13 333.21C427.072 333.21 470.8 289.482 470.8 235.54C470.8 181.598 427.072 137.87 373.13 137.87C319.188 137.87 275.46 181.598 275.46 235.54C275.46 289.482 319.188 333.21 373.13 333.21Z"
          fill="white" stroke="#674286" stroke-width="4" stroke-linecap="round" stroke-linejoin="round"/>
    <path d="M373.13 314.34C416.65 314.34 451.93 279.06 451.93 235.54C451.93 192.02 416.65 156.74 373.13 156.74C329.61 156.74 294.33 192.02 294.33 235.54C294.33 279.06 329.61 314.34 373.13 314.34Z"
          fill="#64C0C1"/>
    <path d="M160.959 443.403C151.535 454.434 152.835 471.015 163.864 480.438C174.892 489.86 191.473 488.557 200.897 477.526L290.052 373.176C299.477 362.145 298.176 345.564 287.148 336.142C276.119 326.719 259.538 328.023 250.114 339.053L160.959 443.403Z"
          fill="white" stroke="#674286" stroke-width="4" stroke-linecap="round" stroke-linejoin="round"/>
    <path d="M194.88 462.82L244.82 404.37" stroke="#B84994" stroke-width="4" stroke-linecap="round"
          stroke-linejoin="round"/>
</svg>
