<svg width="100" height="100" viewBox="0 0 100 100" fill="none" xmlns="http://www.w3.org/2000/svg">
    <path d="M92.8555 0H7.14453C3.20499 0 0 3.20499 0 7.14453V95.9578C0 98.1867 1.81325 100 4.04216 100H92.8555C96.795 100 100 96.795 100 92.8555V7.14453C100 3.20499 96.795 0 92.8555 0ZM30.2175 12.1741C38.7281 12.1741 45.6522 19.0982 45.6522 27.6088C45.6522 36.1194 38.7281 43.0435 30.2175 43.0435C21.7069 43.0435 14.7828 36.1194 14.7828 27.6088C14.7828 19.0982 21.7069 12.1741 30.2175 12.1741ZM88.0953 85.4811C87.5227 86.5248 86.4268 87.1738 85.2364 87.1738H14.7636C13.573 87.1738 12.4771 86.5251 11.9047 85.4811C11.3321 84.4372 11.3739 83.1644 12.0136 82.1605L28.7727 55.8598C29.3714 54.9202 30.4083 54.3513 31.5227 54.3513C32.637 54.3513 33.674 54.9202 34.2727 55.8598L42.3224 68.4925L58.0497 43.8109C58.6484 42.8711 59.6854 42.3024 60.7997 42.3024C61.9139 42.3024 62.951 42.8713 63.5497 43.8109L87.9864 82.1605C88.6261 83.1646 88.6679 84.4375 88.0953 85.4811Z" fill="#a0a0a0"/>
</svg>
