<svg width="67" height="38" viewBox="0 0 67 38" fill="none" xmlns="http://www.w3.org/2000/svg">
    <path d="M65.6695 16.3168L49.2919 5.01874C44.5336 1.73622 39.0704 0 33.5 0C27.9296 0 22.4664 1.73622 17.7081 5.01874L1.33048 16.3168C0.924211 16.597 0.58842 16.9911 0.355407 17.461C0.122394 17.931 0 18.461 0 19C0 19.5391 0.122394 20.069 0.355407 20.539C0.58842 21.0089 0.924211 21.403 1.33048 21.6832L17.7081 32.9813C22.4664 36.2638 27.9295 38 33.5 38C39.0704 38 44.5335 36.2638 49.2919 32.9813L65.6695 21.6832C66.0757 21.403 66.4116 21.0089 66.6446 20.539C66.8776 20.0691 67 19.5391 67 19C67 18.4609 66.8776 17.931 66.6446 17.461C66.4116 16.9911 66.0758 16.597 65.6695 16.3168ZM33.5 30.8781C31.4272 30.8781 29.4009 30.1814 27.6775 28.8763C25.954 27.5711 24.6107 25.716 23.8175 23.5455C23.0243 21.3751 22.8168 18.9868 23.2211 16.6827C23.6255 14.3785 24.6237 12.2621 26.0894 10.6009C27.5551 8.9397 29.4224 7.80843 31.4554 7.35011C33.4884 6.8918 35.5956 7.12702 37.5106 8.02605C39.4256 8.92508 41.0624 10.4475 42.214 12.4009C43.3656 14.3542 43.9802 16.6507 43.9802 19C43.9802 22.1503 42.876 25.1715 40.9106 27.3991C38.9452 29.6266 36.2795 30.8781 33.5 30.8781Z"
          fill="#ADD8E6"/>
    <path d="M37.2017 18.9919C36.5398 18.9922 35.8844 18.8619 35.2729 18.6084C34.6614 18.355 34.1057 17.9834 33.6377 17.5149C33.1697 17.0464 32.7985 16.4902 32.5454 15.8781C32.2922 15.2659 32.1621 14.6098 32.1623 13.9473C32.1626 13.279 32.2943 12.6174 32.5498 12C31.1873 12.0879 29.8802 12.5728 28.7895 13.3949C27.6988 14.2169 26.872 15.3404 26.411 16.6269C25.9501 17.9134 25.875 19.3067 26.1951 20.6354C26.5151 21.964 27.2163 23.17 28.2124 24.1048C29.2084 25.0395 30.4558 25.6623 31.801 25.8964C33.1461 26.1305 34.5303 25.9658 35.7831 25.4224C37.0358 24.879 38.1025 23.9807 38.8518 22.8382C39.601 21.6956 40.0002 20.3587 40 18.9919C40.0002 18.7192 39.9841 18.4466 39.9515 18.1758C39.1339 18.7103 38.1782 18.9939 37.2017 18.9919V18.9919Z"
          fill="#67B7D1"/>
</svg>
