<svg width="16" height="16" viewBox="0 0 16 16" fill="none" xmlns="http://www.w3.org/2000/svg">
<path d="M13.0125 2.06408C12.85 2.09065 12.8297 2.10627 11.9718 2.96096C11.5218 3.40783 11.1312 3.80783 11.1015 3.85158C11.025 3.96252 10.9906 4.11252 11.014 4.22971C11.05 4.41096 11.1547 4.54846 11.3125 4.62346C11.3828 4.65627 11.4218 4.66252 11.5234 4.66252C11.7375 4.66252 11.7734 4.63908 12.2062 4.20627L12.5781 3.83752L12.5812 5.90002L12.5859 7.96096L12.6375 8.06565C12.6937 8.17971 12.7718 8.25783 12.889 8.31408C13 8.36877 13.1953 8.36565 13.3156 8.3094C13.4312 8.25471 13.5359 8.14846 13.5812 8.0344L13.6172 7.94533L13.625 5.89377L13.6328 3.84377L13.9765 4.18908C14.1656 4.37815 14.35 4.55471 14.3859 4.57971C14.6312 4.75158 14.9937 4.65627 15.1375 4.3844C15.175 4.31252 15.1797 4.28752 15.1797 4.14846C15.1797 4.0094 15.175 3.9844 15.1375 3.91408C15.1078 3.85783 14.8593 3.60002 14.239 2.98283C13.5078 2.25471 13.3718 2.12502 13.3047 2.09846C13.2093 2.0594 13.1093 2.0469 13.0125 2.06408Z" fill="black"/>
<path d="M5.45937 5.21875C5.275 5.24375 5.11094 5.35938 5.03125 5.52344C4.99687 5.59063 4.99219 5.62344 4.99219 5.75781C4.99219 5.89219 4.99687 5.925 5.03125 5.99219C5.07969 6.09219 5.18906 6.20156 5.28906 6.25L5.36719 6.28906H8.00781H10.6484L10.7266 6.24688C10.825 6.19531 10.9437 6.06875 10.9859 5.97344C11.0328 5.86563 11.0406 5.72813 11.0094 5.61563C10.9437 5.39219 10.7781 5.25 10.5422 5.21875C10.4047 5.20156 5.59687 5.20156 5.45937 5.21875Z" fill="black"/>
<path d="M5.42186 7.37656C5.24217 7.4125 5.07811 7.54844 5.01561 7.71563C4.98748 7.7875 4.9828 7.82969 4.98748 7.9375C4.99217 8.05156 5.00155 8.08438 5.04686 8.16875C5.1078 8.28281 5.17655 8.34844 5.29686 8.40469L5.3828 8.44531H8.0078H10.6328L10.7047 8.4125C10.9156 8.31406 11.0469 8.09063 11.0265 7.86406C11.0078 7.66719 10.8906 7.50469 10.7062 7.41719L10.6015 7.36719L8.04686 7.36406C6.6203 7.36406 5.46092 7.36875 5.42186 7.37656Z" fill="black"/>
<path d="M2.73906 7.66877C2.5625 7.73127 2.4375 7.86721 2.39688 8.04221C2.37969 8.11565 2.375 8.50471 2.375 10.1485V12.1641L2.00469 11.7938C1.8 11.5906 1.60469 11.4094 1.57188 11.3922C1.31094 11.2563 1 11.3578 0.85625 11.6281C0.825 11.686 0.820312 11.7188 0.820312 11.8516C0.820312 11.9844 0.825 12.0188 0.85625 12.0781C0.910938 12.1813 2.55938 13.8328 2.6625 13.8844C2.81094 13.961 2.98125 13.9625 3.14063 13.8875C3.19219 13.8641 3.425 13.6422 4.02813 13.0406C4.47813 12.5922 4.86875 12.1906 4.89844 12.1485C5.08438 11.8781 4.98594 11.5188 4.6875 11.3781C4.61719 11.3438 4.57969 11.3375 4.47656 11.3375C4.2625 11.3375 4.22656 11.361 3.79375 11.7938L3.42188 12.1625L3.41875 10.1016L3.41406 8.03909L3.37344 7.95315C3.31563 7.82971 3.24688 7.75784 3.13125 7.70159C3.00313 7.63752 2.85938 7.62659 2.73906 7.66877Z" fill="black"/>
<path d="M5.38908 9.5375C5.22346 9.58125 5.07346 9.71562 5.01408 9.87344C4.96721 9.99844 4.97658 10.1922 5.03752 10.3094C5.09221 10.4156 5.18908 10.5094 5.29689 10.5609L5.38283 10.6016H8.00002H10.6172L10.7047 10.5609C10.8281 10.5031 10.9125 10.4203 10.9719 10.3C11.0188 10.2062 11.0235 10.1828 11.0235 10.0625C11.0219 9.96094 11.0141 9.9125 10.9875 9.85469C10.9406 9.74844 10.8719 9.66719 10.7844 9.6125C10.6266 9.51094 10.7828 9.51562 7.99221 9.51719C6.03908 9.51719 5.44533 9.52187 5.38908 9.5375Z" fill="black"/>
</svg>
