<svg width="46" height="41" viewBox="0 0 46 41" fill="none" xmlns="http://www.w3.org/2000/svg">
    <g clip-path="url(#clip0_2_11)">
        <path d="M23 24.5593C25.2644 24.5593 27.1 22.724 27.1 20.46C27.1 18.196 25.2644 16.3607 23 16.3607C20.7356 16.3607 18.9 18.196 18.9 20.46C18.9 22.724 20.7356 24.5593 23 24.5593Z"
              fill="#61DAFB"/>
        <path d="M23 28.8586C35.1503 28.8586 45 25.0984 45 20.46C45 15.8216 35.1503 12.0614 23 12.0614C10.8497 12.0614 1 15.8216 1 20.46C1 25.0984 10.8497 28.8586 23 28.8586Z"
              stroke="#61DAFB"/>
        <path d="M15.7254 24.6593C21.8005 35.1799 29.9823 41.8285 34 39.5093C38.0177 37.1901 36.3497 26.7814 30.2746 16.2607C24.1995 5.74006 16.0177 -0.908521 12 1.41068C7.98234 3.72988 9.65025 14.1386 15.7254 24.6593Z"
              stroke="#61DAFB"/>
        <path d="M15.7254 16.2607C9.65026 26.7814 7.98234 37.1901 12 39.5093C16.0177 41.8285 24.1995 35.1799 30.2746 24.6593C36.3497 14.1386 38.0177 3.72989 34 1.41068C29.9823 -0.908517 21.8005 5.74007 15.7254 16.2607Z"
              stroke="#61DAFB"/>
    </g>
    <path d="M44.4375 25H31.5625C30.6996 25 30 25.6996 30 26.5625V39.4375C30 40.3004 30.6996 41 31.5625 41H44.4375C45.3004 41 46 40.3004 46 39.4375V26.5625C46 25.6996 45.3004 25 44.4375 25Z"
          fill="#3178C6"/>
    <path fill-rule="evenodd" clip-rule="evenodd"
          d="M39.9062 37.7187V39.2812C40.1594 39.4125 40.4688 39.5094 40.8125 39.575C41.1562 39.6406 41.5312 39.6719 41.9062 39.6719C42.2812 39.6719 42.625 39.6375 42.9688 39.5656C43.3125 39.4937 43.5938 39.375 43.8438 39.2219C44.0969 39.0562 44.3125 38.8469 44.4375 38.5656C44.5625 38.2844 44.6594 37.9719 44.6594 37.5656C44.6594 37.2812 44.6156 37.0344 44.5312 36.8156C44.4469 36.5969 44.325 36.4094 44.1562 36.2531C43.9969 36.0875 43.8125 35.9406 43.5938 35.8156C43.375 35.6906 43.125 35.5594 42.8438 35.4406C42.6375 35.3562 42.4688 35.275 42.2812 35.1937C42.1188 35.1125 41.9781 35.0312 41.875 34.95C41.7594 34.8656 41.6719 34.7781 41.6094 34.6875C41.5469 34.5937 41.5156 34.4906 41.5156 34.375C41.5156 34.2687 41.5434 34.1719 41.6 34.0844C41.6566 33.9969 41.7344 33.925 41.8344 33.8625C41.9344 33.8 42.0594 33.7531 42.2094 33.7187C42.3563 33.6844 42.5188 33.6687 42.7094 33.6687C42.8406 33.6687 42.9781 33.6784 43.1156 33.6981C43.2594 33.7178 43.4063 33.7481 43.5531 33.7887C43.7 33.8294 43.8438 33.8794 43.9906 33.9419C44.1281 34.0044 44.2563 34.0762 44.3656 34.1575V32.6887C44.1281 32.5981 43.8656 32.5294 43.5844 32.4856C43.3031 32.4419 42.9906 32.42 42.6156 32.42C42.2406 32.42 41.8969 32.4606 41.5531 32.5387C41.2094 32.6169 40.9281 32.7419 40.6781 32.9137C40.425 33.0825 40.2406 33.2887 40.0844 33.57C39.9375 33.8325 39.8656 34.1325 39.8656 34.5075C39.8656 34.9762 40 35.3825 40.2719 35.695C40.5406 36.0387 40.9594 36.2887 41.4906 36.5387C41.7063 36.6262 41.8969 36.7137 42.0844 36.7981C42.2719 36.8825 42.4281 36.97 42.5531 37.0606C42.6875 37.1512 42.7938 37.2512 42.8656 37.3575C42.9438 37.4637 42.9844 37.5887 42.9844 37.7325C42.9844 37.8325 42.96 37.9262 42.9125 38.0137C42.865 38.1012 42.7906 38.1762 42.6906 38.2387C42.5906 38.3012 42.4688 38.3512 42.3156 38.3887C42.1688 38.4231 42.0031 38.4419 41.7844 38.4419C41.4406 38.4419 41.0969 38.3825 40.7844 38.2637C40.4406 38.145 40.1281 37.9669 39.8469 37.7325L39.9062 37.7187ZM37.2812 33.875H39.2812V32.5937H33.6875V33.875H35.6875V39.5937H37.2812V33.875Z"
          fill="white"/>
    <defs>
        <clipPath id="clip0_2_11">
            <rect width="46" height="40.92" fill="white"/>
        </clipPath>
    </defs>
</svg>
