<svg width="100" height="100" viewBox="0 0 100 100" fill="none" xmlns="http://www.w3.org/2000/svg">
<g >
<circle cx="50" cy="50" r="50" fill="#A4A4A4"/>
<path d="M80 33.8333C78.9872 33.3773 77.8628 33.229 76.7664 33.4068C75.6701 33.5846 74.6501 34.0806 73.8333 34.8333L66.6667 41.5V36.6667C66.6667 34.0145 65.6131 31.471 63.7377 29.5956C61.8624 27.7202 59.3188 26.6667 56.6667 26.6667H26.6667C24.0145 26.6667 21.471 27.7202 19.5956 29.5956C17.7202 31.471 16.6667 34.0145 16.6667 36.6667V63.3333C16.6667 65.9855 17.7202 68.529 19.5956 70.4044C21.471 72.2798 24.0145 73.3333 26.6667 73.3333H56.6667C59.3188 73.3333 61.8624 72.2798 63.7377 70.4044C65.6131 68.529 66.6667 65.9855 66.6667 63.3333V58.5L73.8667 65.1667C74.9266 66.1262 76.3036 66.6603 77.7333 66.6667C78.5268 66.6648 79.3108 66.4944 80.0333 66.1667C81.0165 65.769 81.8587 65.0872 82.4525 64.2084C83.0462 63.3297 83.3645 62.2939 83.3667 61.2333V38.7667C83.3619 37.7023 83.0387 36.6637 82.4387 35.7845C81.8387 34.9054 80.9894 34.2258 80 33.8333V33.8333Z" fill="black"/>
</g>
</svg>
