<svg width="600" height="600" viewBox="0 0 600 600" fill="none" xmlns="http://www.w3.org/2000/svg">
    <path d="M137.7 0H462.3C538.6 0 600 61.4 600 137.7V462.3C600 538.6 538.6 600 462.3 600H137.7C61.4 600 0 538.6 0 462.3V137.7C0 61.4 61.4 0 137.7 0Z"
          fill="url(#paint0_linear_0_3)"/>
    <path d="M91.5 227.3V373.4C91.5 405.3 117.4 431.1 149.2 431.1H325C356.9 431.1 382.7 405.2 382.7 373.4V227.3C382.7 195.4 356.8 169.6 325 169.6H149.3C117.4 169.5 91.5 195.4 91.5 227.3Z"
          fill="white"/>
    <path d="M470.8 188.2L404.6 242.8C398.7 247.7 395.3 254.9 395.3 262.5V338.1C395.3 345.7 398.6 352.8 404.4 357.7L470.6 413.3C485.7 425.9 508.6 415.2 508.6 395.6V206C508.7 186.5 485.9 175.7 470.8 188.2Z"
          fill="white"/>
    <defs>
        <linearGradient id="paint0_linear_0_3" x1="298.25" y1="12.5294" x2="301.831" y2="600.686"
                        gradientUnits="userSpaceOnUse">
            <stop stop-color="#5DF7EE"/>
            <stop offset="1" stop-color="#0A67BC"/>
        </linearGradient>
    </defs>
</svg>
