<svg id="svg" version="1.1" xmlns="http://www.w3.org/2000/svg" width="400" height="399.03614457831327"
     viewBox="0, 0, 400,399.03614457831327">
    <g id="svgg">
        <path id="path0"
              d="M116.667 67.357 C 117.490 67.443,118.837 67.443,119.661 67.357 C 120.484 67.271,119.810 67.200,118.164 67.200 C 116.517 67.200,115.843 67.271,116.667 67.357 M127.253 67.355 C 127.970 67.444,129.048 67.442,129.648 67.351 C 130.248 67.260,129.661 67.187,128.343 67.190 C 127.026 67.192,126.535 67.266,127.253 67.355 M152.369 67.365 C 156.581 67.429,163.587 67.429,167.938 67.365 C 172.289 67.300,168.842 67.248,160.279 67.247 C 151.717 67.247,148.157 67.300,152.369 67.365 M199.900 67.358 C 200.833 67.442,202.360 67.442,203.293 67.358 C 204.227 67.274,203.463 67.205,201.597 67.205 C 199.731 67.205,198.967 67.274,199.900 67.358 M223.653 67.341 C 224.037 67.441,224.666 67.441,225.050 67.341 C 225.434 67.241,225.120 67.158,224.351 67.158 C 223.583 67.158,223.268 67.241,223.653 67.341 M230.250 67.359 C 231.189 67.443,232.626 67.442,233.444 67.356 C 234.261 67.270,233.493 67.201,231.737 67.203 C 229.980 67.204,229.311 67.274,230.250 67.359 M250.299 78.144 C 250.299 78.313,250.659 78.675,251.098 78.949 C 251.537 79.224,251.896 79.310,251.896 79.141 C 251.896 78.973,251.537 78.610,251.098 78.336 C 250.659 78.062,250.299 77.975,250.299 78.144 M279.840 104.192 C 279.840 104.411,280.005 104.591,280.207 104.591 C 280.408 104.591,280.902 104.715,281.305 104.868 C 281.990 105.127,281.993 105.102,281.366 104.469 C 280.622 103.718,279.840 103.576,279.840 104.192 M97.006 118.563 C 97.006 118.820,93.014 118.962,85.828 118.962 C 76.159 118.962,74.651 119.043,74.651 119.561 C 74.651 119.900,74.293 120.160,73.824 120.160 C 72.940 120.160,71.856 121.023,71.856 121.728 C 71.856 121.963,71.664 122.156,71.429 122.156 C 70.732 122.156,69.860 123.236,69.860 124.100 C 69.860 124.541,69.681 125.014,69.461 125.150 C 69.201 125.310,69.062 134.868,69.062 152.519 C 69.062 170.334,69.199 179.641,69.461 179.641 C 69.681 179.641,69.866 180.225,69.873 180.938 C 69.886 182.308,70.638 183.633,71.401 183.633 C 71.652 183.633,71.856 183.825,71.856 184.060 C 71.856 184.765,72.940 185.629,73.824 185.629 C 74.279 185.629,74.651 185.808,74.651 186.028 C 74.651 186.248,75.100 186.427,75.649 186.427 C 76.198 186.427,76.647 186.632,76.647 186.882 C 76.647 187.496,77.880 188.395,78.743 188.410 C 79.127 188.417,79.441 188.693,79.441 189.022 C 79.441 189.351,79.711 189.621,80.040 189.621 C 80.369 189.621,80.639 189.800,80.639 190.020 C 80.639 190.240,80.998 190.419,81.437 190.419 C 81.876 190.419,82.236 190.599,82.236 190.818 C 82.236 191.038,82.685 191.218,83.234 191.218 C 83.855 191.218,84.232 191.444,84.232 191.816 C 84.232 192.146,84.501 192.415,84.830 192.415 C 85.160 192.415,85.429 192.595,85.429 192.814 C 85.429 193.034,85.878 193.214,86.427 193.214 C 86.976 193.214,87.425 193.406,87.425 193.641 C 87.425 194.346,88.509 195.210,89.393 195.210 C 89.847 195.210,90.220 195.402,90.220 195.637 C 90.220 196.342,91.303 197.206,92.187 197.206 C 92.642 197.206,93.014 197.385,93.014 197.605 C 93.014 197.824,93.283 198.004,93.613 198.004 C 93.942 198.004,94.212 198.273,94.212 198.603 C 94.212 198.935,94.566 199.202,95.010 199.202 C 95.449 199.202,95.808 199.381,95.808 199.601 C 95.808 199.820,96.257 200.000,96.806 200.000 C 97.427 200.000,97.804 200.226,97.804 200.599 C 97.804 200.928,98.074 201.198,98.403 201.198 C 99.095 201.198,99.123 200.836,99.084 192.322 C 99.069 189.087,99.205 186.349,99.385 186.238 C 99.564 186.127,124.782 186.030,155.424 186.024 C 217.093 186.011,213.804 186.148,216.699 183.467 C 219.701 180.688,219.561 182.185,219.561 152.891 C 219.561 128.736,219.506 126.580,218.862 125.292 C 217.554 122.673,216.459 121.691,213.759 120.711 L 211.141 119.760 155.072 119.760 C 99.268 119.760,99.002 119.757,99.002 118.962 C 99.002 118.377,98.736 118.164,98.004 118.164 C 97.455 118.164,97.006 118.343,97.006 118.563 M181.777 128.523 C 182.007 128.754,182.664 128.942,183.237 128.942 C 185.771 128.942,191.195 133.283,192.589 136.427 C 192.954 137.251,193.442 138.266,193.674 138.685 C 194.411 140.013,194.219 147.729,193.393 149.946 C 191.979 153.745,188.769 157.381,185.629 158.743 C 184.860 159.076,183.923 159.511,183.546 159.709 C 181.888 160.582,179.089 161.026,174.338 161.169 L 169.236 161.322 169.277 169.907 C 169.307 176.030,169.182 178.656,168.842 179.066 C 168.207 179.832,158.980 179.896,157.963 179.142 C 156.894 178.349,156.903 129.399,157.972 128.765 C 159.564 127.820,180.857 127.604,181.777 128.523 M129.258 131.419 C 129.371 134.416,128.263 137.518,126.886 138.057 C 126.700 138.130,126.547 138.353,126.547 138.552 C 126.547 138.750,125.469 140.430,124.152 142.283 C 122.834 144.137,121.756 145.764,121.756 145.898 C 121.756 146.033,121.307 146.627,120.758 147.219 C 120.210 147.811,119.760 148.479,119.760 148.703 C 119.760 148.927,119.311 149.594,118.762 150.186 C 118.214 150.778,117.764 151.424,117.764 151.621 C 117.764 151.818,117.315 152.464,116.766 153.056 C 116.218 153.648,115.768 154.223,115.768 154.333 C 115.768 154.612,110.931 161.674,110.084 162.630 C 109.703 163.061,109.286 163.742,109.159 164.142 C 109.032 164.543,108.761 164.870,108.556 164.870 C 108.351 164.870,108.184 165.140,108.184 165.469 C 108.184 165.798,108.033 166.068,107.849 166.068 C 107.521 166.068,106.440 167.950,106.405 168.581 C 106.395 168.756,111.507 168.935,117.764 168.980 L 129.142 169.062 129.142 174.251 L 129.142 179.441 109.826 179.545 C 95.895 179.620,90.358 179.522,89.966 179.197 C 88.905 178.316,89.237 172.446,90.419 171.171 C 90.968 170.579,91.417 169.977,91.417 169.834 C 91.417 169.454,95.482 163.897,95.875 163.739 C 96.058 163.666,96.208 163.424,96.208 163.203 C 96.208 162.981,97.262 161.334,98.551 159.543 C 99.839 157.753,101.591 155.233,102.443 153.944 C 104.707 150.520,105.115 149.918,105.890 148.860 C 106.275 148.334,108.098 145.749,109.940 143.114 L 113.289 138.323 102.453 138.124 L 91.617 137.924 91.503 133.559 C 91.440 131.158,91.480 128.955,91.591 128.664 C 91.757 128.234,95.267 128.155,110.468 128.240 L 129.142 128.343 129.258 131.419 M148.007 153.448 C 148.082 171.660,147.986 178.703,147.659 179.097 C 147.105 179.764,137.708 179.874,136.501 179.227 C 135.711 178.805,135.227 129.178,136.005 128.400 C 136.157 128.248,138.896 128.173,142.093 128.233 L 147.904 128.343 148.007 153.448 M171.158 137.239 L 169.261 137.369 169.261 144.057 C 169.261 152.193,169.293 152.265,172.678 151.961 C 176.336 151.633,177.973 151.265,178.478 150.657 C 178.732 150.350,179.111 150.100,179.319 150.100 C 179.788 150.100,180.439 149.430,181.343 148.018 C 183.174 145.156,181.429 138.124,178.889 138.124 C 178.512 138.124,178.033 137.967,177.824 137.775 C 177.364 137.352,173.754 137.062,171.158 137.239 M304.286 159.082 L 304.300 163.872 304.624 160.509 C 304.803 158.659,304.796 156.503,304.610 155.719 C 304.367 154.691,304.276 155.632,304.286 159.082 M304.313 238.224 C 304.317 261.552,304.471 280.639,304.655 280.639 C 305.062 280.639,305.008 206.392,304.597 200.200 C 304.436 197.784,304.309 214.895,304.313 238.224 M201.397 205.478 C 197.642 205.846,193.241 210.454,192.671 214.615 C 192.530 215.640,192.415 226.789,192.415 239.390 C 192.415 264.220,192.438 263.977,190.334 261.805 C 188.733 260.151,184.666 256.882,183.633 256.417 C 180.386 254.958,177.344 254.582,175.741 255.440 C 175.280 255.686,174.594 255.888,174.217 255.888 C 171.470 255.888,166.871 262.380,166.865 266.267 C 166.862 267.722,168.042 271.558,168.563 271.790 C 168.728 271.863,168.865 272.132,168.869 272.389 C 168.878 273.045,170.625 274.889,173.653 277.439 C 175.080 278.641,176.787 280.167,177.447 280.830 C 178.107 281.493,179.804 283.024,181.219 284.232 C 182.634 285.439,184.259 286.876,184.830 287.425 C 185.401 287.974,187.201 289.591,188.831 291.018 C 193.226 294.867,196.589 297.965,196.740 298.303 C 196.813 298.468,197.050 298.603,197.265 298.603 C 197.481 298.603,198.230 299.029,198.929 299.550 C 203.427 302.902,208.933 301.814,214.783 296.417 C 216.218 295.094,218.613 292.934,220.107 291.617 C 221.602 290.299,223.761 288.323,224.906 287.226 C 226.051 286.128,228.403 283.972,230.132 282.435 C 235.836 277.368,240.719 272.483,240.719 271.845 C 240.719 271.500,240.943 270.994,241.216 270.720 C 241.898 270.038,241.899 263.298,241.218 262.615 C 240.943 262.341,240.719 261.869,240.719 261.568 C 240.719 260.765,237.147 257.128,235.740 256.499 C 231.496 254.602,226.200 255.145,223.353 257.769 C 221.674 259.317,216.580 262.675,215.910 262.675 C 215.250 262.675,215.202 261.220,215.089 237.824 L 214.970 212.974 213.804 211.178 C 212.615 209.346,210.077 206.812,209.413 206.796 C 209.210 206.791,208.761 206.540,208.415 206.238 C 207.727 205.640,203.935 205.229,201.397 205.478 M304.722 283.633 C 304.724 285.170,304.796 285.749,304.882 284.921 C 304.969 284.093,304.967 282.836,304.879 282.127 C 304.791 281.418,304.720 282.096,304.722 283.633 M304.719 292.615 C 304.719 294.042,304.791 294.626,304.880 293.912 C 304.968 293.199,304.968 292.031,304.880 291.317 C 304.791 290.604,304.719 291.188,304.719 292.615 M304.304 301.797 C 304.283 305.517,304.418 308.091,304.629 307.961 C 305.078 307.683,305.113 295.409,304.665 295.409 C 304.486 295.409,304.324 298.284,304.304 301.797 M304.198 310.479 C 304.202 311.335,304.289 311.445,304.591 310.978 C 305.096 310.197,305.096 309.381,304.591 309.381 C 304.371 309.381,304.194 309.875,304.198 310.479 M107.585 331.737 C 107.881 332.216,115.675 332.233,117.964 331.759 C 119.100 331.525,117.795 331.416,113.449 331.383 C 109.466 331.353,107.424 331.476,107.585 331.737 M286.028 331.737 C 286.164 331.956,286.534 332.136,286.850 332.136 C 287.166 332.136,287.425 331.956,287.425 331.737 C 287.425 331.517,287.055 331.337,286.603 331.337 C 286.151 331.337,285.892 331.517,286.028 331.737 M288.623 331.737 C 288.623 331.956,288.971 332.136,289.398 332.136 C 289.824 332.136,290.283 331.956,290.419 331.737 C 290.559 331.510,290.224 331.337,289.644 331.337 C 289.082 331.337,288.623 331.517,288.623 331.737 "
              stroke="none" fill="#ed5505" fill-rule="evenodd"/>
        <path id="path1"
              d="M110.715 68.517 C 110.756 69.002,110.551 69.224,110.127 69.155 C 109.768 69.096,108.843 69.680,108.071 70.452 C 107.298 71.224,106.377 71.856,106.023 71.856 C 105.496 71.856,105.426 72.145,105.635 73.453 C 105.852 74.808,105.784 75.050,105.188 75.050 C 104.599 75.050,104.526 75.291,104.734 76.547 C 104.870 77.370,104.983 87.340,104.986 98.703 L 104.990 119.361 158.849 119.361 C 221.101 119.361,215.538 118.940,218.907 123.908 L 219.960 125.461 219.960 152.894 L 219.960 180.328 218.907 181.880 C 217.551 183.879,216.544 184.760,214.571 185.672 C 213.043 186.378,210.646 186.410,158.982 186.418 L 104.990 186.427 104.990 250.254 C 104.990 320.994,104.832 316.729,107.551 319.414 C 110.616 322.439,100.564 322.156,204.751 322.156 C 271.293 322.156,297.834 322.032,298.025 321.722 C 298.173 321.483,298.633 321.376,299.047 321.485 C 299.461 321.593,299.800 321.491,299.800 321.258 C 299.800 321.025,300.519 320.151,301.397 319.315 C 302.275 318.480,302.994 317.520,302.994 317.182 C 302.994 316.844,303.236 316.567,303.531 316.567 C 303.980 316.567,304.082 300.747,304.152 220.758 C 304.222 139.358,304.152 124.950,303.682 124.950 C 303.378 124.950,302.889 124.501,302.595 123.952 C 302.301 123.403,301.822 122.954,301.529 122.954 C 301.237 122.954,300.998 122.774,300.998 122.555 C 300.998 122.335,300.563 122.156,300.032 122.156 C 298.871 122.156,295.500 118.943,294.922 117.285 C 294.708 116.670,294.281 116.168,293.973 116.168 C 293.665 116.168,293.413 115.969,293.413 115.725 C 293.413 115.466,293.042 115.376,292.515 115.508 C 291.439 115.777,286.627 111.069,286.627 109.748 C 286.627 109.516,286.223 109.383,285.729 109.453 C 285.235 109.523,284.486 109.311,284.065 108.982 C 282.568 107.810,279.840 104.832,279.840 104.369 C 279.840 104.252,279.368 103.671,278.792 103.076 C 278.215 102.482,277.866 102.221,278.017 102.495 C 278.183 102.798,278.046 102.994,277.668 102.994 C 277.326 102.994,277.046 102.814,277.046 102.595 C 277.046 102.375,276.839 102.196,276.585 102.196 C 276.015 102.196,273.054 99.034,273.054 98.425 C 273.054 98.181,272.695 97.722,272.255 97.405 C 271.816 97.089,271.454 96.555,271.451 96.219 C 271.447 95.862,271.323 95.775,271.152 96.008 C 270.676 96.656,269.694 96.455,268.670 95.502 C 268.144 95.012,267.613 94.610,267.490 94.609 C 267.366 94.608,266.637 93.620,265.868 92.415 C 264.898 90.893,264.213 90.223,263.627 90.222 C 262.756 90.219,261.023 89.064,259.756 87.639 C 258.076 85.750,257.485 85.011,257.485 84.799 C 257.485 84.259,256.271 83.433,255.477 83.433 C 254.603 83.433,250.717 80.010,250.705 79.230 C 250.701 79.004,250.339 78.560,249.900 78.244 C 249.461 77.927,249.102 77.419,249.102 77.114 C 249.102 76.726,248.810 76.633,248.125 76.805 C 247.148 77.050,243.114 73.671,243.114 72.607 C 243.114 71.919,242.020 71.058,241.146 71.058 C 240.691 71.058,240.319 70.878,240.319 70.659 C 240.319 70.439,240.127 70.259,239.892 70.259 C 239.339 70.259,238.323 69.244,238.323 68.691 C 238.323 68.389,220.035 68.262,175.948 68.259 C 141.642 68.257,112.916 68.146,112.112 68.013 C 110.854 67.805,110.661 67.875,110.715 68.517 M238.284 96.542 L 238.323 119.830 239.557 121.548 C 240.236 122.493,241.652 123.735,242.705 124.308 L 244.619 125.349 273.393 125.349 C 301.830 125.349,302.173 125.359,302.598 126.154 C 303.148 127.181,302.992 127.229,298.204 127.502 C 296.118 127.622,291.267 127.991,287.425 128.323 C 279.870 128.975,277.967 129.134,270.060 129.767 C 264.466 130.215,255.230 131.015,246.882 131.775 C 239.426 132.454,235.895 131.011,233.819 126.434 C 232.833 124.260,233.133 116.799,234.739 103.572 C 234.954 101.804,235.128 99.559,235.125 98.582 C 235.120 96.406,236.208 84.236,236.739 80.532 C 236.952 79.045,237.128 77.069,237.130 76.140 C 237.133 75.211,237.256 73.733,237.405 72.854 C 238.050 69.040,238.246 74.303,238.284 96.542 M92.495 128.842 C 92.404 129.007,92.354 131.028,92.385 133.333 L 92.442 137.525 102.808 137.626 C 115.198 137.748,114.569 137.597,112.775 140.011 C 111.996 141.059,111.252 142.231,111.122 142.615 C 110.992 142.999,110.726 143.313,110.532 143.313 C 110.338 143.313,110.180 143.540,110.180 143.816 C 110.180 144.093,109.731 144.804,109.182 145.396 C 108.633 145.988,108.184 146.617,108.184 146.793 C 108.184 146.970,107.735 147.598,107.186 148.190 C 106.637 148.782,106.188 149.374,106.188 149.505 C 106.188 149.636,104.661 151.890,102.794 154.514 C 100.928 157.137,99.401 159.372,99.401 159.479 C 99.401 159.587,99.019 160.114,98.552 160.651 C 98.085 161.189,97.501 161.973,97.254 162.394 C 96.380 163.887,94.487 166.670,94.212 166.866 C 94.058 166.976,93.429 167.874,92.814 168.862 C 92.200 169.850,91.585 170.749,91.448 170.858 C 90.398 171.700,89.820 173.465,89.820 175.834 L 89.820 178.443 109.395 178.443 L 128.969 178.443 128.856 174.152 L 128.743 169.860 117.026 169.788 C 110.583 169.748,105.237 169.642,105.148 169.553 C 104.899 169.303,106.056 167.158,106.968 166.179 C 107.417 165.697,107.784 165.208,107.784 165.091 C 107.784 164.975,108.862 163.363,110.180 161.509 C 111.497 159.655,112.575 158.029,112.575 157.894 C 112.575 157.760,113.024 157.165,113.573 156.573 C 114.122 155.982,114.571 155.363,114.571 155.198 C 114.571 155.034,115.623 153.415,116.909 151.601 C 121.091 145.700,123.406 142.356,124.857 140.120 C 125.640 138.912,126.431 137.864,126.614 137.791 C 126.796 137.718,126.946 137.426,126.946 137.141 C 126.946 136.857,127.216 136.401,127.545 136.128 C 127.995 135.754,128.144 134.750,128.144 132.087 L 128.144 128.543 110.403 128.543 C 100.645 128.543,92.587 128.678,92.495 128.842 M136.624 153.393 L 136.727 178.244 142.016 178.355 L 147.305 178.466 147.305 153.505 L 147.305 128.543 141.913 128.543 L 136.521 128.543 136.624 153.393 M159.578 129.057 L 158.078 129.484 158.181 153.864 L 158.283 178.244 163.365 178.355 L 168.447 178.467 168.555 169.772 L 168.663 161.078 173.253 160.815 C 178.304 160.525,181.944 159.932,182.581 159.295 C 182.808 159.068,183.407 158.882,183.912 158.882 C 184.417 158.882,184.830 158.722,184.830 158.526 C 184.830 158.331,185.235 158.069,185.729 157.945 C 188.125 157.343,191.217 153.601,192.995 149.153 C 193.693 147.407,193.860 140.560,193.233 139.416 C 193.024 139.034,192.547 138.004,192.172 137.126 C 190.765 133.823,186.136 130.235,181.836 129.115 C 179.932 128.618,161.290 128.570,159.578 129.057 M179.157 137.520 C 181.625 138.794,183.565 142.901,182.823 145.278 C 182.646 145.844,182.401 146.756,182.279 147.305 C 181.597 150.368,177.562 152.479,172.369 152.489 C 168.338 152.497,168.416 152.671,168.553 144.038 L 168.663 137.161 169.661 136.859 C 171.390 136.335,177.715 136.775,179.157 137.520 M207.259 205.057 C 210.328 205.750,214.388 209.686,215.350 212.901 C 215.566 213.623,215.784 224.481,215.855 238.024 C 215.924 251.143,216.090 261.876,216.223 261.876 C 216.356 261.876,217.598 261.068,218.983 260.080 C 220.368 259.092,221.693 258.283,221.928 258.283 C 222.163 258.283,222.355 258.128,222.355 257.937 C 222.355 257.216,225.699 255.420,228.184 254.807 C 238.408 252.284,246.871 265.392,240.320 273.606 C 239.142 275.084,232.301 281.546,227.766 285.465 C 226.900 286.214,225.720 287.275,225.145 287.824 C 223.986 288.930,217.368 295.011,214.017 298.050 C 210.010 301.683,205.966 302.829,201.661 301.551 C 200.308 301.150,199.202 300.681,199.202 300.510 C 199.202 300.339,198.977 300.197,198.703 300.193 C 198.428 300.190,197.575 299.635,196.806 298.959 C 196.038 298.284,194.250 296.715,192.834 295.473 C 191.418 294.230,189.262 292.295,188.044 291.172 C 186.825 290.049,184.930 288.366,183.832 287.431 C 182.735 286.497,180.756 284.721,179.436 283.485 C 178.115 282.249,176.057 280.429,174.860 279.441 C 168.304 274.026,166.467 271.182,166.467 266.448 C 166.467 263.698,167.291 260.734,168.164 260.346 C 168.328 260.273,168.463 259.977,168.463 259.689 C 168.463 259.224,169.435 258.260,171.899 256.279 C 176.530 252.556,182.875 253.881,189.222 259.898 L 191.417 261.979 191.620 238.075 C 191.760 221.722,191.966 213.793,192.276 212.974 C 194.795 206.297,200.170 203.457,207.259 205.057 "
              stroke="none" fill="#f3f3f3" fill-rule="evenodd"/>
        <path id="path2"
              d="M113.245 67.395 C 109.451 68.125,119.371 68.263,175.449 68.263 C 219.894 68.263,238.323 68.389,238.323 68.691 C 238.323 69.244,239.339 70.259,239.892 70.259 C 240.127 70.259,240.319 70.439,240.319 70.659 C 240.319 70.878,240.589 71.058,240.918 71.058 C 241.809 71.058,241.645 70.467,240.519 69.622 C 239.970 69.210,239.521 68.668,239.521 68.418 C 239.521 68.168,238.937 67.819,238.224 67.642 C 237.028 67.346,114.758 67.103,113.245 67.395 M109.381 68.420 C 109.381 69.097,110.461 69.576,110.789 69.044 C 110.919 68.834,110.914 68.483,110.778 68.263 C 110.410 67.667,109.381 67.782,109.381 68.420 M107.285 69.618 C 106.576 70.156,106.315 71.457,106.916 71.457 C 107.304 71.457,108.982 69.734,108.982 69.336 C 108.982 68.890,108.037 69.047,107.285 69.618 M237.405 72.854 C 237.256 73.733,237.133 75.211,237.130 76.140 C 237.128 77.069,236.952 79.045,236.739 80.532 C 236.208 84.236,235.120 96.406,235.125 98.582 C 235.128 99.559,234.954 101.804,234.739 103.572 C 233.133 116.799,232.833 124.260,233.819 126.434 C 235.895 131.011,239.426 132.454,246.882 131.775 C 255.230 131.015,264.466 130.215,270.060 129.767 C 277.967 129.134,279.870 128.975,287.425 128.323 C 291.267 127.991,296.118 127.622,298.204 127.502 C 302.992 127.229,303.148 127.181,302.598 126.154 C 302.173 125.359,301.830 125.349,273.393 125.349 L 244.619 125.349 242.705 124.308 C 241.652 123.735,240.236 122.493,239.557 121.548 L 238.323 119.830 238.284 96.542 C 238.246 74.303,238.050 69.040,237.405 72.854 M243.114 72.474 C 243.114 73.202,247.069 77.125,247.619 76.941 C 248.329 76.705,248.422 75.848,247.738 75.848 C 247.390 75.848,247.106 75.656,247.106 75.421 C 247.106 74.868,246.090 73.852,245.537 73.852 C 245.302 73.852,245.108 73.628,245.107 73.353 C 245.105 73.079,244.656 72.647,244.109 72.393 C 243.310 72.022,243.114 72.038,243.114 72.474 M104.857 73.320 C 104.355 73.822,104.591 75.050,105.190 75.050 C 105.562 75.050,105.788 74.673,105.788 74.052 C 105.788 73.083,105.400 72.777,104.857 73.320 M103.002 77.671 C 102.458 78.205,101.788 78.643,101.513 78.643 C 101.238 78.643,100.900 79.092,100.763 79.641 C 100.625 80.190,100.352 80.639,100.156 80.639 C 99.961 80.639,99.800 81.009,99.800 81.461 C 99.800 81.913,99.644 82.186,99.452 82.067 C 98.763 81.641,98.612 85.088,98.613 101.198 C 98.614 121.031,98.298 119.361,102.046 119.361 L 104.997 119.361 104.894 98.137 C 104.785 75.902,104.787 75.917,103.002 77.671 M250.705 79.165 C 250.714 79.870,254.508 83.433,255.249 83.433 C 256.200 83.433,256.054 83.136,254.207 81.306 C 252.259 79.376,250.695 78.420,250.705 79.165 M258.283 85.745 C 258.283 86.745,262.863 90.581,263.386 90.019 C 263.544 89.850,263.448 89.631,263.174 89.533 C 262.899 89.435,262.675 89.177,262.675 88.960 C 262.675 88.435,261.643 87.425,261.106 87.425 C 260.871 87.425,260.679 87.156,260.679 86.826 C 260.679 86.497,260.409 86.228,260.080 86.228 C 259.750 86.228,259.481 86.048,259.481 85.828 C 259.481 85.609,259.212 85.429,258.882 85.429 C 258.553 85.429,258.283 85.571,258.283 85.745 M266.287 93.068 C 266.803 93.807,267.450 94.550,267.725 94.719 C 267.999 94.889,268.525 95.328,268.892 95.695 C 269.476 96.279,271.058 96.737,271.058 96.322 C 271.058 95.980,269.066 94.212,268.681 94.212 C 268.451 94.212,268.263 94.019,268.263 93.784 C 268.263 93.163,267.370 92.366,266.289 92.023 L 265.349 91.725 266.287 93.068 M273.054 98.536 C 273.054 99.064,276.076 102.196,276.585 102.196 C 276.839 102.196,277.046 102.375,277.046 102.595 C 277.046 102.814,277.285 102.994,277.578 102.994 C 277.871 102.994,278.110 102.725,278.110 102.395 C 278.110 102.066,277.871 101.796,277.578 101.796 C 277.285 101.796,277.046 101.604,277.046 101.369 C 277.046 100.816,276.030 99.800,275.478 99.800 C 275.242 99.800,275.050 99.621,275.050 99.401 C 275.050 99.182,274.780 99.002,274.451 99.002 C 274.122 99.002,273.852 98.822,273.852 98.603 C 273.852 98.383,273.673 98.204,273.453 98.204 C 273.234 98.204,273.054 98.353,273.054 98.536 M280.543 105.443 C 282.544 107.896,284.688 109.695,285.349 109.475 C 286.032 109.247,285.943 108.583,285.230 108.583 C 284.900 108.583,284.631 108.395,284.631 108.165 C 284.631 107.720,282.838 105.788,282.425 105.788 C 282.289 105.788,281.909 105.519,281.580 105.190 C 280.589 104.199,279.705 104.415,280.543 105.443 M287.425 110.974 C 287.425 111.695,291.723 115.873,292.176 115.593 C 292.739 115.246,292.748 114.172,292.189 114.172 C 291.954 114.172,291.190 113.588,290.490 112.874 C 289.010 111.365,287.425 110.382,287.425 110.974 M295.010 117.710 C 295.010 118.298,299.013 122.156,299.623 122.156 C 299.940 122.156,300.194 122.021,300.187 121.856 C 300.164 121.315,299.123 120.160,298.659 120.160 C 298.408 120.160,298.201 119.935,298.199 119.661 C 298.196 119.386,297.570 118.757,296.807 118.263 C 295.287 117.279,295.010 117.193,295.010 117.710 M99.739 193.240 C 99.857 199.068,99.784 200.155,99.235 200.762 C 98.290 201.806,98.453 324.511,99.401 326.244 C 99.731 326.846,100.135 327.340,100.299 327.342 C 100.464 327.344,100.599 327.608,100.599 327.929 C 100.599 328.724,102.181 330.140,103.069 330.140 C 103.467 330.140,103.792 330.409,103.792 330.739 C 103.792 331.269,114.593 331.337,198.603 331.337 C 282.613 331.337,293.413 331.269,293.413 330.739 C 293.413 330.399,293.771 330.140,294.240 330.140 C 295.124 330.140,296.208 329.276,296.208 328.571 C 296.208 328.336,296.477 328.144,296.806 328.144 C 297.136 328.144,297.405 327.795,297.405 327.369 C 297.405 326.943,297.585 326.483,297.804 326.347 C 298.024 326.212,298.204 325.303,298.204 324.328 C 298.204 323.018,298.360 322.555,298.802 322.555 C 299.132 322.555,299.401 322.285,299.401 321.956 C 299.401 321.285,298.385 321.140,298.004 321.756 C 297.841 322.021,266.325 322.156,204.751 322.156 C 100.564 322.156,110.616 322.439,107.551 319.414 C 104.832 316.729,104.990 320.994,104.990 250.254 L 104.990 186.427 102.295 186.427 L 99.601 186.427 99.739 193.240 M304.306 266.866 C 304.309 267.964,304.386 268.366,304.478 267.759 C 304.570 267.152,304.567 266.254,304.473 265.763 C 304.378 265.272,304.303 265.768,304.306 266.866 M304.292 271.657 C 304.297 272.535,304.378 272.847,304.474 272.351 C 304.569 271.854,304.566 271.136,304.466 270.754 C 304.366 270.372,304.288 270.778,304.292 271.657 M303.921 287.425 C 303.906 292.804,303.973 296.801,304.070 296.307 C 304.168 295.813,304.369 295.409,304.519 295.409 C 304.668 295.409,304.790 292.086,304.790 288.024 C 304.790 283.962,304.667 280.639,304.515 280.639 C 304.364 280.639,304.174 279.965,304.094 279.142 C 304.015 278.318,303.937 282.046,303.921 287.425 M302.994 317.166 C 302.994 317.495,303.263 317.764,303.593 317.764 C 303.922 317.764,304.192 317.495,304.192 317.166 C 304.192 316.836,303.922 316.567,303.593 316.567 C 303.263 316.567,302.994 316.836,302.994 317.166 M301.098 319.542 C 299.767 320.925,299.451 321.756,300.256 321.756 C 300.910 321.756,302.994 319.481,302.994 318.766 C 302.994 317.863,302.533 318.052,301.098 319.542 "
              stroke="none" fill="#b6b6b5" fill-rule="evenodd"/>
        <path id="path3"
              d="M100.299 119.636 C 100.684 119.737,101.312 119.737,101.697 119.636 C 102.081 119.536,101.766 119.454,100.998 119.454 C 100.230 119.454,99.915 119.536,100.299 119.636 M131.637 119.661 C 146.622 119.719,171.143 119.719,186.128 119.661 C 201.113 119.603,188.852 119.555,158.882 119.555 C 128.912 119.555,116.652 119.603,131.637 119.661 M169.162 128.440 C 170.753 128.516,173.358 128.516,174.950 128.440 C 176.542 128.364,175.240 128.302,172.056 128.302 C 168.872 128.302,167.570 128.364,169.162 128.440 M128.283 131.737 C 128.283 133.603,128.352 134.366,128.436 133.433 C 128.520 132.500,128.520 130.973,128.436 130.040 C 128.352 129.107,128.283 129.870,128.283 131.737 M136.223 153.114 C 136.151 171.955,136.242 177.999,136.607 178.363 C 136.939 178.696,138.678 178.817,142.295 178.760 L 147.505 178.678 142.116 178.461 L 136.727 178.244 136.522 153.293 L 136.318 128.343 136.223 153.114 M147.493 153.293 C 147.493 167.016,147.543 172.630,147.605 165.768 C 147.666 158.907,147.666 147.680,147.605 140.818 C 147.543 133.957,147.493 139.571,147.493 153.293 M157.780 154.342 C 157.669 181.921,156.935 178.910,163.729 178.755 L 168.663 178.643 168.862 169.798 C 168.972 164.933,168.927 161.037,168.762 161.139 C 168.598 161.241,168.463 165.182,168.463 169.896 L 168.463 178.467 163.373 178.355 L 158.283 178.244 158.079 154.491 L 157.875 130.739 157.780 154.342 M188.423 132.261 C 188.423 132.329,189.007 132.913,189.721 133.558 L 191.018 134.731 189.845 133.433 C 188.753 132.224,188.423 131.952,188.423 132.261 M168.640 137.440 C 168.532 137.722,168.493 141.001,168.554 144.725 L 168.665 151.497 168.864 144.211 C 169.058 137.060,169.037 136.406,168.640 137.440 M99.673 178.742 C 104.982 178.805,113.784 178.805,119.234 178.742 C 124.683 178.679,120.339 178.628,109.581 178.628 C 98.822 178.628,94.364 178.679,99.673 178.742 M128.044 186.327 C 143.688 186.385,169.286 186.385,184.930 186.327 C 200.574 186.269,187.774 186.222,156.487 186.222 C 125.200 186.222,112.400 186.269,128.044 186.327 M99.400 195.091 C 99.291 198.210,99.342 200.620,99.513 200.448 C 99.684 200.276,99.774 197.725,99.711 194.778 L 99.598 189.421 99.400 195.091 M201.507 204.721 C 201.128 204.871,202.053 204.993,203.562 204.992 C 205.072 204.991,206.101 204.858,205.848 204.697 C 205.281 204.334,202.441 204.350,201.507 204.721 M197.901 205.954 C 196.305 206.977,196.011 207.391,197.405 206.652 C 199.078 205.765,199.872 205.198,199.401 205.225 C 199.182 205.238,198.507 205.566,197.901 205.954 M209.842 206.568 C 210.967 207.326,212.267 208.428,212.731 209.017 C 213.194 209.606,213.573 209.919,213.573 209.713 C 213.573 208.988,209.000 205.190,208.127 205.190 C 207.945 205.190,208.716 205.810,209.842 206.568 M191.859 214.204 C 191.726 214.552,191.617 225.442,191.617 238.405 C 191.617 260.794,191.582 261.947,190.918 261.426 C 190.281 260.927,190.269 260.942,190.781 261.594 C 191.091 261.987,191.491 262.162,191.670 261.982 C 191.922 261.731,192.408 213.572,192.158 213.573 C 192.127 213.573,191.992 213.857,191.859 214.204 M215.413 214.571 C 215.742 216.039,215.970 216.357,215.962 215.336 C 215.959 214.915,215.773 214.301,215.551 213.972 C 215.255 213.535,215.218 213.696,215.413 214.571 M175.346 254.623 C 175.069 254.798,175.968 254.875,177.342 254.793 C 180.964 254.578,181.424 254.390,178.443 254.344 C 177.016 254.322,175.622 254.447,175.346 254.623 M230.040 254.567 C 230.424 254.667,231.053 254.667,231.437 254.567 C 231.821 254.466,231.507 254.384,230.739 254.384 C 229.970 254.384,229.656 254.466,230.040 254.567 M237.832 257.334 C 238.551 257.966,239.604 259.022,240.174 259.681 L 241.210 260.878 240.237 259.510 C 239.702 258.757,238.648 257.701,237.895 257.163 L 236.527 256.184 237.832 257.334 M169.465 258.279 C 168.836 258.936,168.398 259.536,168.492 259.614 C 168.586 259.692,169.174 259.155,169.800 258.421 C 171.212 256.763,171.003 256.674,169.465 258.279 M220.160 259.316 L 218.962 260.345 220.259 259.487 C 220.973 259.015,221.557 258.551,221.557 258.456 C 221.557 258.157,221.388 258.261,220.160 259.316 M217.177 261.297 C 216.415 261.835,215.966 262.275,216.179 262.273 C 216.392 262.272,217.106 261.830,217.764 261.290 C 219.302 260.029,218.967 260.033,217.177 261.297 M166.537 266.291 C 166.484 268.885,166.618 269.894,167.095 270.483 C 167.441 270.909,167.576 270.988,167.395 270.659 C 167.214 270.329,166.963 268.443,166.837 266.467 L 166.607 262.874 166.537 266.291 M172.477 277.314 C 172.500 277.648,176.846 281.221,176.846 280.906 C 176.846 280.812,175.858 279.892,174.651 278.860 C 173.443 277.828,172.465 277.133,172.477 277.314 M230.121 283.134 L 228.543 284.830 230.240 283.252 C 231.173 282.384,231.936 281.621,231.936 281.556 C 231.936 281.254,231.588 281.556,230.121 283.134 M180.838 284.830 C 181.583 285.599,182.282 286.228,182.392 286.228 C 182.502 286.228,181.982 285.599,181.238 284.830 C 180.493 284.062,179.793 283.433,179.684 283.433 C 179.574 283.433,180.093 284.062,180.838 284.830 M187.625 290.818 C 188.370 291.587,189.069 292.216,189.179 292.216 C 189.288 292.216,188.769 291.587,188.024 290.818 C 187.279 290.050,186.580 289.421,186.470 289.421 C 186.360 289.421,186.880 290.050,187.625 290.818 M221.535 290.918 L 220.160 292.415 221.657 291.039 C 223.050 289.759,223.337 289.421,223.032 289.421 C 222.966 289.421,222.292 290.095,221.535 290.918 M190.419 293.139 C 190.419 293.208,191.003 293.791,191.717 294.436 L 193.014 295.609 191.841 294.311 C 190.749 293.102,190.419 292.830,190.419 293.139 M216.673 295.220 C 215.852 295.983,215.323 296.607,215.496 296.607 C 215.670 296.607,216.421 295.978,217.166 295.210 C 218.903 293.417,218.606 293.423,216.673 295.220 M212.253 299.214 C 211.637 299.756,211.291 300.200,211.485 300.200 C 211.679 300.200,212.259 299.750,212.774 299.202 C 213.968 297.932,213.704 297.938,212.253 299.214 M203.892 302.078 C 204.386 302.173,205.195 302.173,205.689 302.078 C 206.183 301.983,205.778 301.905,204.790 301.905 C 203.802 301.905,203.398 301.983,203.892 302.078 "
              stroke="none" fill="#c8b2a2" fill-rule="evenodd"/>
        <path id="path4"
              d="M102.695 119.636 C 103.079 119.737,103.708 119.737,104.092 119.636 C 104.476 119.536,104.162 119.454,103.393 119.454 C 102.625 119.454,102.310 119.536,102.695 119.636 M213.876 120.730 C 216.445 121.685,217.577 122.720,218.862 125.292 C 219.990 127.547,219.929 178.333,218.797 180.664 C 217.708 182.903,215.854 184.511,213.454 185.296 C 212.241 185.693,211.752 185.986,212.280 186.002 C 214.712 186.073,218.178 183.337,219.479 180.321 C 220.280 178.462,220.159 127.120,219.348 125.181 C 218.166 122.351,214.728 119.725,212.280 119.781 C 211.764 119.793,212.447 120.199,213.876 120.730 M169.777 128.041 C 171.268 128.118,173.604 128.117,174.967 128.040 C 176.330 127.962,175.110 127.899,172.255 127.900 C 169.401 127.900,168.286 127.964,169.777 128.041 M91.591 128.664 C 91.480 128.955,91.440 131.158,91.503 133.559 L 91.617 137.924 102.453 138.124 L 113.289 138.323 109.940 143.114 C 108.098 145.749,106.275 148.334,105.890 148.860 C 105.115 149.918,104.707 150.520,102.443 153.944 C 101.591 155.233,99.839 157.753,98.551 159.543 C 97.262 161.334,96.208 162.981,96.208 163.203 C 96.208 163.424,96.058 163.666,95.875 163.739 C 95.482 163.897,91.417 169.454,91.417 169.834 C 91.417 169.977,90.968 170.579,90.419 171.171 C 89.237 172.446,88.905 178.316,89.966 179.197 C 90.358 179.522,95.895 179.620,109.826 179.545 L 129.142 179.441 129.142 174.251 L 129.142 169.062 117.764 168.980 C 111.507 168.935,106.395 168.756,106.405 168.581 C 106.440 167.950,107.521 166.068,107.849 166.068 C 108.033 166.068,108.184 165.798,108.184 165.469 C 108.184 165.140,108.351 164.870,108.556 164.870 C 108.761 164.870,109.032 164.543,109.159 164.142 C 109.286 163.742,109.703 163.061,110.084 162.630 C 111.388 161.158,115.841 154.430,115.643 154.232 C 115.534 154.124,114.396 155.590,113.112 157.491 C 111.829 159.392,109.674 162.528,108.325 164.461 C 106.975 166.393,105.750 168.353,105.603 168.817 L 105.335 169.661 117.139 169.661 L 128.942 169.661 128.942 174.255 L 128.942 178.850 109.481 178.746 L 90.020 178.643 89.903 175.744 L 89.785 172.846 93.595 167.480 C 95.691 164.528,97.405 162.007,97.405 161.878 C 97.405 161.748,97.854 161.157,98.403 160.565 C 98.952 159.974,99.401 159.353,99.401 159.187 C 99.401 159.021,100.899 156.773,102.729 154.193 C 111.643 141.624,113.777 138.454,113.561 138.104 C 113.422 137.880,109.029 137.725,102.800 137.725 C 93.426 137.725,92.260 137.654,92.145 137.079 C 92.074 136.724,92.073 134.659,92.142 132.488 L 92.269 128.543 110.445 128.543 L 128.622 128.543 128.483 132.036 L 128.343 135.529 125.907 138.922 C 124.567 140.789,122.551 143.714,121.426 145.424 C 120.301 147.134,118.533 149.720,117.497 151.172 C 116.462 152.623,115.843 153.734,116.122 153.641 C 116.401 153.548,116.930 152.945,117.297 152.301 C 117.664 151.657,118.368 150.676,118.862 150.120 C 119.356 149.565,119.760 148.927,119.760 148.703 C 119.760 148.479,120.210 147.811,120.758 147.219 C 121.307 146.627,121.756 146.033,121.756 145.898 C 121.756 145.764,122.834 144.137,124.152 142.283 C 125.469 140.430,126.547 138.750,126.547 138.552 C 126.547 138.353,126.700 138.130,126.886 138.057 C 128.263 137.518,129.371 134.416,129.258 131.419 L 129.142 128.343 110.468 128.240 C 95.267 128.155,91.757 128.234,91.591 128.664 M136.005 128.400 C 135.227 129.178,135.711 178.805,136.501 179.227 C 137.708 179.874,147.105 179.764,147.659 179.097 C 147.986 178.703,148.082 171.660,148.007 153.448 L 147.904 128.343 142.093 128.233 C 138.896 128.173,136.157 128.248,136.005 128.400 M157.972 128.708 C 156.904 129.518,156.895 178.350,157.963 179.142 C 158.980 179.896,168.207 179.832,168.842 179.066 C 169.182 178.656,169.307 176.030,169.277 169.907 L 169.236 161.322 174.338 161.169 C 179.089 161.026,181.888 160.582,183.546 159.709 C 183.923 159.511,184.860 159.076,185.629 158.743 C 188.769 157.381,191.979 153.745,193.393 149.946 C 194.219 147.729,194.411 140.013,193.674 138.685 C 193.442 138.266,192.954 137.251,192.589 136.427 C 191.180 133.249,185.766 128.942,183.181 128.942 C 182.577 128.942,181.972 128.762,181.836 128.543 C 181.701 128.323,180.657 128.168,179.517 128.198 C 178.378 128.228,177.894 128.318,178.443 128.399 C 185.367 129.416,190.118 132.294,192.187 136.727 C 192.597 137.605,193.085 138.635,193.272 139.017 C 193.830 140.152,193.663 147.729,193.041 149.501 C 190.450 156.881,184.803 160.210,173.852 160.814 L 169.062 161.078 168.862 169.860 L 168.663 178.643 163.729 178.755 C 156.924 178.910,157.670 181.987,157.691 153.878 C 157.711 126.034,157.128 128.922,162.803 128.532 L 166.667 128.267 162.675 128.218 C 159.876 128.184,158.470 128.330,157.972 128.708 M147.705 153.061 C 147.705 166.546,147.596 177.864,147.462 178.211 C 147.152 179.020,137.401 179.157,136.607 178.363 C 136.245 178.001,136.128 171.870,136.128 153.214 L 136.128 128.543 141.916 128.543 L 147.705 128.543 147.705 153.061 M170.858 136.873 L 169.062 137.126 168.953 144.259 C 168.825 152.617,168.777 152.497,172.205 152.491 C 179.379 152.478,184.135 147.764,182.470 142.315 C 182.169 141.327,182.099 141.627,182.070 144.026 C 182.033 147.214,180.725 150.100,179.319 150.100 C 179.111 150.100,178.732 150.350,178.478 150.657 C 177.973 151.265,176.336 151.633,172.678 151.961 C 169.292 152.266,169.261 152.195,169.261 144.035 L 169.261 137.325 171.158 137.262 C 174.375 137.155,177.427 137.384,177.824 137.762 C 178.033 137.961,178.510 138.124,178.883 138.124 C 179.257 138.124,180.114 138.797,180.786 139.621 C 181.459 140.444,182.015 140.918,182.023 140.673 C 182.096 138.240,175.967 136.154,170.858 136.873 M99.162 186.585 C 99.045 186.891,99.010 187.834,99.085 188.681 C 99.211 190.106,99.235 190.065,99.411 188.124 C 99.605 185.984,99.542 185.596,99.162 186.585 M200.798 205.147 C 197.919 205.792,194.758 208.267,193.402 210.940 C 192.316 213.082,192.802 212.960,194.113 210.761 C 196.358 206.997,199.151 205.480,203.838 205.480 C 206.762 205.480,207.762 205.626,208.323 206.133 C 208.720 206.492,209.210 206.791,209.413 206.796 C 210.077 206.812,212.615 209.346,213.804 211.178 L 214.970 212.974 215.089 237.824 C 215.202 261.220,215.250 262.675,215.910 262.675 C 216.580 262.675,221.674 259.317,223.353 257.769 C 226.209 255.137,231.448 254.601,235.740 256.504 C 237.193 257.148,240.719 260.774,240.719 261.624 C 240.719 261.957,240.898 262.339,241.118 262.475 C 241.337 262.611,241.538 263.115,241.563 263.596 C 241.603 264.347,241.637 264.365,241.802 263.720 C 242.147 262.376,240.024 259.066,237.662 257.265 C 233.682 254.229,227.736 254.014,223.945 256.769 C 223.554 257.053,221.707 258.408,219.839 259.780 C 217.971 261.153,216.336 262.275,216.205 262.275 C 216.075 262.275,215.962 251.991,215.954 239.421 C 215.937 212.778,215.926 212.673,212.612 208.907 C 209.754 205.659,205.112 204.181,200.798 205.147 M192.272 214.056 C 192.137 214.559,192.024 225.513,192.021 238.400 C 192.018 251.286,191.881 261.912,191.717 262.012 C 191.552 262.113,190.339 261.205,189.022 259.994 C 184.847 256.157,181.989 254.629,179.213 254.750 C 177.883 254.809,177.878 254.815,179.042 254.966 C 180.281 255.127,181.905 255.641,183.633 256.417 C 184.666 256.882,188.733 260.151,190.334 261.805 C 192.408 263.946,192.377 264.289,192.500 237.843 C 192.563 224.384,192.593 213.321,192.566 213.258 C 192.539 213.194,192.406 213.553,192.272 214.056 M174.052 255.385 C 172.044 256.091,167.665 260.220,167.665 261.407 C 167.665 261.797,167.468 262.312,167.228 262.552 C 166.988 262.793,166.862 263.322,166.949 263.730 C 167.059 264.247,167.268 263.988,167.641 262.874 C 168.604 260.001,172.387 255.901,174.091 255.882 C 174.399 255.879,175.369 255.617,176.248 255.301 C 177.483 254.856,177.619 254.729,176.846 254.740 C 176.297 254.747,175.040 255.038,174.052 255.385 M242.025 266.667 C 242.025 267.655,242.103 268.059,242.198 267.565 C 242.293 267.071,242.293 266.262,242.198 265.768 C 242.103 265.274,242.025 265.679,242.025 266.667 M166.882 268.744 C 166.835 270.773,169.140 274.167,172.540 277.078 C 174.140 278.448,177.066 281.041,179.042 282.840 C 181.018 284.640,183.353 286.722,184.232 287.467 C 185.110 288.211,185.918 288.911,186.028 289.021 C 186.415 289.410,190.675 293.248,193.782 296.008 C 200.872 302.306,205.094 303.340,210.849 300.187 C 212.372 299.352,223.818 289.022,223.220 289.022 C 223.054 289.022,222.182 289.696,221.281 290.519 C 214.740 296.496,212.398 298.568,211.178 299.455 C 207.913 301.829,202.048 301.874,198.929 299.550 C 198.230 299.029,197.481 298.603,197.265 298.603 C 197.050 298.603,196.813 298.468,196.740 298.303 C 196.589 297.965,193.226 294.867,188.831 291.018 C 187.201 289.591,185.401 287.974,184.830 287.425 C 184.259 286.876,182.634 285.439,181.219 284.232 C 179.804 283.024,178.107 281.493,177.447 280.830 C 176.787 280.167,175.080 278.641,173.653 277.439 C 170.577 274.848,168.877 273.043,168.869 272.355 C 168.865 272.081,168.683 271.856,168.463 271.856 C 168.244 271.856,168.064 271.607,168.064 271.303 C 168.064 270.475,166.900 267.955,166.882 268.744 M241.571 269.537 C 241.541 270.128,241.337 270.723,241.118 270.858 C 240.898 270.994,240.719 271.413,240.719 271.789 C 240.719 272.474,236.028 277.194,230.137 282.435 C 225.400 286.650,223.406 288.623,223.882 288.623 C 224.118 288.623,224.455 288.398,224.631 288.124 C 224.806 287.849,226.567 286.189,228.543 284.435 C 239.727 274.504,242.253 271.612,241.787 269.274 C 241.667 268.668,241.612 268.735,241.571 269.537 "
              stroke="none" fill="#f49c68" fill-rule="evenodd"/>
    </g>
</svg>